%TF.GenerationSoftware,KiCad,Pcbnew,7.0.10*%
%TF.CreationDate,2024-02-03T21:39:14-08:00*%
%TF.ProjectId,Leak_Detection_PCB,4c65616b-5f44-4657-9465-6374696f6e5f,rev?*%
%TF.SameCoordinates,Original*%
%TF.FileFunction,Copper,L2,Bot*%
%TF.FilePolarity,Positive*%
%FSLAX46Y46*%
G04 Gerber Fmt 4.6, Leading zero omitted, Abs format (unit mm)*
G04 Created by KiCad (PCBNEW 7.0.10) date 2024-02-03 21:39:14*
%MOMM*%
%LPD*%
G01*
G04 APERTURE LIST*
%TA.AperFunction,ComponentPad*%
%ADD10C,4.400000*%
%TD*%
%TA.AperFunction,SMDPad,CuDef*%
%ADD11C,1.500000*%
%TD*%
%TA.AperFunction,ViaPad*%
%ADD12C,0.800000*%
%TD*%
%TA.AperFunction,Conductor*%
%ADD13C,0.750000*%
%TD*%
G04 APERTURE END LIST*
D10*
%TO.P,H1,1*%
%TO.N,N/C*%
X176276000Y-111252000D03*
%TD*%
%TO.P,H2,1*%
%TO.N,N/C*%
X176276000Y-117202000D03*
%TD*%
D11*
%TO.P,TP2,1,1*%
%TO.N,GND*%
X166370000Y-111760000D03*
%TD*%
D12*
%TO.N,VCC*%
X160020000Y-118110000D03*
X160020000Y-115570000D03*
X160020000Y-110490000D03*
X165100000Y-115570000D03*
X160020000Y-113030000D03*
%TO.N,GND*%
X162560000Y-119380000D03*
X160020000Y-114300000D03*
X168910000Y-111379000D03*
X165989000Y-114046000D03*
X162560000Y-109220000D03*
X160020000Y-116840000D03*
X159893000Y-111760000D03*
%TD*%
D13*
%TO.N,GND*%
X124917200Y-109220000D02*
X162560000Y-109220000D01*
X162560000Y-119380000D02*
X125095000Y-119380000D01*
%TO.N,VCC*%
X124460000Y-110490000D02*
X160020000Y-110490000D01*
X162560000Y-113030000D02*
X162560000Y-111760000D01*
X161798000Y-118110000D02*
X162560000Y-117348000D01*
X161290000Y-110490000D02*
X160020000Y-110490000D01*
X162560000Y-117348000D02*
X162560000Y-115570000D01*
X162560000Y-114300000D02*
X162560000Y-113030000D01*
X162560000Y-111760000D02*
X161290000Y-110490000D01*
X160020000Y-113030000D02*
X162560000Y-113030000D01*
X124460000Y-115570000D02*
X160020000Y-115570000D01*
X163830000Y-114300000D02*
X165100000Y-115570000D01*
X161798000Y-118110000D02*
X160020000Y-118110000D01*
X124460000Y-118110000D02*
X160020000Y-118110000D01*
X124460000Y-113030000D02*
X160020000Y-113030000D01*
X162560000Y-115570000D02*
X162560000Y-114300000D01*
X162560000Y-114300000D02*
X163830000Y-114300000D01*
X160020000Y-115570000D02*
X162560000Y-115570000D01*
%TO.N,GND*%
X124460000Y-116840000D02*
X160147000Y-116840000D01*
X124460000Y-114300000D02*
X160020000Y-114300000D01*
X124460000Y-111760000D02*
X160528000Y-111760000D01*
%TD*%
%TA.AperFunction,Conductor*%
%TO.N,GND*%
G36*
X174693714Y-108351423D02*
G01*
X174740133Y-108403644D01*
X174752000Y-108456579D01*
X174752000Y-108955015D01*
X174732315Y-109022054D01*
X174704473Y-109052626D01*
X174481960Y-109226954D01*
X174250954Y-109457960D01*
X174049473Y-109715131D01*
X173880454Y-109994723D01*
X173880453Y-109994725D01*
X173746372Y-110292642D01*
X173746366Y-110292657D01*
X173649178Y-110604547D01*
X173590289Y-110925900D01*
X173570564Y-111252000D01*
X173590289Y-111578099D01*
X173649178Y-111899452D01*
X173746366Y-112211342D01*
X173746370Y-112211354D01*
X173746373Y-112211361D01*
X173880455Y-112509279D01*
X174044901Y-112781306D01*
X174049473Y-112788868D01*
X174250954Y-113046039D01*
X174481960Y-113277045D01*
X174481964Y-113277048D01*
X174704473Y-113451373D01*
X174745106Y-113508212D01*
X174752000Y-113548983D01*
X174752000Y-114905015D01*
X174732315Y-114972054D01*
X174704473Y-115002626D01*
X174481960Y-115176954D01*
X174250954Y-115407960D01*
X174049473Y-115665131D01*
X173922708Y-115874825D01*
X173884347Y-115938284D01*
X173880454Y-115944723D01*
X173880453Y-115944725D01*
X173746372Y-116242642D01*
X173746366Y-116242657D01*
X173649178Y-116554547D01*
X173590289Y-116875900D01*
X173570564Y-117202000D01*
X173590289Y-117528099D01*
X173649178Y-117849452D01*
X173746366Y-118161342D01*
X173746370Y-118161354D01*
X173746373Y-118161361D01*
X173880455Y-118459279D01*
X174044901Y-118731306D01*
X174049473Y-118738868D01*
X174250954Y-118996039D01*
X174481960Y-119227045D01*
X174481964Y-119227048D01*
X174704473Y-119401373D01*
X174745106Y-119458212D01*
X174752000Y-119498983D01*
X174752000Y-119638559D01*
X174732315Y-119705598D01*
X174679511Y-119751353D01*
X174629569Y-119762549D01*
X164844569Y-119886410D01*
X164777286Y-119867576D01*
X164730867Y-119815355D01*
X164719000Y-119762420D01*
X164719000Y-116562760D01*
X164738685Y-116495721D01*
X164791489Y-116449966D01*
X164860647Y-116440022D01*
X164868758Y-116441466D01*
X165005354Y-116470500D01*
X165005355Y-116470500D01*
X165194644Y-116470500D01*
X165194646Y-116470500D01*
X165379803Y-116431144D01*
X165552730Y-116354151D01*
X165705871Y-116242888D01*
X165832533Y-116102216D01*
X165927179Y-115938284D01*
X165985674Y-115758256D01*
X166005460Y-115570000D01*
X165985674Y-115381744D01*
X165927179Y-115201716D01*
X165832533Y-115037784D01*
X165705871Y-114897112D01*
X165565243Y-114794940D01*
X165550447Y-114782303D01*
X164755319Y-113987175D01*
X164721834Y-113925852D01*
X164719000Y-113899494D01*
X164719000Y-112803124D01*
X165680427Y-112803124D01*
X165742612Y-112846666D01*
X165940840Y-112939101D01*
X165940849Y-112939105D01*
X166152105Y-112995710D01*
X166152115Y-112995712D01*
X166369999Y-113014775D01*
X166370001Y-113014775D01*
X166587884Y-112995712D01*
X166587894Y-112995710D01*
X166799150Y-112939105D01*
X166799164Y-112939100D01*
X166997383Y-112846669D01*
X166997385Y-112846668D01*
X167059571Y-112803124D01*
X166370001Y-112113553D01*
X166370000Y-112113553D01*
X165680427Y-112803124D01*
X164719000Y-112803124D01*
X164719000Y-111760000D01*
X165115225Y-111760000D01*
X165134287Y-111977884D01*
X165134289Y-111977894D01*
X165190894Y-112189150D01*
X165190898Y-112189159D01*
X165283333Y-112387387D01*
X165326874Y-112449571D01*
X166016446Y-111760000D01*
X166723553Y-111760000D01*
X167413124Y-112449570D01*
X167456668Y-112387385D01*
X167456669Y-112387383D01*
X167549100Y-112189164D01*
X167549105Y-112189150D01*
X167605710Y-111977894D01*
X167605712Y-111977884D01*
X167624775Y-111760000D01*
X167624775Y-111759999D01*
X167605712Y-111542115D01*
X167605710Y-111542105D01*
X167549105Y-111330849D01*
X167549101Y-111330840D01*
X167456667Y-111132614D01*
X167456666Y-111132612D01*
X167413124Y-111070428D01*
X167413124Y-111070427D01*
X166723553Y-111759999D01*
X166723553Y-111760000D01*
X166016446Y-111760000D01*
X165326874Y-111070428D01*
X165283333Y-111132613D01*
X165190898Y-111330840D01*
X165190894Y-111330849D01*
X165134289Y-111542105D01*
X165134287Y-111542115D01*
X165115225Y-111759999D01*
X165115225Y-111760000D01*
X164719000Y-111760000D01*
X164719000Y-110716874D01*
X165680428Y-110716874D01*
X166370000Y-111406446D01*
X166370001Y-111406446D01*
X167059571Y-110716874D01*
X166997387Y-110673333D01*
X166799159Y-110580898D01*
X166799150Y-110580894D01*
X166587894Y-110524289D01*
X166587884Y-110524287D01*
X166370001Y-110505225D01*
X166369999Y-110505225D01*
X166152115Y-110524287D01*
X166152105Y-110524289D01*
X165940849Y-110580894D01*
X165940840Y-110580898D01*
X165742613Y-110673333D01*
X165680428Y-110716874D01*
X164719000Y-110716874D01*
X164719000Y-108580440D01*
X164738685Y-108513401D01*
X164791489Y-108467646D01*
X164841429Y-108456450D01*
X174626432Y-108332589D01*
X174693714Y-108351423D01*
G37*
%TD.AperFunction*%
%TD*%
M02*
