%TF.GenerationSoftware,KiCad,Pcbnew,7.0.10*%
%TF.CreationDate,2024-02-03T21:39:14-08:00*%
%TF.ProjectId,Leak_Detection_PCB,4c65616b-5f44-4657-9465-6374696f6e5f,rev?*%
%TF.SameCoordinates,Original*%
%TF.FileFunction,Legend,Bot*%
%TF.FilePolarity,Positive*%
%FSLAX46Y46*%
G04 Gerber Fmt 4.6, Leading zero omitted, Abs format (unit mm)*
G04 Created by KiCad (PCBNEW 7.0.10) date 2024-02-03 21:39:14*
%MOMM*%
%LPD*%
G01*
G04 APERTURE LIST*
%ADD10C,0.150000*%
%ADD11C,0.120000*%
G04 APERTURE END LIST*
D10*
X167631904Y-109566819D02*
X167060476Y-109566819D01*
X167346190Y-110566819D02*
X167346190Y-109566819D01*
X166727142Y-110566819D02*
X166727142Y-109566819D01*
X166727142Y-109566819D02*
X166346190Y-109566819D01*
X166346190Y-109566819D02*
X166250952Y-109614438D01*
X166250952Y-109614438D02*
X166203333Y-109662057D01*
X166203333Y-109662057D02*
X166155714Y-109757295D01*
X166155714Y-109757295D02*
X166155714Y-109900152D01*
X166155714Y-109900152D02*
X166203333Y-109995390D01*
X166203333Y-109995390D02*
X166250952Y-110043009D01*
X166250952Y-110043009D02*
X166346190Y-110090628D01*
X166346190Y-110090628D02*
X166727142Y-110090628D01*
X165774761Y-109662057D02*
X165727142Y-109614438D01*
X165727142Y-109614438D02*
X165631904Y-109566819D01*
X165631904Y-109566819D02*
X165393809Y-109566819D01*
X165393809Y-109566819D02*
X165298571Y-109614438D01*
X165298571Y-109614438D02*
X165250952Y-109662057D01*
X165250952Y-109662057D02*
X165203333Y-109757295D01*
X165203333Y-109757295D02*
X165203333Y-109852533D01*
X165203333Y-109852533D02*
X165250952Y-109995390D01*
X165250952Y-109995390D02*
X165822380Y-110566819D01*
X165822380Y-110566819D02*
X165203333Y-110566819D01*
D11*
%TO.C,TP2*%
X167320000Y-111760000D02*
G75*
G03*
X165420000Y-111760000I-950000J0D01*
G01*
X165420000Y-111760000D02*
G75*
G03*
X167320000Y-111760000I950000J0D01*
G01*
%TD*%
M02*
