%TF.GenerationSoftware,KiCad,Pcbnew,7.0.10*%
%TF.CreationDate,2024-02-03T21:39:14-08:00*%
%TF.ProjectId,Leak_Detection_PCB,4c65616b-5f44-4657-9465-6374696f6e5f,rev?*%
%TF.SameCoordinates,Original*%
%TF.FileFunction,Legend,Top*%
%TF.FilePolarity,Positive*%
%FSLAX46Y46*%
G04 Gerber Fmt 4.6, Leading zero omitted, Abs format (unit mm)*
G04 Created by KiCad (PCBNEW 7.0.10) date 2024-02-03 21:39:14*
%MOMM*%
%LPD*%
G01*
G04 APERTURE LIST*
%ADD10C,0.080000*%
%ADD11C,0.120000*%
%ADD12C,0.150000*%
G04 APERTURE END LIST*
D10*
X164036573Y-119695649D02*
X163798478Y-119695649D01*
X163798478Y-119695649D02*
X163798478Y-119195649D01*
X164393716Y-119671840D02*
X164346097Y-119695649D01*
X164346097Y-119695649D02*
X164250859Y-119695649D01*
X164250859Y-119695649D02*
X164203240Y-119671840D01*
X164203240Y-119671840D02*
X164179431Y-119624220D01*
X164179431Y-119624220D02*
X164179431Y-119433744D01*
X164179431Y-119433744D02*
X164203240Y-119386125D01*
X164203240Y-119386125D02*
X164250859Y-119362316D01*
X164250859Y-119362316D02*
X164346097Y-119362316D01*
X164346097Y-119362316D02*
X164393716Y-119386125D01*
X164393716Y-119386125D02*
X164417526Y-119433744D01*
X164417526Y-119433744D02*
X164417526Y-119481363D01*
X164417526Y-119481363D02*
X164179431Y-119528982D01*
X164846097Y-119695649D02*
X164846097Y-119433744D01*
X164846097Y-119433744D02*
X164822287Y-119386125D01*
X164822287Y-119386125D02*
X164774668Y-119362316D01*
X164774668Y-119362316D02*
X164679430Y-119362316D01*
X164679430Y-119362316D02*
X164631811Y-119386125D01*
X164846097Y-119671840D02*
X164798478Y-119695649D01*
X164798478Y-119695649D02*
X164679430Y-119695649D01*
X164679430Y-119695649D02*
X164631811Y-119671840D01*
X164631811Y-119671840D02*
X164608002Y-119624220D01*
X164608002Y-119624220D02*
X164608002Y-119576601D01*
X164608002Y-119576601D02*
X164631811Y-119528982D01*
X164631811Y-119528982D02*
X164679430Y-119505173D01*
X164679430Y-119505173D02*
X164798478Y-119505173D01*
X164798478Y-119505173D02*
X164846097Y-119481363D01*
X165084192Y-119695649D02*
X165084192Y-119195649D01*
X165131811Y-119505173D02*
X165274668Y-119695649D01*
X165274668Y-119362316D02*
X165084192Y-119552792D01*
X165869906Y-119695649D02*
X165869906Y-119195649D01*
X165869906Y-119195649D02*
X165988954Y-119195649D01*
X165988954Y-119195649D02*
X166060382Y-119219459D01*
X166060382Y-119219459D02*
X166108001Y-119267078D01*
X166108001Y-119267078D02*
X166131811Y-119314697D01*
X166131811Y-119314697D02*
X166155620Y-119409935D01*
X166155620Y-119409935D02*
X166155620Y-119481363D01*
X166155620Y-119481363D02*
X166131811Y-119576601D01*
X166131811Y-119576601D02*
X166108001Y-119624220D01*
X166108001Y-119624220D02*
X166060382Y-119671840D01*
X166060382Y-119671840D02*
X165988954Y-119695649D01*
X165988954Y-119695649D02*
X165869906Y-119695649D01*
X166560382Y-119671840D02*
X166512763Y-119695649D01*
X166512763Y-119695649D02*
X166417525Y-119695649D01*
X166417525Y-119695649D02*
X166369906Y-119671840D01*
X166369906Y-119671840D02*
X166346097Y-119624220D01*
X166346097Y-119624220D02*
X166346097Y-119433744D01*
X166346097Y-119433744D02*
X166369906Y-119386125D01*
X166369906Y-119386125D02*
X166417525Y-119362316D01*
X166417525Y-119362316D02*
X166512763Y-119362316D01*
X166512763Y-119362316D02*
X166560382Y-119386125D01*
X166560382Y-119386125D02*
X166584192Y-119433744D01*
X166584192Y-119433744D02*
X166584192Y-119481363D01*
X166584192Y-119481363D02*
X166346097Y-119528982D01*
X166727049Y-119362316D02*
X166917525Y-119362316D01*
X166798477Y-119195649D02*
X166798477Y-119624220D01*
X166798477Y-119624220D02*
X166822287Y-119671840D01*
X166822287Y-119671840D02*
X166869906Y-119695649D01*
X166869906Y-119695649D02*
X166917525Y-119695649D01*
X167274667Y-119671840D02*
X167227048Y-119695649D01*
X167227048Y-119695649D02*
X167131810Y-119695649D01*
X167131810Y-119695649D02*
X167084191Y-119671840D01*
X167084191Y-119671840D02*
X167060382Y-119624220D01*
X167060382Y-119624220D02*
X167060382Y-119433744D01*
X167060382Y-119433744D02*
X167084191Y-119386125D01*
X167084191Y-119386125D02*
X167131810Y-119362316D01*
X167131810Y-119362316D02*
X167227048Y-119362316D01*
X167227048Y-119362316D02*
X167274667Y-119386125D01*
X167274667Y-119386125D02*
X167298477Y-119433744D01*
X167298477Y-119433744D02*
X167298477Y-119481363D01*
X167298477Y-119481363D02*
X167060382Y-119528982D01*
X167727048Y-119671840D02*
X167679429Y-119695649D01*
X167679429Y-119695649D02*
X167584191Y-119695649D01*
X167584191Y-119695649D02*
X167536572Y-119671840D01*
X167536572Y-119671840D02*
X167512762Y-119648030D01*
X167512762Y-119648030D02*
X167488953Y-119600411D01*
X167488953Y-119600411D02*
X167488953Y-119457554D01*
X167488953Y-119457554D02*
X167512762Y-119409935D01*
X167512762Y-119409935D02*
X167536572Y-119386125D01*
X167536572Y-119386125D02*
X167584191Y-119362316D01*
X167584191Y-119362316D02*
X167679429Y-119362316D01*
X167679429Y-119362316D02*
X167727048Y-119386125D01*
X167869905Y-119362316D02*
X168060381Y-119362316D01*
X167941333Y-119195649D02*
X167941333Y-119624220D01*
X167941333Y-119624220D02*
X167965143Y-119671840D01*
X167965143Y-119671840D02*
X168012762Y-119695649D01*
X168012762Y-119695649D02*
X168060381Y-119695649D01*
X168227047Y-119695649D02*
X168227047Y-119362316D01*
X168227047Y-119195649D02*
X168203238Y-119219459D01*
X168203238Y-119219459D02*
X168227047Y-119243268D01*
X168227047Y-119243268D02*
X168250857Y-119219459D01*
X168250857Y-119219459D02*
X168227047Y-119195649D01*
X168227047Y-119195649D02*
X168227047Y-119243268D01*
X168536571Y-119695649D02*
X168488952Y-119671840D01*
X168488952Y-119671840D02*
X168465142Y-119648030D01*
X168465142Y-119648030D02*
X168441333Y-119600411D01*
X168441333Y-119600411D02*
X168441333Y-119457554D01*
X168441333Y-119457554D02*
X168465142Y-119409935D01*
X168465142Y-119409935D02*
X168488952Y-119386125D01*
X168488952Y-119386125D02*
X168536571Y-119362316D01*
X168536571Y-119362316D02*
X168607999Y-119362316D01*
X168607999Y-119362316D02*
X168655618Y-119386125D01*
X168655618Y-119386125D02*
X168679428Y-119409935D01*
X168679428Y-119409935D02*
X168703237Y-119457554D01*
X168703237Y-119457554D02*
X168703237Y-119600411D01*
X168703237Y-119600411D02*
X168679428Y-119648030D01*
X168679428Y-119648030D02*
X168655618Y-119671840D01*
X168655618Y-119671840D02*
X168607999Y-119695649D01*
X168607999Y-119695649D02*
X168536571Y-119695649D01*
X168917523Y-119362316D02*
X168917523Y-119695649D01*
X168917523Y-119409935D02*
X168941333Y-119386125D01*
X168941333Y-119386125D02*
X168988952Y-119362316D01*
X168988952Y-119362316D02*
X169060380Y-119362316D01*
X169060380Y-119362316D02*
X169107999Y-119386125D01*
X169107999Y-119386125D02*
X169131809Y-119433744D01*
X169131809Y-119433744D02*
X169131809Y-119695649D01*
X169750856Y-119695649D02*
X169750856Y-119195649D01*
X169750856Y-119195649D02*
X169941332Y-119195649D01*
X169941332Y-119195649D02*
X169988951Y-119219459D01*
X169988951Y-119219459D02*
X170012761Y-119243268D01*
X170012761Y-119243268D02*
X170036570Y-119290887D01*
X170036570Y-119290887D02*
X170036570Y-119362316D01*
X170036570Y-119362316D02*
X170012761Y-119409935D01*
X170012761Y-119409935D02*
X169988951Y-119433744D01*
X169988951Y-119433744D02*
X169941332Y-119457554D01*
X169941332Y-119457554D02*
X169750856Y-119457554D01*
X170536570Y-119648030D02*
X170512761Y-119671840D01*
X170512761Y-119671840D02*
X170441332Y-119695649D01*
X170441332Y-119695649D02*
X170393713Y-119695649D01*
X170393713Y-119695649D02*
X170322285Y-119671840D01*
X170322285Y-119671840D02*
X170274666Y-119624220D01*
X170274666Y-119624220D02*
X170250856Y-119576601D01*
X170250856Y-119576601D02*
X170227047Y-119481363D01*
X170227047Y-119481363D02*
X170227047Y-119409935D01*
X170227047Y-119409935D02*
X170250856Y-119314697D01*
X170250856Y-119314697D02*
X170274666Y-119267078D01*
X170274666Y-119267078D02*
X170322285Y-119219459D01*
X170322285Y-119219459D02*
X170393713Y-119195649D01*
X170393713Y-119195649D02*
X170441332Y-119195649D01*
X170441332Y-119195649D02*
X170512761Y-119219459D01*
X170512761Y-119219459D02*
X170536570Y-119243268D01*
X170917523Y-119433744D02*
X170988951Y-119457554D01*
X170988951Y-119457554D02*
X171012761Y-119481363D01*
X171012761Y-119481363D02*
X171036570Y-119528982D01*
X171036570Y-119528982D02*
X171036570Y-119600411D01*
X171036570Y-119600411D02*
X171012761Y-119648030D01*
X171012761Y-119648030D02*
X170988951Y-119671840D01*
X170988951Y-119671840D02*
X170941332Y-119695649D01*
X170941332Y-119695649D02*
X170750856Y-119695649D01*
X170750856Y-119695649D02*
X170750856Y-119195649D01*
X170750856Y-119195649D02*
X170917523Y-119195649D01*
X170917523Y-119195649D02*
X170965142Y-119219459D01*
X170965142Y-119219459D02*
X170988951Y-119243268D01*
X170988951Y-119243268D02*
X171012761Y-119290887D01*
X171012761Y-119290887D02*
X171012761Y-119338506D01*
X171012761Y-119338506D02*
X170988951Y-119386125D01*
X170988951Y-119386125D02*
X170965142Y-119409935D01*
X170965142Y-119409935D02*
X170917523Y-119433744D01*
X170917523Y-119433744D02*
X170750856Y-119433744D01*
X171917522Y-119695649D02*
X171750856Y-119457554D01*
X171631808Y-119695649D02*
X171631808Y-119195649D01*
X171631808Y-119195649D02*
X171822284Y-119195649D01*
X171822284Y-119195649D02*
X171869903Y-119219459D01*
X171869903Y-119219459D02*
X171893713Y-119243268D01*
X171893713Y-119243268D02*
X171917522Y-119290887D01*
X171917522Y-119290887D02*
X171917522Y-119362316D01*
X171917522Y-119362316D02*
X171893713Y-119409935D01*
X171893713Y-119409935D02*
X171869903Y-119433744D01*
X171869903Y-119433744D02*
X171822284Y-119457554D01*
X171822284Y-119457554D02*
X171631808Y-119457554D01*
X172131808Y-119433744D02*
X172298475Y-119433744D01*
X172369903Y-119695649D02*
X172131808Y-119695649D01*
X172131808Y-119695649D02*
X172131808Y-119195649D01*
X172131808Y-119195649D02*
X172369903Y-119195649D01*
X172512761Y-119195649D02*
X172679427Y-119695649D01*
X172679427Y-119695649D02*
X172846094Y-119195649D01*
X173369903Y-119552792D02*
X173607998Y-119552792D01*
X173322284Y-119695649D02*
X173488950Y-119195649D01*
X173488950Y-119195649D02*
X173655617Y-119695649D01*
D11*
X167649080Y-118645160D02*
X167749080Y-118678493D01*
X167749080Y-118678493D02*
X167915747Y-118678493D01*
X167915747Y-118678493D02*
X167982413Y-118645160D01*
X167982413Y-118645160D02*
X168015747Y-118611826D01*
X168015747Y-118611826D02*
X168049080Y-118545160D01*
X168049080Y-118545160D02*
X168049080Y-118478493D01*
X168049080Y-118478493D02*
X168015747Y-118411826D01*
X168015747Y-118411826D02*
X167982413Y-118378493D01*
X167982413Y-118378493D02*
X167915747Y-118345160D01*
X167915747Y-118345160D02*
X167782413Y-118311826D01*
X167782413Y-118311826D02*
X167715747Y-118278493D01*
X167715747Y-118278493D02*
X167682413Y-118245160D01*
X167682413Y-118245160D02*
X167649080Y-118178493D01*
X167649080Y-118178493D02*
X167649080Y-118111826D01*
X167649080Y-118111826D02*
X167682413Y-118045160D01*
X167682413Y-118045160D02*
X167715747Y-118011826D01*
X167715747Y-118011826D02*
X167782413Y-117978493D01*
X167782413Y-117978493D02*
X167949080Y-117978493D01*
X167949080Y-117978493D02*
X168049080Y-118011826D01*
X168615747Y-118645160D02*
X168549080Y-118678493D01*
X168549080Y-118678493D02*
X168415747Y-118678493D01*
X168415747Y-118678493D02*
X168349080Y-118645160D01*
X168349080Y-118645160D02*
X168315747Y-118578493D01*
X168315747Y-118578493D02*
X168315747Y-118311826D01*
X168315747Y-118311826D02*
X168349080Y-118245160D01*
X168349080Y-118245160D02*
X168415747Y-118211826D01*
X168415747Y-118211826D02*
X168549080Y-118211826D01*
X168549080Y-118211826D02*
X168615747Y-118245160D01*
X168615747Y-118245160D02*
X168649080Y-118311826D01*
X168649080Y-118311826D02*
X168649080Y-118378493D01*
X168649080Y-118378493D02*
X168315747Y-118445160D01*
X169249080Y-118678493D02*
X169249080Y-118311826D01*
X169249080Y-118311826D02*
X169215747Y-118245160D01*
X169215747Y-118245160D02*
X169149080Y-118211826D01*
X169149080Y-118211826D02*
X169015747Y-118211826D01*
X169015747Y-118211826D02*
X168949080Y-118245160D01*
X169249080Y-118645160D02*
X169182414Y-118678493D01*
X169182414Y-118678493D02*
X169015747Y-118678493D01*
X169015747Y-118678493D02*
X168949080Y-118645160D01*
X168949080Y-118645160D02*
X168915747Y-118578493D01*
X168915747Y-118578493D02*
X168915747Y-118511826D01*
X168915747Y-118511826D02*
X168949080Y-118445160D01*
X168949080Y-118445160D02*
X169015747Y-118411826D01*
X169015747Y-118411826D02*
X169182414Y-118411826D01*
X169182414Y-118411826D02*
X169249080Y-118378493D01*
X169582413Y-118678493D02*
X169582413Y-117978493D01*
X169882413Y-118678493D02*
X169882413Y-118311826D01*
X169882413Y-118311826D02*
X169849080Y-118245160D01*
X169849080Y-118245160D02*
X169782413Y-118211826D01*
X169782413Y-118211826D02*
X169682413Y-118211826D01*
X169682413Y-118211826D02*
X169615747Y-118245160D01*
X169615747Y-118245160D02*
X169582413Y-118278493D01*
X170515746Y-118678493D02*
X170515746Y-118311826D01*
X170515746Y-118311826D02*
X170482413Y-118245160D01*
X170482413Y-118245160D02*
X170415746Y-118211826D01*
X170415746Y-118211826D02*
X170282413Y-118211826D01*
X170282413Y-118211826D02*
X170215746Y-118245160D01*
X170515746Y-118645160D02*
X170449080Y-118678493D01*
X170449080Y-118678493D02*
X170282413Y-118678493D01*
X170282413Y-118678493D02*
X170215746Y-118645160D01*
X170215746Y-118645160D02*
X170182413Y-118578493D01*
X170182413Y-118578493D02*
X170182413Y-118511826D01*
X170182413Y-118511826D02*
X170215746Y-118445160D01*
X170215746Y-118445160D02*
X170282413Y-118411826D01*
X170282413Y-118411826D02*
X170449080Y-118411826D01*
X170449080Y-118411826D02*
X170515746Y-118378493D01*
X170782413Y-118211826D02*
X170915746Y-118678493D01*
X170915746Y-118678493D02*
X171049079Y-118345160D01*
X171049079Y-118345160D02*
X171182413Y-118678493D01*
X171182413Y-118678493D02*
X171315746Y-118211826D01*
X171582412Y-118678493D02*
X171582412Y-117978493D01*
X171649079Y-118411826D02*
X171849079Y-118678493D01*
X171849079Y-118211826D02*
X171582412Y-118478493D01*
D12*
X165108095Y-114646819D02*
X165679523Y-114646819D01*
X165393809Y-115646819D02*
X165393809Y-114646819D01*
X166012857Y-115646819D02*
X166012857Y-114646819D01*
X166012857Y-114646819D02*
X166393809Y-114646819D01*
X166393809Y-114646819D02*
X166489047Y-114694438D01*
X166489047Y-114694438D02*
X166536666Y-114742057D01*
X166536666Y-114742057D02*
X166584285Y-114837295D01*
X166584285Y-114837295D02*
X166584285Y-114980152D01*
X166584285Y-114980152D02*
X166536666Y-115075390D01*
X166536666Y-115075390D02*
X166489047Y-115123009D01*
X166489047Y-115123009D02*
X166393809Y-115170628D01*
X166393809Y-115170628D02*
X166012857Y-115170628D01*
X167536666Y-115646819D02*
X166965238Y-115646819D01*
X167250952Y-115646819D02*
X167250952Y-114646819D01*
X167250952Y-114646819D02*
X167155714Y-114789676D01*
X167155714Y-114789676D02*
X167060476Y-114884914D01*
X167060476Y-114884914D02*
X166965238Y-114932533D01*
X175514095Y-108506819D02*
X175514095Y-107506819D01*
X175514095Y-107983009D02*
X176085523Y-107983009D01*
X176085523Y-108506819D02*
X176085523Y-107506819D01*
X177085523Y-108506819D02*
X176514095Y-108506819D01*
X176799809Y-108506819D02*
X176799809Y-107506819D01*
X176799809Y-107506819D02*
X176704571Y-107649676D01*
X176704571Y-107649676D02*
X176609333Y-107744914D01*
X176609333Y-107744914D02*
X176514095Y-107792533D01*
X170227666Y-116973819D02*
X170227666Y-117688104D01*
X170227666Y-117688104D02*
X170180047Y-117830961D01*
X170180047Y-117830961D02*
X170084809Y-117926200D01*
X170084809Y-117926200D02*
X169941952Y-117973819D01*
X169941952Y-117973819D02*
X169846714Y-117973819D01*
X171227666Y-117973819D02*
X170656238Y-117973819D01*
X170941952Y-117973819D02*
X170941952Y-116973819D01*
X170941952Y-116973819D02*
X170846714Y-117116676D01*
X170846714Y-117116676D02*
X170751476Y-117211914D01*
X170751476Y-117211914D02*
X170656238Y-117259533D01*
X175514095Y-114456819D02*
X175514095Y-113456819D01*
X175514095Y-113933009D02*
X176085523Y-113933009D01*
X176085523Y-114456819D02*
X176085523Y-113456819D01*
X176514095Y-113552057D02*
X176561714Y-113504438D01*
X176561714Y-113504438D02*
X176656952Y-113456819D01*
X176656952Y-113456819D02*
X176895047Y-113456819D01*
X176895047Y-113456819D02*
X176990285Y-113504438D01*
X176990285Y-113504438D02*
X177037904Y-113552057D01*
X177037904Y-113552057D02*
X177085523Y-113647295D01*
X177085523Y-113647295D02*
X177085523Y-113742533D01*
X177085523Y-113742533D02*
X177037904Y-113885390D01*
X177037904Y-113885390D02*
X176466476Y-114456819D01*
X176466476Y-114456819D02*
X177085523Y-114456819D01*
D11*
%TO.C,TP1*%
X167320000Y-116840000D02*
G75*
G03*
X165420000Y-116840000I-950000J0D01*
G01*
X165420000Y-116840000D02*
G75*
G03*
X167320000Y-116840000I950000J0D01*
G01*
%TO.C,J1*%
X171891000Y-116519000D02*
X171891000Y-115949000D01*
X171891000Y-116519000D02*
X169231000Y-116519000D01*
X171891000Y-115949000D02*
X173411000Y-115949000D01*
X171891000Y-114429000D02*
X171891000Y-111319000D01*
X171891000Y-111319000D02*
X169231000Y-111319000D01*
X169231000Y-116519000D02*
X169231000Y-113409000D01*
X169231000Y-111889000D02*
X169231000Y-111319000D01*
%TD*%
M02*
