%TF.GenerationSoftware,KiCad,Pcbnew,7.0.9*%
%TF.CreationDate,2024-01-05T06:09:31-08:00*%
%TF.ProjectId,Pi PCB Hat,50692050-4342-4204-9861-742e6b696361,rev?*%
%TF.SameCoordinates,Original*%
%TF.FileFunction,Soldermask,Top*%
%TF.FilePolarity,Negative*%
%FSLAX46Y46*%
G04 Gerber Fmt 4.6, Leading zero omitted, Abs format (unit mm)*
G04 Created by KiCad (PCBNEW 7.0.9) date 2024-01-05 06:09:31*
%MOMM*%
%LPD*%
G01*
G04 APERTURE LIST*
G04 Aperture macros list*
%AMRoundRect*
0 Rectangle with rounded corners*
0 $1 Rounding radius*
0 $2 $3 $4 $5 $6 $7 $8 $9 X,Y pos of 4 corners*
0 Add a 4 corners polygon primitive as box body*
4,1,4,$2,$3,$4,$5,$6,$7,$8,$9,$2,$3,0*
0 Add four circle primitives for the rounded corners*
1,1,$1+$1,$2,$3*
1,1,$1+$1,$4,$5*
1,1,$1+$1,$6,$7*
1,1,$1+$1,$8,$9*
0 Add four rect primitives between the rounded corners*
20,1,$1+$1,$2,$3,$4,$5,0*
20,1,$1+$1,$4,$5,$6,$7,0*
20,1,$1+$1,$6,$7,$8,$9,0*
20,1,$1+$1,$8,$9,$2,$3,0*%
%AMFreePoly0*
4,1,35,0.535921,0.785921,0.550800,0.750000,0.550800,-0.750000,0.535921,-0.785921,0.500000,-0.800800,0.000000,-0.800800,-0.012286,-0.795711,-0.071157,-0.795711,-0.085469,-0.793653,-0.222020,-0.753558,-0.235173,-0.747552,-0.354895,-0.670611,-0.365822,-0.661142,-0.459019,-0.553587,-0.466836,-0.541423,-0.525955,-0.411969,-0.530029,-0.398096,-0.550283,-0.257230,-0.550800,-0.250000,-0.550800,0.250000,
-0.550283,0.257230,-0.530029,0.398096,-0.525955,0.411969,-0.466836,0.541423,-0.459019,0.553587,-0.365822,0.661142,-0.354895,0.670611,-0.235173,0.747552,-0.222020,0.753558,-0.085469,0.793653,-0.071157,0.795711,-0.012286,0.795711,0.000000,0.800800,0.500000,0.800800,0.535921,0.785921,0.535921,0.785921,$1*%
%AMFreePoly1*
4,1,35,0.012286,0.795711,0.071157,0.795711,0.085469,0.793653,0.222020,0.753558,0.235173,0.747552,0.354895,0.670611,0.365822,0.661142,0.459019,0.553587,0.466836,0.541423,0.525955,0.411969,0.530029,0.398096,0.550283,0.257230,0.550800,0.250000,0.550800,-0.250000,0.550283,-0.257230,0.530029,-0.398096,0.525955,-0.411969,0.466836,-0.541423,0.459019,-0.553587,0.365822,-0.661142,
0.354895,-0.670611,0.235173,-0.747552,0.222020,-0.753558,0.085469,-0.793653,0.071157,-0.795711,0.012286,-0.795711,0.000000,-0.800800,-0.500000,-0.800800,-0.535921,-0.785921,-0.550800,-0.750000,-0.550800,0.750000,-0.535921,0.785921,-0.500000,0.800800,0.000000,0.800800,0.012286,0.795711,0.012286,0.795711,$1*%
G04 Aperture macros list end*
%ADD10RoundRect,0.269550X-0.218750X-0.256250X0.218750X-0.256250X0.218750X0.256250X-0.218750X0.256250X0*%
%ADD11RoundRect,0.300800X0.450000X-0.262500X0.450000X0.262500X-0.450000X0.262500X-0.450000X-0.262500X0*%
%ADD12RoundRect,0.200800X-0.150000X0.587500X-0.150000X-0.587500X0.150000X-0.587500X0.150000X0.587500X0*%
%ADD13RoundRect,0.269550X0.256250X-0.218750X0.256250X0.218750X-0.256250X0.218750X-0.256250X-0.218750X0*%
%ADD14RoundRect,0.269550X-0.256250X0.218750X-0.256250X-0.218750X0.256250X-0.218750X0.256250X0.218750X0*%
%ADD15RoundRect,0.300800X-0.475000X0.250000X-0.475000X-0.250000X0.475000X-0.250000X0.475000X0.250000X0*%
%ADD16RoundRect,0.300800X0.262500X0.450000X-0.262500X0.450000X-0.262500X-0.450000X0.262500X-0.450000X0*%
%ADD17RoundRect,0.300800X-0.350000X-0.650000X0.350000X-0.650000X0.350000X0.650000X-0.350000X0.650000X0*%
%ADD18O,1.301600X1.901600*%
%ADD19RoundRect,0.200800X0.150000X-0.587500X0.150000X0.587500X-0.150000X0.587500X-0.150000X-0.587500X0*%
%ADD20RoundRect,0.050800X0.850000X-0.850000X0.850000X0.850000X-0.850000X0.850000X-0.850000X-0.850000X0*%
%ADD21O,1.801600X1.801600*%
%ADD22RoundRect,0.300800X-0.262500X-0.450000X0.262500X-0.450000X0.262500X0.450000X-0.262500X0.450000X0*%
%ADD23RoundRect,0.300800X0.350000X0.650000X-0.350000X0.650000X-0.350000X-0.650000X0.350000X-0.650000X0*%
%ADD24RoundRect,0.294550X-0.456250X0.243750X-0.456250X-0.243750X0.456250X-0.243750X0.456250X0.243750X0*%
%ADD25RoundRect,0.300800X-0.300000X-0.300000X0.300000X-0.300000X0.300000X0.300000X-0.300000X0.300000X0*%
%ADD26C,4.801600*%
%ADD27RoundRect,0.200800X0.625000X-0.150000X0.625000X0.150000X-0.625000X0.150000X-0.625000X-0.150000X0*%
%ADD28RoundRect,0.300800X0.650000X-0.350000X0.650000X0.350000X-0.650000X0.350000X-0.650000X-0.350000X0*%
%ADD29RoundRect,0.150800X0.100000X-0.637500X0.100000X0.637500X-0.100000X0.637500X-0.100000X-0.637500X0*%
%ADD30RoundRect,0.300800X0.300000X0.300000X-0.300000X0.300000X-0.300000X-0.300000X0.300000X-0.300000X0*%
%ADD31C,1.501600*%
%ADD32RoundRect,0.050800X-1.750000X-1.750000X1.750000X-1.750000X1.750000X1.750000X-1.750000X1.750000X0*%
%ADD33C,3.601600*%
%ADD34FreePoly0,90.000000*%
%ADD35FreePoly1,90.000000*%
%ADD36RoundRect,0.300800X0.475000X-0.250000X0.475000X0.250000X-0.475000X0.250000X-0.475000X-0.250000X0*%
%ADD37RoundRect,0.050800X-0.850000X-0.850000X0.850000X-0.850000X0.850000X0.850000X-0.850000X0.850000X0*%
%ADD38C,3.901600*%
%ADD39C,5.701600*%
%ADD40RoundRect,0.250800X0.200000X0.450000X-0.200000X0.450000X-0.200000X-0.450000X0.200000X-0.450000X0*%
%ADD41O,0.901600X1.401600*%
%ADD42RoundRect,0.294550X0.456250X-0.243750X0.456250X0.243750X-0.456250X0.243750X-0.456250X-0.243750X0*%
%ADD43RoundRect,0.050800X-0.850000X0.850000X-0.850000X-0.850000X0.850000X-0.850000X0.850000X0.850000X0*%
%ADD44RoundRect,0.200800X-0.625000X0.150000X-0.625000X-0.150000X0.625000X-0.150000X0.625000X0.150000X0*%
%ADD45RoundRect,0.300800X-0.650000X0.350000X-0.650000X-0.350000X0.650000X-0.350000X0.650000X0.350000X0*%
%ADD46C,1.601600*%
%ADD47RoundRect,0.300800X-0.450000X0.262500X-0.450000X-0.262500X0.450000X-0.262500X0.450000X0.262500X0*%
%ADD48RoundRect,0.300800X1.800000X-1.330000X1.800000X1.330000X-1.800000X1.330000X-1.800000X-1.330000X0*%
%ADD49O,4.201600X3.261600*%
G04 APERTURE END LIST*
D10*
%TO.C,D2*%
X94812500Y-66150000D03*
X96387500Y-66150000D03*
%TD*%
D11*
%TO.C,R1G5*%
X99050000Y-80162500D03*
X99050000Y-78337500D03*
%TD*%
D12*
%TO.C,Q9*%
X175000000Y-126612500D03*
X173100000Y-126612500D03*
X174050000Y-128487500D03*
%TD*%
D13*
%TO.C,D24*%
X177800000Y-134287500D03*
X177800000Y-132712500D03*
%TD*%
D14*
%TO.C,D9*%
X162450000Y-47362500D03*
X162450000Y-48937500D03*
%TD*%
D11*
%TO.C,R37*%
X173610000Y-122512500D03*
X173610000Y-120687500D03*
%TD*%
D15*
%TO.C,C3*%
X138527673Y-56772425D03*
X138527673Y-58672425D03*
%TD*%
D16*
%TO.C,R28*%
X191632500Y-60477575D03*
X189807500Y-60477575D03*
%TD*%
D17*
%TO.C,J12*%
X150834375Y-43725000D03*
D18*
X152834375Y-43725000D03*
%TD*%
D14*
%TO.C,D10*%
X164300000Y-47362500D03*
X164300000Y-48937500D03*
%TD*%
D19*
%TO.C,Q6*%
X189750000Y-55415075D03*
X191650000Y-55415075D03*
X190700000Y-53540075D03*
%TD*%
D20*
%TO.C,J6*%
X132725000Y-117075000D03*
D21*
X135265000Y-117075000D03*
X137805000Y-117075000D03*
X140345000Y-117075000D03*
X142885000Y-117075000D03*
X145425000Y-117075000D03*
%TD*%
D19*
%TO.C,Q2*%
X141200000Y-55387500D03*
X143100000Y-55387500D03*
X142150000Y-53512500D03*
%TD*%
D11*
%TO.C,R14*%
X186550000Y-122596066D03*
X186550000Y-120771066D03*
%TD*%
D22*
%TO.C,R3G2*%
X101525000Y-50050000D03*
X103350000Y-50050000D03*
%TD*%
%TO.C,R3G5*%
X101525000Y-56050000D03*
X103350000Y-56050000D03*
%TD*%
D23*
%TO.C,J27*%
X177110000Y-137825000D03*
D18*
X175110000Y-137825000D03*
%TD*%
D16*
%TO.C,R2*%
X115812500Y-63100000D03*
X113987500Y-63100000D03*
%TD*%
D22*
%TO.C,R34*%
X159937500Y-122053934D03*
X161762500Y-122053934D03*
%TD*%
D13*
%TO.C,D22*%
X162950000Y-134237500D03*
X162950000Y-132662500D03*
%TD*%
D23*
%TO.C,J2*%
X189600000Y-137825000D03*
D18*
X187600000Y-137825000D03*
%TD*%
D15*
%TO.C,C5*%
X162750000Y-56770000D03*
X162750000Y-58670000D03*
%TD*%
D17*
%TO.C,J23*%
X187402500Y-43725000D03*
D18*
X189402500Y-43725000D03*
%TD*%
D22*
%TO.C,R21*%
X164887500Y-57962575D03*
X166712500Y-57962575D03*
%TD*%
D12*
%TO.C,Q1*%
X188300000Y-126550000D03*
X186400000Y-126550000D03*
X187350000Y-128425000D03*
%TD*%
D17*
%TO.C,J21*%
X163023750Y-43725000D03*
D18*
X165023750Y-43725000D03*
%TD*%
D22*
%TO.C,R7*%
X153187500Y-57950000D03*
X155012500Y-57950000D03*
%TD*%
D11*
%TO.C,R1G2*%
X108160000Y-80162500D03*
X108160000Y-78337500D03*
%TD*%
D14*
%TO.C,D1*%
X138200000Y-47412500D03*
X138200000Y-48987500D03*
%TD*%
%TO.C,D5*%
X150350000Y-47362500D03*
X150350000Y-48937500D03*
%TD*%
D19*
%TO.C,Q4*%
X165050000Y-55687500D03*
X166950000Y-55687500D03*
X166000000Y-53812500D03*
%TD*%
D17*
%TO.C,J10*%
X138650000Y-43725000D03*
D18*
X140650000Y-43725000D03*
%TD*%
D14*
%TO.C,D3*%
X140100000Y-47400000D03*
X140100000Y-48975000D03*
%TD*%
D16*
%TO.C,R6*%
X150712500Y-54150000D03*
X148887500Y-54150000D03*
%TD*%
D20*
%TO.C,J7*%
X132725000Y-99275000D03*
D21*
X135265000Y-99275000D03*
X137805000Y-99275000D03*
X140345000Y-99275000D03*
X142885000Y-99275000D03*
X145425000Y-99275000D03*
%TD*%
D16*
%TO.C,R25*%
X178832500Y-60477575D03*
X177007500Y-60477575D03*
%TD*%
D24*
%TO.C,F3*%
X160550000Y-56762500D03*
X160550000Y-58637500D03*
%TD*%
D23*
%TO.C,J26*%
X163950000Y-137825000D03*
D18*
X161950000Y-137825000D03*
%TD*%
D11*
%TO.C,R1G3*%
X105220000Y-80162500D03*
X105220000Y-78337500D03*
%TD*%
D14*
%TO.C,D6*%
X152250000Y-47362500D03*
X152250000Y-48937500D03*
%TD*%
D22*
%TO.C,R3G3*%
X101525000Y-52050000D03*
X103350000Y-52050000D03*
%TD*%
D11*
%TO.C,R1G6*%
X96600000Y-80162500D03*
X96600000Y-78337500D03*
%TD*%
D19*
%TO.C,Q3*%
X153250000Y-55687500D03*
X155150000Y-55687500D03*
X154200000Y-53812500D03*
%TD*%
D14*
%TO.C,D12*%
X174150000Y-47312500D03*
X174150000Y-48887500D03*
%TD*%
D25*
%TO.C,D4*%
X138267327Y-50927575D03*
X141067327Y-50927575D03*
%TD*%
D26*
%TO.C,H5*%
X180600000Y-115100000D03*
%TD*%
D24*
%TO.C,F2*%
X148800000Y-56812500D03*
X148800000Y-58687500D03*
%TD*%
D27*
%TO.C,J13*%
X91750000Y-99850000D03*
X91750000Y-98850000D03*
X91750000Y-97850000D03*
X91750000Y-96850000D03*
X91750000Y-95850000D03*
X91750000Y-94850000D03*
X91750000Y-93850000D03*
X91750000Y-92850000D03*
D28*
X89225000Y-101150000D03*
X89225000Y-91550000D03*
%TD*%
D22*
%TO.C,R32*%
X163887500Y-128153934D03*
X165712500Y-128153934D03*
%TD*%
%TO.C,R27*%
X189807500Y-57962575D03*
X191632500Y-57962575D03*
%TD*%
D19*
%TO.C,Q5*%
X176850000Y-55537500D03*
X178750000Y-55537500D03*
X177800000Y-53662500D03*
%TD*%
D13*
%TO.C,D21*%
X164650000Y-134237500D03*
X164650000Y-132662500D03*
%TD*%
D11*
%TO.C,R9*%
X101550000Y-64312500D03*
X101550000Y-62487500D03*
%TD*%
D20*
%TO.C,J15*%
X105170000Y-43950000D03*
D21*
X107710000Y-43950000D03*
X110250000Y-43950000D03*
%TD*%
D22*
%TO.C,R13*%
X190637500Y-127821066D03*
X192462500Y-127821066D03*
%TD*%
D29*
%TO.C,U1*%
X100675000Y-74262500D03*
X101325000Y-74262500D03*
X101975000Y-74262500D03*
X102625000Y-74262500D03*
X103275000Y-74262500D03*
X103925000Y-74262500D03*
X104575000Y-74262500D03*
X105225000Y-74262500D03*
X105875000Y-74262500D03*
X106525000Y-74262500D03*
X107175000Y-74262500D03*
X107825000Y-74262500D03*
X108475000Y-74262500D03*
X109125000Y-74262500D03*
X109125000Y-68537500D03*
X108475000Y-68537500D03*
X107825000Y-68537500D03*
X107175000Y-68537500D03*
X106525000Y-68537500D03*
X105875000Y-68537500D03*
X105225000Y-68537500D03*
X104575000Y-68537500D03*
X103925000Y-68537500D03*
X103275000Y-68537500D03*
X102625000Y-68537500D03*
X101975000Y-68537500D03*
X101325000Y-68537500D03*
X100675000Y-68537500D03*
%TD*%
D30*
%TO.C,D19*%
X190800000Y-130700000D03*
X188000000Y-130700000D03*
%TD*%
D31*
%TO.C,J4*%
X121150000Y-42350000D03*
X132150000Y-42350000D03*
D32*
X124150000Y-47350000D03*
D33*
X129150000Y-47350000D03*
%TD*%
D30*
%TO.C,D23*%
X164400000Y-130600000D03*
X161600000Y-130600000D03*
%TD*%
D34*
%TO.C,JP9*%
X110800000Y-83450000D03*
D35*
X110800000Y-82150000D03*
%TD*%
D11*
%TO.C,R1G4*%
X102280000Y-80162500D03*
X102280000Y-78337500D03*
%TD*%
D36*
%TO.C,C2*%
X98100000Y-70220000D03*
X98100000Y-68320000D03*
%TD*%
D15*
%TO.C,C7*%
X187350000Y-57720000D03*
X187350000Y-59620000D03*
%TD*%
D11*
%TO.C,R10*%
X103575000Y-64312500D03*
X103575000Y-62487500D03*
%TD*%
D30*
%TO.C,D26*%
X177500000Y-130750000D03*
X174700000Y-130750000D03*
%TD*%
D26*
%TO.C,H9*%
X180600000Y-65975000D03*
%TD*%
D24*
%TO.C,F4*%
X172125000Y-56787500D03*
X172125000Y-58662500D03*
%TD*%
D11*
%TO.C,R11*%
X105600000Y-64312500D03*
X105600000Y-62487500D03*
%TD*%
D34*
%TO.C,JP5*%
X96700000Y-83450000D03*
D35*
X96700000Y-82150000D03*
%TD*%
D16*
%TO.C,R12*%
X188262500Y-124500000D03*
X186437500Y-124500000D03*
%TD*%
%TO.C,R26*%
X186762500Y-54750000D03*
X184937500Y-54750000D03*
%TD*%
%TO.C,R5*%
X143082500Y-60450000D03*
X141257500Y-60450000D03*
%TD*%
D37*
%TO.C,J30*%
X122750000Y-82140780D03*
D21*
X122750000Y-84680780D03*
X122750000Y-87220780D03*
%TD*%
D16*
%TO.C,R20*%
X162612500Y-54200000D03*
X160787500Y-54200000D03*
%TD*%
D26*
%TO.C,H7*%
X122650000Y-115150000D03*
%TD*%
D25*
%TO.C,D7*%
X150425000Y-50902575D03*
X153225000Y-50902575D03*
%TD*%
D15*
%TO.C,C4*%
X150900000Y-56850000D03*
X150900000Y-58750000D03*
%TD*%
D16*
%TO.C,R33*%
X161762500Y-124203934D03*
X159937500Y-124203934D03*
%TD*%
D38*
%TO.C,H12*%
X108000000Y-118250000D03*
%TD*%
D16*
%TO.C,R23*%
X174212500Y-54450000D03*
X172387500Y-54450000D03*
%TD*%
D20*
%TO.C,J8*%
X99940000Y-106050000D03*
D21*
X102480000Y-106050000D03*
X105020000Y-106050000D03*
X107560000Y-106050000D03*
X110100000Y-106050000D03*
X112640000Y-106050000D03*
X115180000Y-106050000D03*
%TD*%
D39*
%TO.C,H3*%
X118200000Y-131500000D03*
%TD*%
D14*
%TO.C,D16*%
X188400000Y-47262500D03*
X188400000Y-48837500D03*
%TD*%
D25*
%TO.C,D14*%
X174225000Y-50902575D03*
X177025000Y-50902575D03*
%TD*%
D13*
%TO.C,D25*%
X176050000Y-134287500D03*
X176050000Y-132712500D03*
%TD*%
D40*
%TO.C,J28*%
X104550000Y-59050000D03*
D41*
X103300000Y-59050000D03*
X102050000Y-59050000D03*
X100800000Y-59050000D03*
%TD*%
D38*
%TO.C,H11*%
X91700000Y-134550000D03*
%TD*%
D12*
%TO.C,Q8*%
X161800000Y-126416434D03*
X159900000Y-126416434D03*
X160850000Y-128291434D03*
%TD*%
D26*
%TO.C,H8*%
X122675000Y-65950000D03*
%TD*%
D13*
%TO.C,D8*%
X189000000Y-134287500D03*
X189000000Y-132712500D03*
%TD*%
D42*
%TO.C,F8*%
X192800000Y-124138566D03*
X192800000Y-122263566D03*
%TD*%
D24*
%TO.C,F6*%
X185050000Y-57712500D03*
X185050000Y-59587500D03*
%TD*%
D39*
%TO.C,H2*%
X199000000Y-51050000D03*
%TD*%
%TO.C,H4*%
X200300000Y-127500000D03*
%TD*%
D17*
%TO.C,J22*%
X175213125Y-43725000D03*
D18*
X177213125Y-43725000D03*
%TD*%
D43*
%TO.C,J18*%
X94980000Y-52591000D03*
D21*
X92440000Y-52591000D03*
X89900000Y-52591000D03*
%TD*%
D43*
%TO.C,J17*%
X94980000Y-48920500D03*
D21*
X92440000Y-48920500D03*
X89900000Y-48920500D03*
%TD*%
D34*
%TO.C,JP11*%
X107980000Y-83450000D03*
D35*
X107980000Y-82150000D03*
%TD*%
D22*
%TO.C,R3G4*%
X101525000Y-54050000D03*
X103350000Y-54050000D03*
%TD*%
D25*
%TO.C,D11*%
X162550000Y-50900000D03*
X165350000Y-50900000D03*
%TD*%
D14*
%TO.C,D15*%
X186550000Y-47262500D03*
X186550000Y-48837500D03*
%TD*%
D15*
%TO.C,C6*%
X174475000Y-56800000D03*
X174475000Y-58700000D03*
%TD*%
D44*
%TO.C,J14*%
X177500000Y-92850000D03*
X177500000Y-93850000D03*
X177500000Y-94850000D03*
X177500000Y-95850000D03*
X177500000Y-96850000D03*
X177500000Y-97850000D03*
X177500000Y-98850000D03*
X177500000Y-99850000D03*
D45*
X180025000Y-91550000D03*
X180025000Y-101150000D03*
%TD*%
D34*
%TO.C,JP6*%
X99520000Y-83450000D03*
D35*
X99520000Y-82150000D03*
%TD*%
D24*
%TO.C,F1*%
X136277673Y-56762500D03*
X136277673Y-58637500D03*
%TD*%
D27*
%TO.C,J3*%
X91750000Y-86550000D03*
X91750000Y-85550000D03*
X91750000Y-84550000D03*
X91750000Y-83550000D03*
X91750000Y-82550000D03*
X91750000Y-81550000D03*
X91750000Y-80550000D03*
X91750000Y-79550000D03*
D28*
X89225000Y-87850000D03*
X89225000Y-78250000D03*
%TD*%
D43*
%TO.C,J20*%
X94980000Y-59932000D03*
D21*
X92440000Y-59932000D03*
X89900000Y-59932000D03*
%TD*%
D39*
%TO.C,H1*%
X115000000Y-50900000D03*
%TD*%
D13*
%TO.C,D18*%
X190700000Y-134287500D03*
X190700000Y-132712500D03*
%TD*%
D14*
%TO.C,D13*%
X176050000Y-47312500D03*
X176050000Y-48887500D03*
%TD*%
D22*
%TO.C,R3G1*%
X101525000Y-48050000D03*
X103350000Y-48050000D03*
%TD*%
D11*
%TO.C,R1G1*%
X111100000Y-80162500D03*
X111100000Y-78337500D03*
%TD*%
D46*
%TO.C,Y1*%
X89950000Y-71100000D03*
X89950000Y-66220000D03*
%TD*%
D47*
%TO.C,R1*%
X95600000Y-68337500D03*
X95600000Y-70162500D03*
%TD*%
D16*
%TO.C,R3*%
X138650000Y-53950000D03*
X136825000Y-53950000D03*
%TD*%
D43*
%TO.C,J19*%
X94980000Y-56261500D03*
D21*
X92440000Y-56261500D03*
X89900000Y-56261500D03*
%TD*%
D42*
%TO.C,F7*%
X179710000Y-126037500D03*
X179710000Y-124162500D03*
%TD*%
D16*
%TO.C,R2G2*%
X115812500Y-67350000D03*
X113987500Y-67350000D03*
%TD*%
D38*
%TO.C,H6*%
X91700000Y-118250000D03*
%TD*%
D34*
%TO.C,JP8*%
X105160000Y-83450000D03*
D35*
X105160000Y-82150000D03*
%TD*%
D43*
%TO.C,J31*%
X170810000Y-75950000D03*
D21*
X168270000Y-75950000D03*
X165730000Y-75950000D03*
X163190000Y-75950000D03*
X160650000Y-75950000D03*
X158110000Y-75950000D03*
X155570000Y-75950000D03*
X153030000Y-75950000D03*
X150490000Y-75950000D03*
X147950000Y-75950000D03*
X145410000Y-75950000D03*
X142870000Y-75950000D03*
X140330000Y-75950000D03*
X137790000Y-75950000D03*
X135250000Y-75950000D03*
X132710000Y-75950000D03*
X130170000Y-75950000D03*
X127630000Y-75950000D03*
X125090000Y-75950000D03*
X122550000Y-75950000D03*
X122550000Y-93730000D03*
X125090000Y-93730000D03*
X127630000Y-93730000D03*
X130170000Y-93730000D03*
X132710000Y-93730000D03*
X135250000Y-93730000D03*
X137790000Y-93730000D03*
X140330000Y-93730000D03*
X142870000Y-93730000D03*
X145410000Y-93730000D03*
X147950000Y-93730000D03*
X150490000Y-93730000D03*
X153030000Y-93730000D03*
X155570000Y-93730000D03*
X158110000Y-93730000D03*
X160650000Y-93730000D03*
X163190000Y-93730000D03*
X165730000Y-93730000D03*
X168270000Y-93730000D03*
D43*
X170810000Y-93730000D03*
%TD*%
D44*
%TO.C,J9*%
X177500000Y-79550000D03*
X177500000Y-80550000D03*
X177500000Y-81550000D03*
X177500000Y-82550000D03*
X177500000Y-83550000D03*
X177500000Y-84550000D03*
X177500000Y-85550000D03*
X177500000Y-86550000D03*
D45*
X180025000Y-78250000D03*
X180025000Y-87850000D03*
%TD*%
D22*
%TO.C,R35*%
X177397500Y-128350000D03*
X179222500Y-128350000D03*
%TD*%
D16*
%TO.C,R36*%
X175235000Y-124600000D03*
X173410000Y-124600000D03*
%TD*%
%TO.C,R22*%
X167182500Y-60477575D03*
X165357500Y-60477575D03*
%TD*%
D22*
%TO.C,R4*%
X140915173Y-57972425D03*
X142740173Y-57972425D03*
%TD*%
D36*
%TO.C,C9*%
X163850000Y-125903934D03*
X163850000Y-124003934D03*
%TD*%
D22*
%TO.C,R24*%
X177007500Y-57962575D03*
X178832500Y-57962575D03*
%TD*%
D42*
%TO.C,F5*%
X166100000Y-125891434D03*
X166100000Y-124016434D03*
%TD*%
D36*
%TO.C,C1*%
X190400000Y-124171066D03*
X190400000Y-122271066D03*
%TD*%
D16*
%TO.C,R8*%
X155232500Y-60477575D03*
X153407500Y-60477575D03*
%TD*%
D34*
%TO.C,JP7*%
X102340000Y-83450000D03*
D35*
X102340000Y-82150000D03*
%TD*%
D43*
%TO.C,J24*%
X179425000Y-73550000D03*
D21*
X176885000Y-73550000D03*
%TD*%
D43*
%TO.C,J16*%
X94980000Y-45250000D03*
D21*
X92440000Y-45250000D03*
X89900000Y-45250000D03*
%TD*%
D38*
%TO.C,H10*%
X108000000Y-134550000D03*
%TD*%
D25*
%TO.C,D17*%
X186627500Y-50827575D03*
X189427500Y-50827575D03*
%TD*%
D36*
%TO.C,C10*%
X177460000Y-126050000D03*
X177460000Y-124150000D03*
%TD*%
D16*
%TO.C,R2G1*%
X115812500Y-65225000D03*
X113987500Y-65225000D03*
%TD*%
D40*
%TO.C,J25*%
X137750000Y-129450000D03*
D41*
X136500000Y-129450000D03*
X135250000Y-129450000D03*
X134000000Y-129450000D03*
X132750000Y-129450000D03*
%TD*%
D43*
%TO.C,J1*%
X127895000Y-67795000D03*
D21*
X127895000Y-65255000D03*
X130435000Y-67795000D03*
X130435000Y-65255000D03*
X132975000Y-67795000D03*
X132975000Y-65255000D03*
X135515000Y-67795000D03*
X135515000Y-65255000D03*
X138055000Y-67795000D03*
X138055000Y-65255000D03*
X140595000Y-67795000D03*
X140595000Y-65255000D03*
X143135000Y-67795000D03*
X143135000Y-65255000D03*
X145675000Y-67795000D03*
X145675000Y-65255000D03*
X148215000Y-67795000D03*
X148215000Y-65255000D03*
X150755000Y-67795000D03*
X150755000Y-65255000D03*
X153295000Y-67795000D03*
X153295000Y-65255000D03*
X155835000Y-67795000D03*
X155835000Y-65255000D03*
X158375000Y-67795000D03*
X158375000Y-65255000D03*
X160915000Y-67795000D03*
X160915000Y-65255000D03*
X163455000Y-67795000D03*
X163455000Y-65255000D03*
X165995000Y-67795000D03*
X165995000Y-65255000D03*
X168535000Y-67795000D03*
X168535000Y-65255000D03*
X171075000Y-67795000D03*
X171075000Y-65255000D03*
X173615000Y-67795000D03*
X173615000Y-65255000D03*
X176155000Y-67795000D03*
X176155000Y-65255000D03*
%TD*%
D48*
%TO.C,J5*%
X152695000Y-133030000D03*
D49*
X152695000Y-129070000D03*
%TD*%
M02*
