%TF.GenerationSoftware,KiCad,Pcbnew,7.0.9*%
%TF.CreationDate,2024-01-05T06:09:31-08:00*%
%TF.ProjectId,Pi PCB Hat,50692050-4342-4204-9861-742e6b696361,rev?*%
%TF.SameCoordinates,Original*%
%TF.FileFunction,Legend,Bot*%
%TF.FilePolarity,Positive*%
%FSLAX46Y46*%
G04 Gerber Fmt 4.6, Leading zero omitted, Abs format (unit mm)*
G04 Created by KiCad (PCBNEW 7.0.9) date 2024-01-05 06:09:31*
%MOMM*%
%LPD*%
G01*
G04 APERTURE LIST*
%ADD10C,0.150000*%
%ADD11C,0.350000*%
%ADD12C,0.120000*%
G04 APERTURE END LIST*
D10*
X137413220Y-126219819D02*
X137413220Y-125219819D01*
X137413220Y-125219819D02*
X137032268Y-125219819D01*
X137032268Y-125219819D02*
X136937030Y-125267438D01*
X136937030Y-125267438D02*
X136889411Y-125315057D01*
X136889411Y-125315057D02*
X136841792Y-125410295D01*
X136841792Y-125410295D02*
X136841792Y-125553152D01*
X136841792Y-125553152D02*
X136889411Y-125648390D01*
X136889411Y-125648390D02*
X136937030Y-125696009D01*
X136937030Y-125696009D02*
X137032268Y-125743628D01*
X137032268Y-125743628D02*
X137413220Y-125743628D01*
X136413220Y-126219819D02*
X136413220Y-125219819D01*
X136413220Y-125219819D02*
X136079887Y-125934104D01*
X136079887Y-125934104D02*
X135746554Y-125219819D01*
X135746554Y-125219819D02*
X135746554Y-126219819D01*
X134937030Y-125696009D02*
X134794173Y-125743628D01*
X134794173Y-125743628D02*
X134746554Y-125791247D01*
X134746554Y-125791247D02*
X134698935Y-125886485D01*
X134698935Y-125886485D02*
X134698935Y-126029342D01*
X134698935Y-126029342D02*
X134746554Y-126124580D01*
X134746554Y-126124580D02*
X134794173Y-126172200D01*
X134794173Y-126172200D02*
X134889411Y-126219819D01*
X134889411Y-126219819D02*
X135270363Y-126219819D01*
X135270363Y-126219819D02*
X135270363Y-125219819D01*
X135270363Y-125219819D02*
X134937030Y-125219819D01*
X134937030Y-125219819D02*
X134841792Y-125267438D01*
X134841792Y-125267438D02*
X134794173Y-125315057D01*
X134794173Y-125315057D02*
X134746554Y-125410295D01*
X134746554Y-125410295D02*
X134746554Y-125505533D01*
X134746554Y-125505533D02*
X134794173Y-125600771D01*
X134794173Y-125600771D02*
X134841792Y-125648390D01*
X134841792Y-125648390D02*
X134937030Y-125696009D01*
X134937030Y-125696009D02*
X135270363Y-125696009D01*
X133841792Y-125553152D02*
X133841792Y-126219819D01*
X134270363Y-125553152D02*
X134270363Y-126076961D01*
X134270363Y-126076961D02*
X134222744Y-126172200D01*
X134222744Y-126172200D02*
X134127506Y-126219819D01*
X134127506Y-126219819D02*
X133984649Y-126219819D01*
X133984649Y-126219819D02*
X133889411Y-126172200D01*
X133889411Y-126172200D02*
X133841792Y-126124580D01*
X133413220Y-126172200D02*
X133317982Y-126219819D01*
X133317982Y-126219819D02*
X133127506Y-126219819D01*
X133127506Y-126219819D02*
X133032268Y-126172200D01*
X133032268Y-126172200D02*
X132984649Y-126076961D01*
X132984649Y-126076961D02*
X132984649Y-126029342D01*
X132984649Y-126029342D02*
X133032268Y-125934104D01*
X133032268Y-125934104D02*
X133127506Y-125886485D01*
X133127506Y-125886485D02*
X133270363Y-125886485D01*
X133270363Y-125886485D02*
X133365601Y-125838866D01*
X133365601Y-125838866D02*
X133413220Y-125743628D01*
X133413220Y-125743628D02*
X133413220Y-125696009D01*
X133413220Y-125696009D02*
X133365601Y-125600771D01*
X133365601Y-125600771D02*
X133270363Y-125553152D01*
X133270363Y-125553152D02*
X133127506Y-125553152D01*
X133127506Y-125553152D02*
X133032268Y-125600771D01*
D11*
X152778200Y-123894548D02*
X152778200Y-126180263D01*
D10*
X136017438Y-131910588D02*
X135969819Y-131815350D01*
X135969819Y-131815350D02*
X135969819Y-131672493D01*
X135969819Y-131672493D02*
X136017438Y-131529636D01*
X136017438Y-131529636D02*
X136112676Y-131434398D01*
X136112676Y-131434398D02*
X136207914Y-131386779D01*
X136207914Y-131386779D02*
X136398390Y-131339160D01*
X136398390Y-131339160D02*
X136541247Y-131339160D01*
X136541247Y-131339160D02*
X136731723Y-131386779D01*
X136731723Y-131386779D02*
X136826961Y-131434398D01*
X136826961Y-131434398D02*
X136922200Y-131529636D01*
X136922200Y-131529636D02*
X136969819Y-131672493D01*
X136969819Y-131672493D02*
X136969819Y-131767731D01*
X136969819Y-131767731D02*
X136922200Y-131910588D01*
X136922200Y-131910588D02*
X136874580Y-131958207D01*
X136874580Y-131958207D02*
X136541247Y-131958207D01*
X136541247Y-131958207D02*
X136541247Y-131767731D01*
X136969819Y-132386779D02*
X135969819Y-132386779D01*
X135969819Y-132386779D02*
X136969819Y-132958207D01*
X136969819Y-132958207D02*
X135969819Y-132958207D01*
X136969819Y-133434398D02*
X135969819Y-133434398D01*
X135969819Y-133434398D02*
X135969819Y-133672493D01*
X135969819Y-133672493D02*
X136017438Y-133815350D01*
X136017438Y-133815350D02*
X136112676Y-133910588D01*
X136112676Y-133910588D02*
X136207914Y-133958207D01*
X136207914Y-133958207D02*
X136398390Y-134005826D01*
X136398390Y-134005826D02*
X136541247Y-134005826D01*
X136541247Y-134005826D02*
X136731723Y-133958207D01*
X136731723Y-133958207D02*
X136826961Y-133910588D01*
X136826961Y-133910588D02*
X136922200Y-133815350D01*
X136922200Y-133815350D02*
X136969819Y-133672493D01*
X136969819Y-133672493D02*
X136969819Y-133434398D01*
X158719819Y-129412969D02*
X158719819Y-128936779D01*
X158719819Y-128936779D02*
X159196009Y-128889160D01*
X159196009Y-128889160D02*
X159148390Y-128936779D01*
X159148390Y-128936779D02*
X159100771Y-129032017D01*
X159100771Y-129032017D02*
X159100771Y-129270112D01*
X159100771Y-129270112D02*
X159148390Y-129365350D01*
X159148390Y-129365350D02*
X159196009Y-129412969D01*
X159196009Y-129412969D02*
X159291247Y-129460588D01*
X159291247Y-129460588D02*
X159529342Y-129460588D01*
X159529342Y-129460588D02*
X159624580Y-129412969D01*
X159624580Y-129412969D02*
X159672200Y-129365350D01*
X159672200Y-129365350D02*
X159719819Y-129270112D01*
X159719819Y-129270112D02*
X159719819Y-129032017D01*
X159719819Y-129032017D02*
X159672200Y-128936779D01*
X159672200Y-128936779D02*
X159624580Y-128889160D01*
X158719819Y-129746303D02*
X159719819Y-130079636D01*
X159719819Y-130079636D02*
X158719819Y-130412969D01*
X159719819Y-131508208D02*
X158719819Y-131508208D01*
X159053152Y-131984398D02*
X159719819Y-131984398D01*
X159148390Y-131984398D02*
X159100771Y-132032017D01*
X159100771Y-132032017D02*
X159053152Y-132127255D01*
X159053152Y-132127255D02*
X159053152Y-132270112D01*
X159053152Y-132270112D02*
X159100771Y-132365350D01*
X159100771Y-132365350D02*
X159196009Y-132412969D01*
X159196009Y-132412969D02*
X159719819Y-132412969D01*
X203487030Y-133319819D02*
X203963220Y-133319819D01*
X203963220Y-133319819D02*
X204010839Y-133796009D01*
X204010839Y-133796009D02*
X203963220Y-133748390D01*
X203963220Y-133748390D02*
X203867982Y-133700771D01*
X203867982Y-133700771D02*
X203629887Y-133700771D01*
X203629887Y-133700771D02*
X203534649Y-133748390D01*
X203534649Y-133748390D02*
X203487030Y-133796009D01*
X203487030Y-133796009D02*
X203439411Y-133891247D01*
X203439411Y-133891247D02*
X203439411Y-134129342D01*
X203439411Y-134129342D02*
X203487030Y-134224580D01*
X203487030Y-134224580D02*
X203534649Y-134272200D01*
X203534649Y-134272200D02*
X203629887Y-134319819D01*
X203629887Y-134319819D02*
X203867982Y-134319819D01*
X203867982Y-134319819D02*
X203963220Y-134272200D01*
X203963220Y-134272200D02*
X204010839Y-134224580D01*
X203153696Y-133319819D02*
X202820363Y-134319819D01*
X202820363Y-134319819D02*
X202487030Y-133319819D01*
X201534648Y-133319819D02*
X200963220Y-133319819D01*
X201248934Y-134319819D02*
X201248934Y-133319819D01*
X200629886Y-134319819D02*
X200629886Y-133319819D01*
X200629886Y-133319819D02*
X200248934Y-133319819D01*
X200248934Y-133319819D02*
X200153696Y-133367438D01*
X200153696Y-133367438D02*
X200106077Y-133415057D01*
X200106077Y-133415057D02*
X200058458Y-133510295D01*
X200058458Y-133510295D02*
X200058458Y-133653152D01*
X200058458Y-133653152D02*
X200106077Y-133748390D01*
X200106077Y-133748390D02*
X200153696Y-133796009D01*
X200153696Y-133796009D02*
X200248934Y-133843628D01*
X200248934Y-133843628D02*
X200629886Y-133843628D01*
X199487029Y-133748390D02*
X199582267Y-133700771D01*
X199582267Y-133700771D02*
X199629886Y-133653152D01*
X199629886Y-133653152D02*
X199677505Y-133557914D01*
X199677505Y-133557914D02*
X199677505Y-133510295D01*
X199677505Y-133510295D02*
X199629886Y-133415057D01*
X199629886Y-133415057D02*
X199582267Y-133367438D01*
X199582267Y-133367438D02*
X199487029Y-133319819D01*
X199487029Y-133319819D02*
X199296553Y-133319819D01*
X199296553Y-133319819D02*
X199201315Y-133367438D01*
X199201315Y-133367438D02*
X199153696Y-133415057D01*
X199153696Y-133415057D02*
X199106077Y-133510295D01*
X199106077Y-133510295D02*
X199106077Y-133557914D01*
X199106077Y-133557914D02*
X199153696Y-133653152D01*
X199153696Y-133653152D02*
X199201315Y-133700771D01*
X199201315Y-133700771D02*
X199296553Y-133748390D01*
X199296553Y-133748390D02*
X199487029Y-133748390D01*
X199487029Y-133748390D02*
X199582267Y-133796009D01*
X199582267Y-133796009D02*
X199629886Y-133843628D01*
X199629886Y-133843628D02*
X199677505Y-133938866D01*
X199677505Y-133938866D02*
X199677505Y-134129342D01*
X199677505Y-134129342D02*
X199629886Y-134224580D01*
X199629886Y-134224580D02*
X199582267Y-134272200D01*
X199582267Y-134272200D02*
X199487029Y-134319819D01*
X199487029Y-134319819D02*
X199296553Y-134319819D01*
X199296553Y-134319819D02*
X199201315Y-134272200D01*
X199201315Y-134272200D02*
X199153696Y-134224580D01*
X199153696Y-134224580D02*
X199106077Y-134129342D01*
X199106077Y-134129342D02*
X199106077Y-133938866D01*
X199106077Y-133938866D02*
X199153696Y-133843628D01*
X199153696Y-133843628D02*
X199201315Y-133796009D01*
X199201315Y-133796009D02*
X199296553Y-133748390D01*
D11*
X153705451Y-137328200D02*
X151419737Y-137328200D01*
X152562594Y-136185342D02*
X152562594Y-138471057D01*
D10*
X203389411Y-60569819D02*
X203960839Y-60569819D01*
X203675125Y-60569819D02*
X203675125Y-59569819D01*
X203675125Y-59569819D02*
X203770363Y-59712676D01*
X203770363Y-59712676D02*
X203865601Y-59807914D01*
X203865601Y-59807914D02*
X203960839Y-59855533D01*
X203008458Y-59665057D02*
X202960839Y-59617438D01*
X202960839Y-59617438D02*
X202865601Y-59569819D01*
X202865601Y-59569819D02*
X202627506Y-59569819D01*
X202627506Y-59569819D02*
X202532268Y-59617438D01*
X202532268Y-59617438D02*
X202484649Y-59665057D01*
X202484649Y-59665057D02*
X202437030Y-59760295D01*
X202437030Y-59760295D02*
X202437030Y-59855533D01*
X202437030Y-59855533D02*
X202484649Y-59998390D01*
X202484649Y-59998390D02*
X203056077Y-60569819D01*
X203056077Y-60569819D02*
X202437030Y-60569819D01*
X202151315Y-59569819D02*
X201817982Y-60569819D01*
X201817982Y-60569819D02*
X201484649Y-59569819D01*
X200532267Y-59569819D02*
X199960839Y-59569819D01*
X200246553Y-60569819D02*
X200246553Y-59569819D01*
X199627505Y-60569819D02*
X199627505Y-59569819D01*
X199627505Y-59569819D02*
X199246553Y-59569819D01*
X199246553Y-59569819D02*
X199151315Y-59617438D01*
X199151315Y-59617438D02*
X199103696Y-59665057D01*
X199103696Y-59665057D02*
X199056077Y-59760295D01*
X199056077Y-59760295D02*
X199056077Y-59903152D01*
X199056077Y-59903152D02*
X199103696Y-59998390D01*
X199103696Y-59998390D02*
X199151315Y-60046009D01*
X199151315Y-60046009D02*
X199246553Y-60093628D01*
X199246553Y-60093628D02*
X199627505Y-60093628D01*
X198103696Y-60569819D02*
X198675124Y-60569819D01*
X198389410Y-60569819D02*
X198389410Y-59569819D01*
X198389410Y-59569819D02*
X198484648Y-59712676D01*
X198484648Y-59712676D02*
X198579886Y-59807914D01*
X198579886Y-59807914D02*
X198675124Y-59855533D01*
X129809523Y-128754819D02*
X129809523Y-129469104D01*
X129809523Y-129469104D02*
X129857142Y-129611961D01*
X129857142Y-129611961D02*
X129952380Y-129707200D01*
X129952380Y-129707200D02*
X130095237Y-129754819D01*
X130095237Y-129754819D02*
X130190475Y-129754819D01*
X129380951Y-128850057D02*
X129333332Y-128802438D01*
X129333332Y-128802438D02*
X129238094Y-128754819D01*
X129238094Y-128754819D02*
X128999999Y-128754819D01*
X128999999Y-128754819D02*
X128904761Y-128802438D01*
X128904761Y-128802438D02*
X128857142Y-128850057D01*
X128857142Y-128850057D02*
X128809523Y-128945295D01*
X128809523Y-128945295D02*
X128809523Y-129040533D01*
X128809523Y-129040533D02*
X128857142Y-129183390D01*
X128857142Y-129183390D02*
X129428570Y-129754819D01*
X129428570Y-129754819D02*
X128809523Y-129754819D01*
X127904761Y-128754819D02*
X128380951Y-128754819D01*
X128380951Y-128754819D02*
X128428570Y-129231009D01*
X128428570Y-129231009D02*
X128380951Y-129183390D01*
X128380951Y-129183390D02*
X128285713Y-129135771D01*
X128285713Y-129135771D02*
X128047618Y-129135771D01*
X128047618Y-129135771D02*
X127952380Y-129183390D01*
X127952380Y-129183390D02*
X127904761Y-129231009D01*
X127904761Y-129231009D02*
X127857142Y-129326247D01*
X127857142Y-129326247D02*
X127857142Y-129564342D01*
X127857142Y-129564342D02*
X127904761Y-129659580D01*
X127904761Y-129659580D02*
X127952380Y-129707200D01*
X127952380Y-129707200D02*
X128047618Y-129754819D01*
X128047618Y-129754819D02*
X128285713Y-129754819D01*
X128285713Y-129754819D02*
X128380951Y-129707200D01*
X128380951Y-129707200D02*
X128428570Y-129659580D01*
X148933333Y-125054819D02*
X148933333Y-125769104D01*
X148933333Y-125769104D02*
X148980952Y-125911961D01*
X148980952Y-125911961D02*
X149076190Y-126007200D01*
X149076190Y-126007200D02*
X149219047Y-126054819D01*
X149219047Y-126054819D02*
X149314285Y-126054819D01*
X147980952Y-125054819D02*
X148457142Y-125054819D01*
X148457142Y-125054819D02*
X148504761Y-125531009D01*
X148504761Y-125531009D02*
X148457142Y-125483390D01*
X148457142Y-125483390D02*
X148361904Y-125435771D01*
X148361904Y-125435771D02*
X148123809Y-125435771D01*
X148123809Y-125435771D02*
X148028571Y-125483390D01*
X148028571Y-125483390D02*
X147980952Y-125531009D01*
X147980952Y-125531009D02*
X147933333Y-125626247D01*
X147933333Y-125626247D02*
X147933333Y-125864342D01*
X147933333Y-125864342D02*
X147980952Y-125959580D01*
X147980952Y-125959580D02*
X148028571Y-126007200D01*
X148028571Y-126007200D02*
X148123809Y-126054819D01*
X148123809Y-126054819D02*
X148361904Y-126054819D01*
X148361904Y-126054819D02*
X148457142Y-126007200D01*
X148457142Y-126007200D02*
X148504761Y-125959580D01*
D12*
%TO.C,J25*%
X139650000Y-131000000D02*
X139650000Y-130000000D01*
X139650000Y-131000000D02*
X138650000Y-131000000D01*
X139360000Y-130710000D02*
X131140000Y-130710000D01*
X139360000Y-127290000D02*
X139360000Y-130710000D01*
X139050000Y-129450000D02*
X139050000Y-128650000D01*
X139050000Y-128650000D02*
X138850000Y-128650000D01*
X138850000Y-130200000D02*
X138850000Y-130300000D01*
X138850000Y-130200000D02*
X138850000Y-129450000D01*
X138850000Y-129450000D02*
X139050000Y-129450000D01*
X138850000Y-128650000D02*
X138850000Y-127800000D01*
X138850000Y-127800000D02*
X135250000Y-127800000D01*
X135250000Y-130300000D02*
X138850000Y-130300000D01*
X135250000Y-130300000D02*
X131650000Y-130300000D01*
X131650000Y-130200000D02*
X131650000Y-130300000D01*
X131650000Y-130200000D02*
X131650000Y-129450000D01*
X131650000Y-129450000D02*
X131450000Y-129450000D01*
X131650000Y-128650000D02*
X131650000Y-127800000D01*
X131650000Y-127800000D02*
X135250000Y-127800000D01*
X131450000Y-129450000D02*
X131450000Y-128650000D01*
X131450000Y-128650000D02*
X131650000Y-128650000D01*
X131140000Y-130710000D02*
X131140000Y-127290000D01*
X131140000Y-127290000D02*
X139360000Y-127290000D01*
%TO.C,TP8*%
X202550000Y-137000000D02*
X202550000Y-135100000D01*
X202550000Y-135100000D02*
X200650000Y-135100000D01*
X200650000Y-137000000D02*
X202550000Y-137000000D01*
X200650000Y-135100000D02*
X200650000Y-137000000D01*
%TO.C,J1*%
X177485000Y-63925000D02*
X177485000Y-69125000D01*
X126565000Y-63925000D02*
X177485000Y-63925000D01*
X126565000Y-63925000D02*
X126565000Y-66525000D01*
X129165000Y-66525000D02*
X129165000Y-69125000D01*
X126565000Y-66525000D02*
X129165000Y-66525000D01*
X126565000Y-67795000D02*
X126565000Y-69125000D01*
X129165000Y-69125000D02*
X177485000Y-69125000D01*
X126565000Y-69125000D02*
X127895000Y-69125000D01*
%TO.C,J5*%
X154695000Y-135340000D02*
X150695000Y-135340000D01*
X148690000Y-135050000D02*
X157915000Y-135050000D01*
X157915000Y-135050000D02*
X157915000Y-127050000D01*
X157315000Y-133830000D02*
X157315000Y-132230000D01*
X157915000Y-133830000D02*
X157315000Y-133830000D01*
X147685000Y-133145000D02*
X148690000Y-133145000D01*
X148690000Y-133145000D02*
X148690000Y-135050000D01*
X147685000Y-133030000D02*
X148685000Y-133030000D01*
X148685000Y-133030000D02*
X150355000Y-133030000D01*
X148685000Y-133030000D02*
X148685000Y-129070000D01*
X150355000Y-133030000D02*
X150355000Y-129070000D01*
X157315000Y-132230000D02*
X157915000Y-132230000D01*
X157315000Y-129870000D02*
X157315000Y-128270000D01*
X157915000Y-129870000D02*
X157315000Y-129870000D01*
X148685000Y-129070000D02*
X147685000Y-129070000D01*
X150355000Y-129070000D02*
X148685000Y-129070000D01*
X147685000Y-128955000D02*
X147685000Y-133145000D01*
X148690000Y-128955000D02*
X147685000Y-128955000D01*
X157315000Y-128270000D02*
X157915000Y-128270000D01*
X148690000Y-127050000D02*
X148690000Y-128955000D01*
X157915000Y-127050000D02*
X148690000Y-127050000D01*
%TO.C,TP1*%
X202000000Y-58650000D02*
X202000000Y-56750000D01*
X202000000Y-56750000D02*
X200100000Y-56750000D01*
X200100000Y-58650000D02*
X202000000Y-58650000D01*
X200100000Y-56750000D02*
X200100000Y-58650000D01*
%TD*%
M02*
