%TF.GenerationSoftware,KiCad,Pcbnew,7.0.9*%
%TF.CreationDate,2024-01-05T06:09:31-08:00*%
%TF.ProjectId,Pi PCB Hat,50692050-4342-4204-9861-742e6b696361,rev?*%
%TF.SameCoordinates,Original*%
%TF.FileFunction,Copper,L1,Top*%
%TF.FilePolarity,Positive*%
%FSLAX46Y46*%
G04 Gerber Fmt 4.6, Leading zero omitted, Abs format (unit mm)*
G04 Created by KiCad (PCBNEW 7.0.9) date 2024-01-05 06:09:31*
%MOMM*%
%LPD*%
G01*
G04 APERTURE LIST*
G04 Aperture macros list*
%AMRoundRect*
0 Rectangle with rounded corners*
0 $1 Rounding radius*
0 $2 $3 $4 $5 $6 $7 $8 $9 X,Y pos of 4 corners*
0 Add a 4 corners polygon primitive as box body*
4,1,4,$2,$3,$4,$5,$6,$7,$8,$9,$2,$3,0*
0 Add four circle primitives for the rounded corners*
1,1,$1+$1,$2,$3*
1,1,$1+$1,$4,$5*
1,1,$1+$1,$6,$7*
1,1,$1+$1,$8,$9*
0 Add four rect primitives between the rounded corners*
20,1,$1+$1,$2,$3,$4,$5,0*
20,1,$1+$1,$4,$5,$6,$7,0*
20,1,$1+$1,$6,$7,$8,$9,0*
20,1,$1+$1,$8,$9,$2,$3,0*%
%AMFreePoly0*
4,1,19,0.500000,-0.750000,0.000000,-0.750000,0.000000,-0.744911,-0.071157,-0.744911,-0.207708,-0.704816,-0.327430,-0.627875,-0.420627,-0.520320,-0.479746,-0.390866,-0.500000,-0.250000,-0.500000,0.250000,-0.479746,0.390866,-0.420627,0.520320,-0.327430,0.627875,-0.207708,0.704816,-0.071157,0.744911,0.000000,0.744911,0.000000,0.750000,0.500000,0.750000,0.500000,-0.750000,0.500000,-0.750000,
$1*%
%AMFreePoly1*
4,1,19,0.000000,0.744911,0.071157,0.744911,0.207708,0.704816,0.327430,0.627875,0.420627,0.520320,0.479746,0.390866,0.500000,0.250000,0.500000,-0.250000,0.479746,-0.390866,0.420627,-0.520320,0.327430,-0.627875,0.207708,-0.704816,0.071157,-0.744911,0.000000,-0.744911,0.000000,-0.750000,-0.500000,-0.750000,-0.500000,0.750000,0.000000,0.750000,0.000000,0.744911,0.000000,0.744911,
$1*%
G04 Aperture macros list end*
%TA.AperFunction,SMDPad,CuDef*%
%ADD10RoundRect,0.218750X-0.218750X-0.256250X0.218750X-0.256250X0.218750X0.256250X-0.218750X0.256250X0*%
%TD*%
%TA.AperFunction,SMDPad,CuDef*%
%ADD11RoundRect,0.250000X0.450000X-0.262500X0.450000X0.262500X-0.450000X0.262500X-0.450000X-0.262500X0*%
%TD*%
%TA.AperFunction,SMDPad,CuDef*%
%ADD12RoundRect,0.150000X-0.150000X0.587500X-0.150000X-0.587500X0.150000X-0.587500X0.150000X0.587500X0*%
%TD*%
%TA.AperFunction,SMDPad,CuDef*%
%ADD13RoundRect,0.218750X0.256250X-0.218750X0.256250X0.218750X-0.256250X0.218750X-0.256250X-0.218750X0*%
%TD*%
%TA.AperFunction,SMDPad,CuDef*%
%ADD14RoundRect,0.218750X-0.256250X0.218750X-0.256250X-0.218750X0.256250X-0.218750X0.256250X0.218750X0*%
%TD*%
%TA.AperFunction,SMDPad,CuDef*%
%ADD15RoundRect,0.250000X-0.475000X0.250000X-0.475000X-0.250000X0.475000X-0.250000X0.475000X0.250000X0*%
%TD*%
%TA.AperFunction,SMDPad,CuDef*%
%ADD16RoundRect,0.250000X0.262500X0.450000X-0.262500X0.450000X-0.262500X-0.450000X0.262500X-0.450000X0*%
%TD*%
%TA.AperFunction,ComponentPad*%
%ADD17RoundRect,0.250000X-0.350000X-0.650000X0.350000X-0.650000X0.350000X0.650000X-0.350000X0.650000X0*%
%TD*%
%TA.AperFunction,ComponentPad*%
%ADD18O,1.200000X1.800000*%
%TD*%
%TA.AperFunction,SMDPad,CuDef*%
%ADD19RoundRect,0.150000X0.150000X-0.587500X0.150000X0.587500X-0.150000X0.587500X-0.150000X-0.587500X0*%
%TD*%
%TA.AperFunction,ComponentPad*%
%ADD20R,1.700000X1.700000*%
%TD*%
%TA.AperFunction,ComponentPad*%
%ADD21O,1.700000X1.700000*%
%TD*%
%TA.AperFunction,SMDPad,CuDef*%
%ADD22RoundRect,0.250000X-0.262500X-0.450000X0.262500X-0.450000X0.262500X0.450000X-0.262500X0.450000X0*%
%TD*%
%TA.AperFunction,ComponentPad*%
%ADD23RoundRect,0.250000X0.350000X0.650000X-0.350000X0.650000X-0.350000X-0.650000X0.350000X-0.650000X0*%
%TD*%
%TA.AperFunction,SMDPad,CuDef*%
%ADD24RoundRect,0.243750X-0.456250X0.243750X-0.456250X-0.243750X0.456250X-0.243750X0.456250X0.243750X0*%
%TD*%
%TA.AperFunction,SMDPad,CuDef*%
%ADD25RoundRect,0.250000X-0.300000X-0.300000X0.300000X-0.300000X0.300000X0.300000X-0.300000X0.300000X0*%
%TD*%
%TA.AperFunction,ComponentPad*%
%ADD26C,4.700000*%
%TD*%
%TA.AperFunction,SMDPad,CuDef*%
%ADD27RoundRect,0.150000X0.625000X-0.150000X0.625000X0.150000X-0.625000X0.150000X-0.625000X-0.150000X0*%
%TD*%
%TA.AperFunction,SMDPad,CuDef*%
%ADD28RoundRect,0.250000X0.650000X-0.350000X0.650000X0.350000X-0.650000X0.350000X-0.650000X-0.350000X0*%
%TD*%
%TA.AperFunction,SMDPad,CuDef*%
%ADD29RoundRect,0.100000X0.100000X-0.637500X0.100000X0.637500X-0.100000X0.637500X-0.100000X-0.637500X0*%
%TD*%
%TA.AperFunction,SMDPad,CuDef*%
%ADD30RoundRect,0.250000X0.300000X0.300000X-0.300000X0.300000X-0.300000X-0.300000X0.300000X-0.300000X0*%
%TD*%
%TA.AperFunction,ComponentPad*%
%ADD31C,1.400000*%
%TD*%
%TA.AperFunction,ComponentPad*%
%ADD32R,3.500000X3.500000*%
%TD*%
%TA.AperFunction,ComponentPad*%
%ADD33C,3.500000*%
%TD*%
%TA.AperFunction,SMDPad,CuDef*%
%ADD34FreePoly0,90.000000*%
%TD*%
%TA.AperFunction,SMDPad,CuDef*%
%ADD35FreePoly1,90.000000*%
%TD*%
%TA.AperFunction,SMDPad,CuDef*%
%ADD36RoundRect,0.250000X0.475000X-0.250000X0.475000X0.250000X-0.475000X0.250000X-0.475000X-0.250000X0*%
%TD*%
%TA.AperFunction,ComponentPad*%
%ADD37C,3.800000*%
%TD*%
%TA.AperFunction,ComponentPad*%
%ADD38C,5.600000*%
%TD*%
%TA.AperFunction,ComponentPad*%
%ADD39RoundRect,0.200000X0.200000X0.450000X-0.200000X0.450000X-0.200000X-0.450000X0.200000X-0.450000X0*%
%TD*%
%TA.AperFunction,ComponentPad*%
%ADD40O,0.800000X1.300000*%
%TD*%
%TA.AperFunction,SMDPad,CuDef*%
%ADD41RoundRect,0.243750X0.456250X-0.243750X0.456250X0.243750X-0.456250X0.243750X-0.456250X-0.243750X0*%
%TD*%
%TA.AperFunction,SMDPad,CuDef*%
%ADD42RoundRect,0.150000X-0.625000X0.150000X-0.625000X-0.150000X0.625000X-0.150000X0.625000X0.150000X0*%
%TD*%
%TA.AperFunction,SMDPad,CuDef*%
%ADD43RoundRect,0.250000X-0.650000X0.350000X-0.650000X-0.350000X0.650000X-0.350000X0.650000X0.350000X0*%
%TD*%
%TA.AperFunction,ComponentPad*%
%ADD44C,1.500000*%
%TD*%
%TA.AperFunction,SMDPad,CuDef*%
%ADD45RoundRect,0.250000X-0.450000X0.262500X-0.450000X-0.262500X0.450000X-0.262500X0.450000X0.262500X0*%
%TD*%
%TA.AperFunction,ComponentPad*%
%ADD46RoundRect,0.250000X1.800000X-1.330000X1.800000X1.330000X-1.800000X1.330000X-1.800000X-1.330000X0*%
%TD*%
%TA.AperFunction,ComponentPad*%
%ADD47O,4.100000X3.160000*%
%TD*%
%TA.AperFunction,ViaPad*%
%ADD48C,0.770000*%
%TD*%
%TA.AperFunction,Conductor*%
%ADD49C,0.260000*%
%TD*%
%TA.AperFunction,Conductor*%
%ADD50C,1.000000*%
%TD*%
G04 APERTURE END LIST*
D10*
%TO.P,D2,1,K*%
%TO.N,Net-(D2-K)*%
X94812500Y-66150000D03*
%TO.P,D2,2,A*%
%TO.N,5V logic*%
X96387500Y-66150000D03*
%TD*%
D11*
%TO.P,R1G5,1*%
%TO.N,/A1*%
X99050000Y-80162500D03*
%TO.P,R1G5,2*%
%TO.N,GND*%
X99050000Y-78337500D03*
%TD*%
D12*
%TO.P,Q9,1,G*%
%TO.N,GP27*%
X175000000Y-126612500D03*
%TO.P,Q9,2,S*%
%TO.N,GND*%
X173100000Y-126612500D03*
%TO.P,Q9,3,D*%
%TO.N,Net-(D26-A)*%
X174050000Y-128487500D03*
%TD*%
D13*
%TO.P,D24,1,K*%
%TO.N,GND*%
X177800000Y-134287500D03*
%TO.P,D24,2,A*%
%TO.N,Net-(D24-A)*%
X177800000Y-132712500D03*
%TD*%
D14*
%TO.P,D9,1,K*%
%TO.N,GND*%
X162450000Y-47362500D03*
%TO.P,D9,2,A*%
%TO.N,Net-(D9-A)*%
X162450000Y-48937500D03*
%TD*%
D11*
%TO.P,R37,1,1*%
%TO.N,GND*%
X173610000Y-122512500D03*
%TO.P,R37,2,2*%
%TO.N,GP27*%
X173610000Y-120687500D03*
%TD*%
D15*
%TO.P,C3,1,1*%
%TO.N,Net-(D4-K)*%
X138527673Y-56772425D03*
%TO.P,C3,2,2*%
%TO.N,GND*%
X138527673Y-58672425D03*
%TD*%
D16*
%TO.P,R28,1,1*%
%TO.N,GND*%
X191632500Y-60477575D03*
%TO.P,R28,2,2*%
%TO.N,GPIO21*%
X189807500Y-60477575D03*
%TD*%
D17*
%TO.P,J12,1,Pin_1*%
%TO.N,Net-(D7-K)*%
X150834375Y-43725000D03*
D18*
%TO.P,J12,2,Pin_2*%
%TO.N,Net-(D7-A)*%
X152834375Y-43725000D03*
%TD*%
D14*
%TO.P,D10,1,K*%
%TO.N,GND*%
X164300000Y-47362500D03*
%TO.P,D10,2,A*%
%TO.N,Net-(D10-A)*%
X164300000Y-48937500D03*
%TD*%
D19*
%TO.P,Q6,1,G*%
%TO.N,GPIO21*%
X189750000Y-55415075D03*
%TO.P,Q6,2,S*%
%TO.N,GND*%
X191650000Y-55415075D03*
%TO.P,Q6,3,D*%
%TO.N,Net-(D17-A)*%
X190700000Y-53540075D03*
%TD*%
D20*
%TO.P,J6,1,Pin_1*%
%TO.N,5V logic*%
X132725000Y-117075000D03*
D21*
%TO.P,J6,2,Pin_2*%
%TO.N,/3V*%
X135265000Y-117075000D03*
%TO.P,J6,3,Pin_3*%
%TO.N,GND*%
X137805000Y-117075000D03*
%TO.P,J6,4,Pin_4*%
%TO.N,I2C1 SCL*%
X140345000Y-117075000D03*
%TO.P,J6,5,Pin_5*%
%TO.N,I2C1 SDA*%
X142885000Y-117075000D03*
%TO.P,J6,6,Pin_6*%
%TO.N,/INT*%
X145425000Y-117075000D03*
%TD*%
D19*
%TO.P,Q2,1,G*%
%TO.N,GPIO18*%
X141200000Y-55387500D03*
%TO.P,Q2,2,S*%
%TO.N,GND*%
X143100000Y-55387500D03*
%TO.P,Q2,3,D*%
%TO.N,Net-(D4-A)*%
X142150000Y-53512500D03*
%TD*%
D11*
%TO.P,R14,1,1*%
%TO.N,GND*%
X186550000Y-122596066D03*
%TO.P,R14,2,2*%
%TO.N,GP28*%
X186550000Y-120771066D03*
%TD*%
D22*
%TO.P,R3G2,1*%
%TO.N,Net-(J17-Pin_1)*%
X101525000Y-50050000D03*
%TO.P,R3G2,2*%
%TO.N,/PWM9*%
X103350000Y-50050000D03*
%TD*%
%TO.P,R3G5,1*%
%TO.N,Net-(J20-Pin_1)*%
X101525000Y-56050000D03*
%TO.P,R3G5,2*%
%TO.N,/PWM12*%
X103350000Y-56050000D03*
%TD*%
D23*
%TO.P,J27,1,Pin_1*%
%TO.N,Net-(D26-K)*%
X177110000Y-137825000D03*
D18*
%TO.P,J27,2,Pin_2*%
%TO.N,Net-(D26-A)*%
X175110000Y-137825000D03*
%TD*%
D16*
%TO.P,R2,1*%
%TO.N,GPIO4*%
X115812500Y-63100000D03*
%TO.P,R2,2*%
%TO.N,Net-(U1-~{OE})*%
X113987500Y-63100000D03*
%TD*%
D22*
%TO.P,R34,1,1*%
%TO.N,GND*%
X159937500Y-122053934D03*
%TO.P,R34,2,2*%
%TO.N,GP17*%
X161762500Y-122053934D03*
%TD*%
D13*
%TO.P,D22,1,K*%
%TO.N,GND*%
X162950000Y-134237500D03*
%TO.P,D22,2,A*%
%TO.N,Net-(D22-A)*%
X162950000Y-132662500D03*
%TD*%
D23*
%TO.P,J2,1,Pin_1*%
%TO.N,Net-(D19-K)*%
X189600000Y-137825000D03*
D18*
%TO.P,J2,2,Pin_2*%
%TO.N,Net-(D19-A)*%
X187600000Y-137825000D03*
%TD*%
D15*
%TO.P,C5,1,1*%
%TO.N,Net-(D11-K)*%
X162750000Y-56770000D03*
%TO.P,C5,2,2*%
%TO.N,GND*%
X162750000Y-58670000D03*
%TD*%
D17*
%TO.P,J23,1,Pin_1*%
%TO.N,Net-(D17-K)*%
X187402500Y-43725000D03*
D18*
%TO.P,J23,2,Pin_2*%
%TO.N,Net-(D17-A)*%
X189402500Y-43725000D03*
%TD*%
D22*
%TO.P,R21,1,1*%
%TO.N,Net-(D10-A)*%
X164887500Y-57962575D03*
%TO.P,R21,2,2*%
%TO.N,GPIO12*%
X166712500Y-57962575D03*
%TD*%
D12*
%TO.P,Q1,1,G*%
%TO.N,GP28*%
X188300000Y-126550000D03*
%TO.P,Q1,2,S*%
%TO.N,GND*%
X186400000Y-126550000D03*
%TO.P,Q1,3,D*%
%TO.N,Net-(D19-A)*%
X187350000Y-128425000D03*
%TD*%
D17*
%TO.P,J21,1,Pin_1*%
%TO.N,Net-(D11-K)*%
X163023750Y-43725000D03*
D18*
%TO.P,J21,2,Pin_2*%
%TO.N,Net-(D11-A)*%
X165023750Y-43725000D03*
%TD*%
D22*
%TO.P,R7,1,1*%
%TO.N,Net-(D6-A)*%
X153187500Y-57950000D03*
%TO.P,R7,2,2*%
%TO.N,GPIO23*%
X155012500Y-57950000D03*
%TD*%
D11*
%TO.P,R1G2,1*%
%TO.N,/A4*%
X108160000Y-80162500D03*
%TO.P,R1G2,2*%
%TO.N,GND*%
X108160000Y-78337500D03*
%TD*%
D14*
%TO.P,D1,1,K*%
%TO.N,GND*%
X138200000Y-47412500D03*
%TO.P,D1,2,A*%
%TO.N,Net-(D1-A)*%
X138200000Y-48987500D03*
%TD*%
%TO.P,D5,1,K*%
%TO.N,GND*%
X150350000Y-47362500D03*
%TO.P,D5,2,A*%
%TO.N,Net-(D5-A)*%
X150350000Y-48937500D03*
%TD*%
D19*
%TO.P,Q4,1,G*%
%TO.N,GPIO12*%
X165050000Y-55687500D03*
%TO.P,Q4,2,S*%
%TO.N,GND*%
X166950000Y-55687500D03*
%TO.P,Q4,3,D*%
%TO.N,Net-(D11-A)*%
X166000000Y-53812500D03*
%TD*%
D17*
%TO.P,J10,1,Pin_1*%
%TO.N,Net-(D4-K)*%
X138650000Y-43725000D03*
D18*
%TO.P,J10,2,Pin_2*%
%TO.N,Net-(D4-A)*%
X140650000Y-43725000D03*
%TD*%
D14*
%TO.P,D3,1,K*%
%TO.N,GND*%
X140100000Y-47400000D03*
%TO.P,D3,2,A*%
%TO.N,Net-(D3-A)*%
X140100000Y-48975000D03*
%TD*%
D16*
%TO.P,R6,1,1*%
%TO.N,Net-(D5-A)*%
X150712500Y-54150000D03*
%TO.P,R6,2,2*%
%TO.N,Net-(D7-K)*%
X148887500Y-54150000D03*
%TD*%
D20*
%TO.P,J7,1,Pin_1*%
%TO.N,/BT*%
X132725000Y-99275000D03*
D21*
%TO.P,J7,2,Pin_2*%
%TO.N,/P0*%
X135265000Y-99275000D03*
%TO.P,J7,3,Pin_3*%
%TO.N,/P1*%
X137805000Y-99275000D03*
%TO.P,J7,4,Pin_4*%
%TO.N,/RST*%
X140345000Y-99275000D03*
%TO.P,J7,5,Pin_5*%
%TO.N,/DI*%
X142885000Y-99275000D03*
%TO.P,J7,6,Pin_6*%
%TO.N,/CS*%
X145425000Y-99275000D03*
%TD*%
D16*
%TO.P,R25,1,1*%
%TO.N,GND*%
X178832500Y-60477575D03*
%TO.P,R25,2,2*%
%TO.N,GPIO16*%
X177007500Y-60477575D03*
%TD*%
D24*
%TO.P,F3,1*%
%TO.N,Net-(D11-K)*%
X160550000Y-56762500D03*
%TO.P,F3,2*%
%TO.N,12V Power Input*%
X160550000Y-58637500D03*
%TD*%
D23*
%TO.P,J26,1,Pin_1*%
%TO.N,Net-(D23-K)*%
X163950000Y-137825000D03*
D18*
%TO.P,J26,2,Pin_2*%
%TO.N,Net-(D23-A)*%
X161950000Y-137825000D03*
%TD*%
D11*
%TO.P,R1G3,1*%
%TO.N,/A3*%
X105220000Y-80162500D03*
%TO.P,R1G3,2*%
%TO.N,GND*%
X105220000Y-78337500D03*
%TD*%
D14*
%TO.P,D6,1,K*%
%TO.N,GND*%
X152250000Y-47362500D03*
%TO.P,D6,2,A*%
%TO.N,Net-(D6-A)*%
X152250000Y-48937500D03*
%TD*%
D22*
%TO.P,R3G3,1*%
%TO.N,Net-(J18-Pin_1)*%
X101525000Y-52050000D03*
%TO.P,R3G3,2*%
%TO.N,/PWM10*%
X103350000Y-52050000D03*
%TD*%
D11*
%TO.P,R1G6,1*%
%TO.N,/A0*%
X96600000Y-80162500D03*
%TO.P,R1G6,2*%
%TO.N,GND*%
X96600000Y-78337500D03*
%TD*%
D19*
%TO.P,Q3,1,G*%
%TO.N,GPIO23*%
X153250000Y-55687500D03*
%TO.P,Q3,2,S*%
%TO.N,GND*%
X155150000Y-55687500D03*
%TO.P,Q3,3,D*%
%TO.N,Net-(D7-A)*%
X154200000Y-53812500D03*
%TD*%
D14*
%TO.P,D12,1,K*%
%TO.N,GND*%
X174150000Y-47312500D03*
%TO.P,D12,2,A*%
%TO.N,Net-(D12-A)*%
X174150000Y-48887500D03*
%TD*%
D25*
%TO.P,D4,1,K*%
%TO.N,Net-(D4-K)*%
X138267327Y-50927575D03*
%TO.P,D4,2,A*%
%TO.N,Net-(D4-A)*%
X141067327Y-50927575D03*
%TD*%
D26*
%TO.P,H5,1,1*%
%TO.N,GND*%
X180600000Y-115100000D03*
%TD*%
D24*
%TO.P,F2,1*%
%TO.N,Net-(D7-K)*%
X148800000Y-56812500D03*
%TO.P,F2,2*%
%TO.N,12V Power Input*%
X148800000Y-58687500D03*
%TD*%
D27*
%TO.P,J13,1,Pin_1*%
%TO.N,GP10*%
X91750000Y-99850000D03*
%TO.P,J13,2,Pin_2*%
%TO.N,GP11*%
X91750000Y-98850000D03*
%TO.P,J13,3,Pin_3*%
%TO.N,GP12*%
X91750000Y-97850000D03*
%TO.P,J13,4,Pin_4*%
%TO.N,GP13*%
X91750000Y-96850000D03*
%TO.P,J13,5,Pin_5*%
%TO.N,DSHOT 1*%
X91750000Y-95850000D03*
%TO.P,J13,6,Pin_6*%
%TO.N,unconnected-(J13-Pin_6-Pad6)*%
X91750000Y-94850000D03*
%TO.P,J13,7,Pin_7*%
%TO.N,GND*%
X91750000Y-93850000D03*
%TO.P,J13,8,Pin_8*%
%TO.N,unconnected-(J13-Pin_8-Pad8)*%
X91750000Y-92850000D03*
D28*
%TO.P,J13,MP*%
%TO.N,N/C*%
X89225000Y-101150000D03*
X89225000Y-91550000D03*
%TD*%
D22*
%TO.P,R32,1,1*%
%TO.N,Net-(D21-A)*%
X163887500Y-128153934D03*
%TO.P,R32,2,2*%
%TO.N,Net-(D23-K)*%
X165712500Y-128153934D03*
%TD*%
%TO.P,R27,1,1*%
%TO.N,Net-(D16-A)*%
X189807500Y-57962575D03*
%TO.P,R27,2,2*%
%TO.N,GPIO21*%
X191632500Y-57962575D03*
%TD*%
D19*
%TO.P,Q5,1,G*%
%TO.N,GPIO16*%
X176850000Y-55537500D03*
%TO.P,Q5,2,S*%
%TO.N,GND*%
X178750000Y-55537500D03*
%TO.P,Q5,3,D*%
%TO.N,Net-(D14-A)*%
X177800000Y-53662500D03*
%TD*%
D13*
%TO.P,D21,1,K*%
%TO.N,GND*%
X164650000Y-134237500D03*
%TO.P,D21,2,A*%
%TO.N,Net-(D21-A)*%
X164650000Y-132662500D03*
%TD*%
D11*
%TO.P,R9,1*%
%TO.N,/PWM15*%
X101550000Y-64312500D03*
%TO.P,R9,2*%
%TO.N,Net-(J28-Pin_4)*%
X101550000Y-62487500D03*
%TD*%
D20*
%TO.P,J15,1,Pin_1*%
%TO.N,5V logic*%
X105170000Y-43950000D03*
D21*
%TO.P,J15,2,Pin_2*%
%TO.N,GND*%
X107710000Y-43950000D03*
%TO.P,J15,3,Pin_3*%
%TO.N,GPIO17*%
X110250000Y-43950000D03*
%TD*%
D22*
%TO.P,R13,1,1*%
%TO.N,Net-(D18-A)*%
X190637500Y-127821066D03*
%TO.P,R13,2,2*%
%TO.N,Net-(D19-K)*%
X192462500Y-127821066D03*
%TD*%
D29*
%TO.P,U1,1,A0*%
%TO.N,/A0*%
X100675000Y-74262500D03*
%TO.P,U1,2,A1*%
%TO.N,/A1*%
X101325000Y-74262500D03*
%TO.P,U1,3,A2*%
%TO.N,/A2*%
X101975000Y-74262500D03*
%TO.P,U1,4,A3*%
%TO.N,/A3*%
X102625000Y-74262500D03*
%TO.P,U1,5,A4*%
%TO.N,/A4*%
X103275000Y-74262500D03*
%TO.P,U1,6,LED0*%
%TO.N,/PWM0*%
X103925000Y-74262500D03*
%TO.P,U1,7,LED1*%
%TO.N,/PWM1*%
X104575000Y-74262500D03*
%TO.P,U1,8,LED2*%
%TO.N,/PWM2*%
X105225000Y-74262500D03*
%TO.P,U1,9,LED3*%
%TO.N,/PWM3*%
X105875000Y-74262500D03*
%TO.P,U1,10,LED4*%
%TO.N,/PWM4*%
X106525000Y-74262500D03*
%TO.P,U1,11,LED5*%
%TO.N,/PWM5*%
X107175000Y-74262500D03*
%TO.P,U1,12,LED6*%
%TO.N,/PWM6*%
X107825000Y-74262500D03*
%TO.P,U1,13,LED7*%
%TO.N,/PWM7*%
X108475000Y-74262500D03*
%TO.P,U1,14,VSS*%
%TO.N,GND*%
X109125000Y-74262500D03*
%TO.P,U1,15,LED8*%
%TO.N,/PWM8*%
X109125000Y-68537500D03*
%TO.P,U1,16,LED9*%
%TO.N,/PWM9*%
X108475000Y-68537500D03*
%TO.P,U1,17,LED10*%
%TO.N,/PWM10*%
X107825000Y-68537500D03*
%TO.P,U1,18,LED11*%
%TO.N,/PWM11*%
X107175000Y-68537500D03*
%TO.P,U1,19,LED12*%
%TO.N,/PWM12*%
X106525000Y-68537500D03*
%TO.P,U1,20,LED13*%
%TO.N,/PWM13*%
X105875000Y-68537500D03*
%TO.P,U1,21,LED14*%
%TO.N,/PWM14*%
X105225000Y-68537500D03*
%TO.P,U1,22,LED15*%
%TO.N,/PWM15*%
X104575000Y-68537500D03*
%TO.P,U1,23,~{OE}*%
%TO.N,Net-(U1-~{OE})*%
X103925000Y-68537500D03*
%TO.P,U1,24,A5*%
%TO.N,/A5*%
X103275000Y-68537500D03*
%TO.P,U1,25,EXTCLK*%
%TO.N,Net-(U1-EXTCLK)*%
X102625000Y-68537500D03*
%TO.P,U1,26,SCL*%
%TO.N,I2C1 SCL*%
X101975000Y-68537500D03*
%TO.P,U1,27,SDA*%
%TO.N,I2C1 SDA*%
X101325000Y-68537500D03*
%TO.P,U1,28,VDD*%
%TO.N,5V logic*%
X100675000Y-68537500D03*
%TD*%
D30*
%TO.P,D19,1,K*%
%TO.N,Net-(D19-K)*%
X190800000Y-130700000D03*
%TO.P,D19,2,A*%
%TO.N,Net-(D19-A)*%
X188000000Y-130700000D03*
%TD*%
D31*
%TO.P,J4,*%
%TO.N,*%
X121150000Y-42350000D03*
X132150000Y-42350000D03*
D32*
%TO.P,J4,1,Pin_1*%
%TO.N,GND*%
X124150000Y-47350000D03*
D33*
%TO.P,J4,2,Pin_2*%
%TO.N,12V Power Input*%
X129150000Y-47350000D03*
%TD*%
D30*
%TO.P,D23,1,K*%
%TO.N,Net-(D23-K)*%
X164400000Y-130600000D03*
%TO.P,D23,2,A*%
%TO.N,Net-(D23-A)*%
X161600000Y-130600000D03*
%TD*%
D34*
%TO.P,JP9,1,A*%
%TO.N,5V logic*%
X110800000Y-83450000D03*
D35*
%TO.P,JP9,2,B*%
%TO.N,/A5*%
X110800000Y-82150000D03*
%TD*%
D11*
%TO.P,R1G4,1*%
%TO.N,/A2*%
X102280000Y-80162500D03*
%TO.P,R1G4,2*%
%TO.N,GND*%
X102280000Y-78337500D03*
%TD*%
D36*
%TO.P,C2,1*%
%TO.N,GND*%
X98100000Y-70220000D03*
%TO.P,C2,2*%
%TO.N,5V logic*%
X98100000Y-68320000D03*
%TD*%
D15*
%TO.P,C7,1,1*%
%TO.N,Net-(D17-K)*%
X187350000Y-57720000D03*
%TO.P,C7,2,2*%
%TO.N,GND*%
X187350000Y-59620000D03*
%TD*%
D11*
%TO.P,R10,1*%
%TO.N,/PWM14*%
X103575000Y-64312500D03*
%TO.P,R10,2*%
%TO.N,Net-(J28-Pin_3)*%
X103575000Y-62487500D03*
%TD*%
D30*
%TO.P,D26,1,K*%
%TO.N,Net-(D26-K)*%
X177500000Y-130750000D03*
%TO.P,D26,2,A*%
%TO.N,Net-(D26-A)*%
X174700000Y-130750000D03*
%TD*%
D26*
%TO.P,H9,1,1*%
%TO.N,GND*%
X180600000Y-65975000D03*
%TD*%
D24*
%TO.P,F4,1*%
%TO.N,Net-(D14-K)*%
X172125000Y-56787500D03*
%TO.P,F4,2*%
%TO.N,12V Power Input*%
X172125000Y-58662500D03*
%TD*%
D11*
%TO.P,R11,1*%
%TO.N,/PWM13*%
X105600000Y-64312500D03*
%TO.P,R11,2*%
%TO.N,Net-(J28-Pin_2)*%
X105600000Y-62487500D03*
%TD*%
D34*
%TO.P,JP5,1,A*%
%TO.N,5V logic*%
X96700000Y-83450000D03*
D35*
%TO.P,JP5,2,B*%
%TO.N,/A0*%
X96700000Y-82150000D03*
%TD*%
D16*
%TO.P,R12,1,1*%
%TO.N,Net-(D8-A)*%
X188262500Y-124500000D03*
%TO.P,R12,2,2*%
%TO.N,GP28*%
X186437500Y-124500000D03*
%TD*%
%TO.P,R26,1,1*%
%TO.N,Net-(D15-A)*%
X186762500Y-54750000D03*
%TO.P,R26,2,2*%
%TO.N,Net-(D17-K)*%
X184937500Y-54750000D03*
%TD*%
%TO.P,R5,1,1*%
%TO.N,GND*%
X143082500Y-60450000D03*
%TO.P,R5,2,2*%
%TO.N,GPIO18*%
X141257500Y-60450000D03*
%TD*%
D20*
%TO.P,J30,1,Pin_1*%
%TO.N,SWCLK*%
X122750000Y-82140780D03*
D21*
%TO.P,J30,2,Pin_2*%
%TO.N,GND*%
X122750000Y-84680780D03*
%TO.P,J30,3,Pin_3*%
%TO.N,SWDIO*%
X122750000Y-87220780D03*
%TD*%
D16*
%TO.P,R20,1,1*%
%TO.N,Net-(D9-A)*%
X162612500Y-54200000D03*
%TO.P,R20,2,2*%
%TO.N,Net-(D11-K)*%
X160787500Y-54200000D03*
%TD*%
D26*
%TO.P,H7,1,1*%
%TO.N,GND*%
X122650000Y-115150000D03*
%TD*%
D25*
%TO.P,D7,1,K*%
%TO.N,Net-(D7-K)*%
X150425000Y-50902575D03*
%TO.P,D7,2,A*%
%TO.N,Net-(D7-A)*%
X153225000Y-50902575D03*
%TD*%
D15*
%TO.P,C4,1,1*%
%TO.N,Net-(D7-K)*%
X150900000Y-56850000D03*
%TO.P,C4,2,2*%
%TO.N,GND*%
X150900000Y-58750000D03*
%TD*%
D16*
%TO.P,R33,1,1*%
%TO.N,Net-(D22-A)*%
X161762500Y-124203934D03*
%TO.P,R33,2,2*%
%TO.N,GP17*%
X159937500Y-124203934D03*
%TD*%
D37*
%TO.P,H12,1*%
%TO.N,N/C*%
X108000000Y-118250000D03*
%TD*%
D16*
%TO.P,R23,1,1*%
%TO.N,Net-(D12-A)*%
X174212500Y-54450000D03*
%TO.P,R23,2,2*%
%TO.N,Net-(D14-K)*%
X172387500Y-54450000D03*
%TD*%
D20*
%TO.P,J8,1,Pin_1*%
%TO.N,5V logic*%
X99940000Y-106050000D03*
D21*
%TO.P,J8,2,Pin_2*%
%TO.N,/3Vo*%
X102480000Y-106050000D03*
%TO.P,J8,3,Pin_3*%
%TO.N,GND*%
X105020000Y-106050000D03*
%TO.P,J8,4,Pin_4*%
%TO.N,I2C1 SCL*%
X107560000Y-106050000D03*
%TO.P,J8,5,Pin_5*%
%TO.N,GPIO22*%
X110100000Y-106050000D03*
%TO.P,J8,6,Pin_6*%
%TO.N,I2C1 SDA*%
X112640000Y-106050000D03*
%TO.P,J8,7,Pin_7*%
%TO.N,/CS (2)*%
X115180000Y-106050000D03*
%TD*%
D38*
%TO.P,H3,1*%
%TO.N,N/C*%
X118200000Y-131500000D03*
%TD*%
D14*
%TO.P,D16,1,K*%
%TO.N,GND*%
X188400000Y-47262500D03*
%TO.P,D16,2,A*%
%TO.N,Net-(D16-A)*%
X188400000Y-48837500D03*
%TD*%
D25*
%TO.P,D14,1,K*%
%TO.N,Net-(D14-K)*%
X174225000Y-50902575D03*
%TO.P,D14,2,A*%
%TO.N,Net-(D14-A)*%
X177025000Y-50902575D03*
%TD*%
D13*
%TO.P,D25,1,K*%
%TO.N,GND*%
X176050000Y-134287500D03*
%TO.P,D25,2,A*%
%TO.N,Net-(D25-A)*%
X176050000Y-132712500D03*
%TD*%
D39*
%TO.P,J28,1,Pin_1*%
%TO.N,GND*%
X104550000Y-59050000D03*
D40*
%TO.P,J28,2,Pin_2*%
%TO.N,Net-(J28-Pin_2)*%
X103300000Y-59050000D03*
%TO.P,J28,3,Pin_3*%
%TO.N,Net-(J28-Pin_3)*%
X102050000Y-59050000D03*
%TO.P,J28,4,Pin_4*%
%TO.N,Net-(J28-Pin_4)*%
X100800000Y-59050000D03*
%TD*%
D37*
%TO.P,H11,1*%
%TO.N,N/C*%
X91700000Y-134550000D03*
%TD*%
D12*
%TO.P,Q8,1,G*%
%TO.N,GP17*%
X161800000Y-126416434D03*
%TO.P,Q8,2,S*%
%TO.N,GND*%
X159900000Y-126416434D03*
%TO.P,Q8,3,D*%
%TO.N,Net-(D23-A)*%
X160850000Y-128291434D03*
%TD*%
D26*
%TO.P,H8,1,1*%
%TO.N,GND*%
X122675000Y-65950000D03*
%TD*%
D13*
%TO.P,D8,1,K*%
%TO.N,GND*%
X189000000Y-134287500D03*
%TO.P,D8,2,A*%
%TO.N,Net-(D8-A)*%
X189000000Y-132712500D03*
%TD*%
D41*
%TO.P,F8,1*%
%TO.N,Net-(D19-K)*%
X192800000Y-124138566D03*
%TO.P,F8,2*%
%TO.N,5V Power Input*%
X192800000Y-122263566D03*
%TD*%
D24*
%TO.P,F6,1*%
%TO.N,Net-(D17-K)*%
X185050000Y-57712500D03*
%TO.P,F6,2*%
%TO.N,12V Power Input*%
X185050000Y-59587500D03*
%TD*%
D38*
%TO.P,H2,1*%
%TO.N,N/C*%
X199000000Y-51050000D03*
%TD*%
%TO.P,H4,1*%
%TO.N,N/C*%
X200300000Y-127500000D03*
%TD*%
D17*
%TO.P,J22,1,Pin_1*%
%TO.N,Net-(D14-K)*%
X175213125Y-43725000D03*
D18*
%TO.P,J22,2,Pin_2*%
%TO.N,Net-(D14-A)*%
X177213125Y-43725000D03*
%TD*%
D20*
%TO.P,J18,1,Pin_1*%
%TO.N,Net-(J18-Pin_1)*%
X94980000Y-52591000D03*
D21*
%TO.P,J18,2,Pin_2*%
%TO.N,5V Power Input*%
X92440000Y-52591000D03*
%TO.P,J18,3,Pin_3*%
%TO.N,GND*%
X89900000Y-52591000D03*
%TD*%
D20*
%TO.P,J17,1,Pin_1*%
%TO.N,Net-(J17-Pin_1)*%
X94980000Y-48920500D03*
D21*
%TO.P,J17,2,Pin_2*%
%TO.N,5V Power Input*%
X92440000Y-48920500D03*
%TO.P,J17,3,Pin_3*%
%TO.N,GND*%
X89900000Y-48920500D03*
%TD*%
D34*
%TO.P,JP11,1,A*%
%TO.N,5V logic*%
X107980000Y-83450000D03*
D35*
%TO.P,JP11,2,B*%
%TO.N,/A4*%
X107980000Y-82150000D03*
%TD*%
D22*
%TO.P,R3G4,1*%
%TO.N,Net-(J19-Pin_1)*%
X101525000Y-54050000D03*
%TO.P,R3G4,2*%
%TO.N,/PWM11*%
X103350000Y-54050000D03*
%TD*%
D25*
%TO.P,D11,1,K*%
%TO.N,Net-(D11-K)*%
X162550000Y-50900000D03*
%TO.P,D11,2,A*%
%TO.N,Net-(D11-A)*%
X165350000Y-50900000D03*
%TD*%
D14*
%TO.P,D15,1,K*%
%TO.N,GND*%
X186550000Y-47262500D03*
%TO.P,D15,2,A*%
%TO.N,Net-(D15-A)*%
X186550000Y-48837500D03*
%TD*%
D15*
%TO.P,C6,1,1*%
%TO.N,Net-(D14-K)*%
X174475000Y-56800000D03*
%TO.P,C6,2,2*%
%TO.N,GND*%
X174475000Y-58700000D03*
%TD*%
D42*
%TO.P,J14,1,Pin_1*%
%TO.N,GP21*%
X177500000Y-92850000D03*
%TO.P,J14,2,Pin_2*%
%TO.N,GP20*%
X177500000Y-93850000D03*
%TO.P,J14,3,Pin_3*%
%TO.N,GP19*%
X177500000Y-94850000D03*
%TO.P,J14,4,Pin_4*%
%TO.N,GP18*%
X177500000Y-95850000D03*
%TO.P,J14,5,Pin_5*%
%TO.N,DSHOT 2*%
X177500000Y-96850000D03*
%TO.P,J14,6,Pin_6*%
%TO.N,unconnected-(J14-Pin_6-Pad6)*%
X177500000Y-97850000D03*
%TO.P,J14,7,Pin_7*%
%TO.N,GND*%
X177500000Y-98850000D03*
%TO.P,J14,8,Pin_8*%
%TO.N,unconnected-(J14-Pin_8-Pad8)*%
X177500000Y-99850000D03*
D43*
%TO.P,J14,MP*%
%TO.N,N/C*%
X180025000Y-91550000D03*
X180025000Y-101150000D03*
%TD*%
D34*
%TO.P,JP6,1,A*%
%TO.N,5V logic*%
X99520000Y-83450000D03*
D35*
%TO.P,JP6,2,B*%
%TO.N,/A1*%
X99520000Y-82150000D03*
%TD*%
D24*
%TO.P,F1,1*%
%TO.N,Net-(D4-K)*%
X136277673Y-56762500D03*
%TO.P,F1,2*%
%TO.N,12V Power Input*%
X136277673Y-58637500D03*
%TD*%
D27*
%TO.P,J3,1,Pin_1*%
%TO.N,/PWM3*%
X91750000Y-86550000D03*
%TO.P,J3,2,Pin_2*%
%TO.N,/PWM2*%
X91750000Y-85550000D03*
%TO.P,J3,3,Pin_3*%
%TO.N,/PWM1*%
X91750000Y-84550000D03*
%TO.P,J3,4,Pin_4*%
%TO.N,/PWM0*%
X91750000Y-83550000D03*
%TO.P,J3,5,Pin_5*%
%TO.N,unconnected-(J3-Pin_5-Pad5)*%
X91750000Y-82550000D03*
%TO.P,J3,6,Pin_6*%
%TO.N,unconnected-(J3-Pin_6-Pad6)*%
X91750000Y-81550000D03*
%TO.P,J3,7,Pin_7*%
%TO.N,GND*%
X91750000Y-80550000D03*
%TO.P,J3,8,Pin_8*%
%TO.N,unconnected-(J3-Pin_8-Pad8)*%
X91750000Y-79550000D03*
D28*
%TO.P,J3,MP*%
%TO.N,N/C*%
X89225000Y-87850000D03*
X89225000Y-78250000D03*
%TD*%
D20*
%TO.P,J20,1,Pin_1*%
%TO.N,Net-(J20-Pin_1)*%
X94980000Y-59932000D03*
D21*
%TO.P,J20,2,Pin_2*%
%TO.N,5V Power Input*%
X92440000Y-59932000D03*
%TO.P,J20,3,Pin_3*%
%TO.N,GND*%
X89900000Y-59932000D03*
%TD*%
D38*
%TO.P,H1,1*%
%TO.N,N/C*%
X115000000Y-50900000D03*
%TD*%
D13*
%TO.P,D18,1,K*%
%TO.N,GND*%
X190700000Y-134287500D03*
%TO.P,D18,2,A*%
%TO.N,Net-(D18-A)*%
X190700000Y-132712500D03*
%TD*%
D14*
%TO.P,D13,1,K*%
%TO.N,GND*%
X176050000Y-47312500D03*
%TO.P,D13,2,A*%
%TO.N,Net-(D13-A)*%
X176050000Y-48887500D03*
%TD*%
D22*
%TO.P,R3G1,1*%
%TO.N,Net-(J16-Pin_1)*%
X101525000Y-48050000D03*
%TO.P,R3G1,2*%
%TO.N,/PWM8*%
X103350000Y-48050000D03*
%TD*%
D11*
%TO.P,R1G1,1*%
%TO.N,/A5*%
X111100000Y-80162500D03*
%TO.P,R1G1,2*%
%TO.N,GND*%
X111100000Y-78337500D03*
%TD*%
D44*
%TO.P,Y1,1,1*%
%TO.N,GND*%
X89950000Y-71100000D03*
%TO.P,Y1,2,2*%
%TO.N,Net-(U1-EXTCLK)*%
X89950000Y-66220000D03*
%TD*%
D45*
%TO.P,R1,1*%
%TO.N,Net-(D2-K)*%
X95600000Y-68337500D03*
%TO.P,R1,2*%
%TO.N,GND*%
X95600000Y-70162500D03*
%TD*%
D16*
%TO.P,R3,1,1*%
%TO.N,Net-(D1-A)*%
X138650000Y-53950000D03*
%TO.P,R3,2,2*%
%TO.N,Net-(D4-K)*%
X136825000Y-53950000D03*
%TD*%
D20*
%TO.P,J19,1,Pin_1*%
%TO.N,Net-(J19-Pin_1)*%
X94980000Y-56261500D03*
D21*
%TO.P,J19,2,Pin_2*%
%TO.N,5V Power Input*%
X92440000Y-56261500D03*
%TO.P,J19,3,Pin_3*%
%TO.N,GND*%
X89900000Y-56261500D03*
%TD*%
D41*
%TO.P,F7,1*%
%TO.N,Net-(D26-K)*%
X179710000Y-126037500D03*
%TO.P,F7,2*%
%TO.N,5V Power Input*%
X179710000Y-124162500D03*
%TD*%
D16*
%TO.P,R2G2,1*%
%TO.N,I2C1 SCL*%
X115812500Y-67350000D03*
%TO.P,R2G2,2*%
%TO.N,5V logic*%
X113987500Y-67350000D03*
%TD*%
D37*
%TO.P,H6,1*%
%TO.N,N/C*%
X91700000Y-118250000D03*
%TD*%
D34*
%TO.P,JP8,1,A*%
%TO.N,5V logic*%
X105160000Y-83450000D03*
D35*
%TO.P,JP8,2,B*%
%TO.N,/A3*%
X105160000Y-82150000D03*
%TD*%
D20*
%TO.P,J31,1,Pin_1*%
%TO.N,UART0 TX (pico)*%
X170810000Y-75950000D03*
D21*
%TO.P,J31,2,Pin_2*%
%TO.N,UART0 RX (pico)*%
X168270000Y-75950000D03*
%TO.P,J31,3,Pin_3*%
%TO.N,GND*%
X165730000Y-75950000D03*
%TO.P,J31,4,Pin_4*%
%TO.N,I2C1 SDA*%
X163190000Y-75950000D03*
%TO.P,J31,5,Pin_5*%
%TO.N,I2C1 SCL*%
X160650000Y-75950000D03*
%TO.P,J31,6,Pin_6*%
%TO.N,unconnected-(J31-Pin_6-Pad6)*%
X158110000Y-75950000D03*
%TO.P,J31,7,Pin_7*%
%TO.N,DSHOT 1*%
X155570000Y-75950000D03*
%TO.P,J31,8,Pin_8*%
%TO.N,GND*%
X153030000Y-75950000D03*
%TO.P,J31,9,Pin_9*%
%TO.N,unconnected-(J31-Pin_9-Pad9)*%
X150490000Y-75950000D03*
%TO.P,J31,10,Pin_10*%
%TO.N,unconnected-(J31-Pin_10-Pad10)*%
X147950000Y-75950000D03*
%TO.P,J31,11,Pin_11*%
%TO.N,unconnected-(J31-Pin_11-Pad11)*%
X145410000Y-75950000D03*
%TO.P,J31,12,Pin_12*%
%TO.N,DSHOT 2*%
X142870000Y-75950000D03*
%TO.P,J31,13,Pin_13*%
%TO.N,GND*%
X140330000Y-75950000D03*
%TO.P,J31,14,Pin_14*%
%TO.N,GP10*%
X137790000Y-75950000D03*
%TO.P,J31,15,Pin_15*%
%TO.N,GP11*%
X135250000Y-75950000D03*
%TO.P,J31,16,Pin_16*%
%TO.N,GP12*%
X132710000Y-75950000D03*
%TO.P,J31,17,Pin_17*%
%TO.N,GP13*%
X130170000Y-75950000D03*
%TO.P,J31,18,Pin_18*%
%TO.N,GND*%
X127630000Y-75950000D03*
%TO.P,J31,19,Pin_19*%
%TO.N,GP14*%
X125090000Y-75950000D03*
%TO.P,J31,20,Pin_20*%
%TO.N,unconnected-(J31-Pin_20-Pad20)*%
X122550000Y-75950000D03*
%TO.P,J31,21,Pin_21*%
%TO.N,unconnected-(J31-Pin_21-Pad21)*%
X122550000Y-93730000D03*
%TO.P,J31,22,Pin_22*%
%TO.N,GP17*%
X125090000Y-93730000D03*
%TO.P,J31,23,Pin_23*%
%TO.N,GND*%
X127630000Y-93730000D03*
%TO.P,J31,24,Pin_24*%
%TO.N,GP18*%
X130170000Y-93730000D03*
%TO.P,J31,25,Pin_25*%
%TO.N,GP19*%
X132710000Y-93730000D03*
%TO.P,J31,26,Pin_26*%
%TO.N,GP20*%
X135250000Y-93730000D03*
%TO.P,J31,27,Pin_27*%
%TO.N,GP21*%
X137790000Y-93730000D03*
%TO.P,J31,28,Pin_28*%
%TO.N,GND*%
X140330000Y-93730000D03*
%TO.P,J31,29,Pin_29*%
%TO.N,unconnected-(J31-Pin_29-Pad29)*%
X142870000Y-93730000D03*
%TO.P,J31,30,Pin_30*%
%TO.N,GPIO0*%
X145410000Y-93730000D03*
%TO.P,J31,31,Pin_31*%
%TO.N,unconnected-(J31-Pin_31-Pad31)*%
X147950000Y-93730000D03*
%TO.P,J31,32,Pin_32*%
%TO.N,GP27*%
X150490000Y-93730000D03*
%TO.P,J31,33,Pin_33*%
%TO.N,GND*%
X153030000Y-93730000D03*
%TO.P,J31,34,Pin_34*%
%TO.N,GP28*%
X155570000Y-93730000D03*
%TO.P,J31,35,Pin_35*%
%TO.N,ADC_VREF*%
X158110000Y-93730000D03*
%TO.P,J31,36,Pin_36*%
%TO.N,3V3(OUT)*%
X160650000Y-93730000D03*
%TO.P,J31,37,Pin_37*%
%TO.N,3V3_EN*%
X163190000Y-93730000D03*
%TO.P,J31,38,Pin_38*%
%TO.N,GND*%
X165730000Y-93730000D03*
%TO.P,J31,39,Pin_39*%
%TO.N,5V logic*%
X168270000Y-93730000D03*
D20*
%TO.P,J31,40,Pin_40*%
%TO.N,unconnected-(J31-Pin_40-Pad40)*%
X170810000Y-93730000D03*
%TD*%
D42*
%TO.P,J9,1,Pin_1*%
%TO.N,/PWM4*%
X177500000Y-79550000D03*
%TO.P,J9,2,Pin_2*%
%TO.N,/PWM5*%
X177500000Y-80550000D03*
%TO.P,J9,3,Pin_3*%
%TO.N,/PWM6*%
X177500000Y-81550000D03*
%TO.P,J9,4,Pin_4*%
%TO.N,/PWM7*%
X177500000Y-82550000D03*
%TO.P,J9,5,Pin_5*%
%TO.N,unconnected-(J9-Pin_5-Pad5)*%
X177500000Y-83550000D03*
%TO.P,J9,6,Pin_6*%
%TO.N,unconnected-(J9-Pin_6-Pad6)*%
X177500000Y-84550000D03*
%TO.P,J9,7,Pin_7*%
%TO.N,GND*%
X177500000Y-85550000D03*
%TO.P,J9,8,Pin_8*%
%TO.N,unconnected-(J9-Pin_8-Pad8)*%
X177500000Y-86550000D03*
D43*
%TO.P,J9,MP*%
%TO.N,N/C*%
X180025000Y-78250000D03*
X180025000Y-87850000D03*
%TD*%
D22*
%TO.P,R35,1,1*%
%TO.N,Net-(D24-A)*%
X177397500Y-128350000D03*
%TO.P,R35,2,2*%
%TO.N,Net-(D26-K)*%
X179222500Y-128350000D03*
%TD*%
D16*
%TO.P,R36,1,1*%
%TO.N,Net-(D25-A)*%
X175235000Y-124600000D03*
%TO.P,R36,2,2*%
%TO.N,GP27*%
X173410000Y-124600000D03*
%TD*%
%TO.P,R22,1,1*%
%TO.N,GND*%
X167182500Y-60477575D03*
%TO.P,R22,2,2*%
%TO.N,GPIO12*%
X165357500Y-60477575D03*
%TD*%
D22*
%TO.P,R4,1,1*%
%TO.N,Net-(D3-A)*%
X140915173Y-57972425D03*
%TO.P,R4,2,2*%
%TO.N,GPIO18*%
X142740173Y-57972425D03*
%TD*%
D36*
%TO.P,C9,1,1*%
%TO.N,Net-(D23-K)*%
X163850000Y-125903934D03*
%TO.P,C9,2,2*%
%TO.N,GND*%
X163850000Y-124003934D03*
%TD*%
D22*
%TO.P,R24,1,1*%
%TO.N,Net-(D13-A)*%
X177007500Y-57962575D03*
%TO.P,R24,2,2*%
%TO.N,GPIO16*%
X178832500Y-57962575D03*
%TD*%
D41*
%TO.P,F5,1*%
%TO.N,Net-(D23-K)*%
X166100000Y-125891434D03*
%TO.P,F5,2*%
%TO.N,5V Power Input*%
X166100000Y-124016434D03*
%TD*%
D36*
%TO.P,C1,1,1*%
%TO.N,Net-(D19-K)*%
X190400000Y-124171066D03*
%TO.P,C1,2,2*%
%TO.N,GND*%
X190400000Y-122271066D03*
%TD*%
D16*
%TO.P,R8,1,1*%
%TO.N,GND*%
X155232500Y-60477575D03*
%TO.P,R8,2,2*%
%TO.N,GPIO23*%
X153407500Y-60477575D03*
%TD*%
D34*
%TO.P,JP7,1,A*%
%TO.N,5V logic*%
X102340000Y-83450000D03*
D35*
%TO.P,JP7,2,B*%
%TO.N,/A2*%
X102340000Y-82150000D03*
%TD*%
D20*
%TO.P,J24,1,Pin_1*%
%TO.N,I2C1 SCL*%
X179425000Y-73550000D03*
D21*
%TO.P,J24,2,Pin_2*%
%TO.N,I2C1 SDA*%
X176885000Y-73550000D03*
%TD*%
D20*
%TO.P,J16,1,Pin_1*%
%TO.N,Net-(J16-Pin_1)*%
X94980000Y-45250000D03*
D21*
%TO.P,J16,2,Pin_2*%
%TO.N,5V Power Input*%
X92440000Y-45250000D03*
%TO.P,J16,3,Pin_3*%
%TO.N,GND*%
X89900000Y-45250000D03*
%TD*%
D37*
%TO.P,H10,1*%
%TO.N,N/C*%
X108000000Y-134550000D03*
%TD*%
D25*
%TO.P,D17,1,K*%
%TO.N,Net-(D17-K)*%
X186627500Y-50827575D03*
%TO.P,D17,2,A*%
%TO.N,Net-(D17-A)*%
X189427500Y-50827575D03*
%TD*%
D36*
%TO.P,C10,1,1*%
%TO.N,Net-(D26-K)*%
X177460000Y-126050000D03*
%TO.P,C10,2,2*%
%TO.N,GND*%
X177460000Y-124150000D03*
%TD*%
D16*
%TO.P,R2G1,1*%
%TO.N,I2C1 SDA*%
X115812500Y-65225000D03*
%TO.P,R2G1,2*%
%TO.N,5V logic*%
X113987500Y-65225000D03*
%TD*%
D39*
%TO.P,J25,1,Pin_1*%
%TO.N,unconnected-(J25-Pin_1-Pad1)*%
X137750000Y-129450000D03*
D40*
%TO.P,J25,2,Pin_2*%
%TO.N,GND*%
X136500000Y-129450000D03*
%TO.P,J25,3,Pin_3*%
%TO.N,I2C1 SDA*%
X135250000Y-129450000D03*
%TO.P,J25,4,Pin_4*%
%TO.N,unconnected-(J25-Pin_4-Pad4)*%
X134000000Y-129450000D03*
%TO.P,J25,5,Pin_5*%
%TO.N,I2C1 SCL*%
X132750000Y-129450000D03*
%TD*%
D20*
%TO.P,J1,1,Pin_1*%
%TO.N,unconnected-(J1-Pin_1-Pad1)*%
X127895000Y-67795000D03*
D21*
%TO.P,J1,2,Pin_2*%
%TO.N,5V logic*%
X127895000Y-65255000D03*
%TO.P,J1,3,Pin_3*%
%TO.N,I2C1 SDA*%
X130435000Y-67795000D03*
%TO.P,J1,4,Pin_4*%
%TO.N,5V logic*%
X130435000Y-65255000D03*
%TO.P,J1,5,Pin_5*%
%TO.N,I2C1 SCL*%
X132975000Y-67795000D03*
%TO.P,J1,6,Pin_6*%
%TO.N,GND*%
X132975000Y-65255000D03*
%TO.P,J1,7,Pin_7*%
%TO.N,GPIO4*%
X135515000Y-67795000D03*
%TO.P,J1,8,Pin_8*%
%TO.N,UART0 RX (pico)*%
X135515000Y-65255000D03*
%TO.P,J1,9,Pin_9*%
%TO.N,GND*%
X138055000Y-67795000D03*
%TO.P,J1,10,Pin_10*%
%TO.N,UART0 TX (pico)*%
X138055000Y-65255000D03*
%TO.P,J1,11,Pin_11*%
%TO.N,GPIO17*%
X140595000Y-67795000D03*
%TO.P,J1,12,Pin_12*%
%TO.N,GPIO18*%
X140595000Y-65255000D03*
%TO.P,J1,13,Pin_13*%
%TO.N,unconnected-(J1-Pin_13-Pad13)*%
X143135000Y-67795000D03*
%TO.P,J1,14,Pin_14*%
%TO.N,GND*%
X143135000Y-65255000D03*
%TO.P,J1,15,Pin_15*%
%TO.N,GPIO22*%
X145675000Y-67795000D03*
%TO.P,J1,16,Pin_16*%
%TO.N,GPIO23*%
X145675000Y-65255000D03*
%TO.P,J1,17,Pin_17*%
%TO.N,unconnected-(J1-Pin_17-Pad17)*%
X148215000Y-67795000D03*
%TO.P,J1,18,Pin_18*%
%TO.N,SWDIO*%
X148215000Y-65255000D03*
%TO.P,J1,19,Pin_19*%
%TO.N,unconnected-(J1-Pin_19-Pad19)*%
X150755000Y-67795000D03*
%TO.P,J1,20,Pin_20*%
%TO.N,GND*%
X150755000Y-65255000D03*
%TO.P,J1,21,Pin_21*%
%TO.N,unconnected-(J1-Pin_21-Pad21)*%
X153295000Y-67795000D03*
%TO.P,J1,22,Pin_22*%
%TO.N,SWCLK*%
X153295000Y-65255000D03*
%TO.P,J1,23,Pin_23*%
%TO.N,unconnected-(J1-Pin_23-Pad23)*%
X155835000Y-67795000D03*
%TO.P,J1,24,Pin_24*%
%TO.N,unconnected-(J1-Pin_24-Pad24)*%
X155835000Y-65255000D03*
%TO.P,J1,25,Pin_25*%
%TO.N,GND*%
X158375000Y-67795000D03*
%TO.P,J1,26,Pin_26*%
%TO.N,unconnected-(J1-Pin_26-Pad26)*%
X158375000Y-65255000D03*
%TO.P,J1,27,Pin_27*%
%TO.N,GPIO0*%
X160915000Y-67795000D03*
%TO.P,J1,28,Pin_28*%
%TO.N,unconnected-(J1-Pin_28-Pad28)*%
X160915000Y-65255000D03*
%TO.P,J1,29,Pin_29*%
%TO.N,unconnected-(J1-Pin_29-Pad29)*%
X163455000Y-67795000D03*
%TO.P,J1,30,Pin_30*%
%TO.N,unconnected-(J1-Pin_30-Pad30)*%
X163455000Y-65255000D03*
%TO.P,J1,31,Pin_31*%
%TO.N,unconnected-(J1-Pin_31-Pad31)*%
X165995000Y-67795000D03*
%TO.P,J1,32,Pin_32*%
%TO.N,GPIO12*%
X165995000Y-65255000D03*
%TO.P,J1,33,Pin_33*%
%TO.N,GPIO13*%
X168535000Y-67795000D03*
%TO.P,J1,34,Pin_34*%
%TO.N,GND*%
X168535000Y-65255000D03*
%TO.P,J1,35,Pin_35*%
%TO.N,GPIO19*%
X171075000Y-67795000D03*
%TO.P,J1,36,Pin_36*%
%TO.N,GPIO16*%
X171075000Y-65255000D03*
%TO.P,J1,37,Pin_37*%
%TO.N,GPIO26*%
X173615000Y-67795000D03*
%TO.P,J1,38,Pin_38*%
%TO.N,unconnected-(J1-Pin_38-Pad38)*%
X173615000Y-65255000D03*
%TO.P,J1,39,Pin_39*%
%TO.N,GND*%
X176155000Y-67795000D03*
%TO.P,J1,40,Pin_40*%
%TO.N,GPIO21*%
X176155000Y-65255000D03*
%TD*%
D46*
%TO.P,J5,1,Pin_1*%
%TO.N,5V Power Input*%
X152695000Y-133030000D03*
D47*
%TO.P,J5,2,Pin_2*%
%TO.N,GND*%
X152695000Y-129070000D03*
%TD*%
D48*
%TO.N,GND*%
X113150000Y-79000000D03*
X195450000Y-59550000D03*
X161250000Y-134200000D03*
X174200000Y-134300000D03*
X183450000Y-127600000D03*
X169360000Y-127100000D03*
X97800000Y-76300000D03*
X106700000Y-80400000D03*
X166300000Y-47350000D03*
X177900000Y-47300000D03*
X110950000Y-74200000D03*
X154150000Y-47400000D03*
X187150000Y-134300000D03*
X141800000Y-47400000D03*
X103750000Y-80400000D03*
X190200000Y-47300000D03*
%TO.N,/A5*%
X109650000Y-80150000D03*
X103000000Y-66400000D03*
%TO.N,GP10*%
X100650000Y-100750000D03*
%TO.N,GP11*%
X98900000Y-99700000D03*
%TO.N,GP12*%
X97150000Y-98600000D03*
%TO.N,GP13*%
X95450000Y-97300000D03*
%TO.N,SWDIO*%
X146650000Y-84400000D03*
%TO.N,5V logic*%
X112150000Y-66000000D03*
X113050000Y-83150000D03*
X98100000Y-66500000D03*
%TO.N,12V Power Input*%
X133800000Y-58650000D03*
X146550000Y-58700000D03*
X182600000Y-59600000D03*
X158450000Y-58650000D03*
X170100000Y-58650000D03*
%TO.N,SWCLK*%
X151730000Y-82150000D03*
%TO.N,5V Power Input*%
X181910000Y-124150000D03*
X195350000Y-123050000D03*
X168700000Y-124003934D03*
%TO.N,GPIO21*%
X184000000Y-62300000D03*
%TO.N,I2C1 SDA*%
X130435000Y-72550000D03*
X163040000Y-72550000D03*
%TO.N,I2C1 SCL*%
X160650000Y-71500000D03*
%TO.N,DSHOT 1*%
X155570000Y-90450000D03*
%TO.N,DSHOT 2*%
X142870000Y-89150000D03*
%TO.N,GP28*%
X156600000Y-98800000D03*
%TO.N,GP27*%
X150500000Y-101350000D03*
%TD*%
D49*
%TO.N,5V logic*%
X98100000Y-66500000D02*
X98100000Y-68320000D01*
X97750000Y-66150000D02*
X96387500Y-66150000D01*
X98100000Y-66500000D02*
X97750000Y-66150000D01*
%TO.N,Net-(D2-K)*%
X94812500Y-67550000D02*
X95600000Y-68337500D01*
X94812500Y-66150000D02*
X94812500Y-67550000D01*
D50*
%TO.N,GND*%
X144527673Y-59422327D02*
X143500000Y-60450000D01*
D49*
X96600000Y-78337500D02*
X97800000Y-78337500D01*
D50*
X158103934Y-125350000D02*
X158150000Y-125303934D01*
X178832500Y-60477575D02*
X180600000Y-62245075D01*
X159150000Y-122053934D02*
X158150000Y-123053934D01*
X180600000Y-62245075D02*
X180600000Y-65975000D01*
D49*
X172697425Y-60477575D02*
X167182500Y-60477575D01*
D50*
X155232500Y-60477575D02*
X155232500Y-62167500D01*
D49*
X89700000Y-80550000D02*
X91750000Y-80550000D01*
X150350000Y-47362500D02*
X152250000Y-47362500D01*
D50*
X152000000Y-62900000D02*
X150755000Y-64145000D01*
X167182500Y-60477575D02*
X167182500Y-61882500D01*
X152695000Y-127405000D02*
X152695000Y-129070000D01*
D49*
X161250000Y-134200000D02*
X161287500Y-134237500D01*
X140100000Y-47400000D02*
X138212500Y-47400000D01*
X183150000Y-94750000D02*
X179050000Y-98850000D01*
D50*
X185250000Y-126550000D02*
X186400000Y-126550000D01*
D49*
X176050000Y-134287500D02*
X174212500Y-134287500D01*
X106700000Y-79817500D02*
X106700000Y-80400000D01*
X164300000Y-47362500D02*
X166287500Y-47362500D01*
D50*
X155687500Y-55687500D02*
X155150000Y-55687500D01*
X158150000Y-123053934D02*
X158150000Y-125303934D01*
X179600000Y-115100000D02*
X180600000Y-115100000D01*
D49*
X138527673Y-61872327D02*
X138527673Y-58672425D01*
D50*
X179172425Y-60477575D02*
X180400000Y-59250000D01*
X143500000Y-60450000D02*
X143082500Y-60450000D01*
X167182500Y-61882500D02*
X168535000Y-63235000D01*
D49*
X154112500Y-47362500D02*
X154150000Y-47400000D01*
D50*
X172262500Y-126612500D02*
X173100000Y-126612500D01*
D49*
X177800000Y-134287500D02*
X176050000Y-134287500D01*
D50*
X171710000Y-126060000D02*
X172262500Y-126612500D01*
X167182500Y-60477575D02*
X167572425Y-60477575D01*
D49*
X183150000Y-87850000D02*
X183150000Y-94750000D01*
D50*
X184900000Y-126200000D02*
X185250000Y-126550000D01*
X143082500Y-65202500D02*
X143135000Y-65255000D01*
D49*
X89950000Y-71200000D02*
X89950000Y-71100000D01*
D50*
X180400000Y-59250000D02*
X180400000Y-56600000D01*
D49*
X186550000Y-47262500D02*
X188400000Y-47262500D01*
X180850000Y-85550000D02*
X183150000Y-87850000D01*
X175350000Y-99650000D02*
X175350000Y-109850000D01*
X161287500Y-134237500D02*
X162950000Y-134237500D01*
X93600000Y-79950000D02*
X93600000Y-74850000D01*
D50*
X144527673Y-56377673D02*
X144527673Y-59422327D01*
D49*
X93000000Y-80550000D02*
X93600000Y-79950000D01*
X177460000Y-124150000D02*
X179013934Y-122596066D01*
D50*
X193150000Y-59550000D02*
X195450000Y-59550000D01*
D49*
X132975000Y-65255000D02*
X135130000Y-63100000D01*
X187162500Y-134287500D02*
X189000000Y-134287500D01*
D50*
X179337500Y-55537500D02*
X178750000Y-55537500D01*
D49*
X190400000Y-122271066D02*
X190400000Y-121000000D01*
D50*
X185503934Y-122596066D02*
X186550000Y-122596066D01*
D49*
X113150000Y-79000000D02*
X112487500Y-78337500D01*
X163850000Y-124003934D02*
X165341434Y-122512500D01*
X97800000Y-78337500D02*
X99050000Y-78337500D01*
D50*
X159937500Y-122053934D02*
X159150000Y-122053934D01*
X154500000Y-62900000D02*
X152000000Y-62900000D01*
D49*
X176050000Y-47312500D02*
X177887500Y-47312500D01*
X174475000Y-58700000D02*
X172697425Y-60477575D01*
D50*
X171710000Y-123300000D02*
X171710000Y-126000000D01*
D49*
X95600000Y-70162500D02*
X98042500Y-70162500D01*
D50*
X184900000Y-123200000D02*
X185503934Y-122596066D01*
D49*
X188650000Y-119250000D02*
X184950000Y-119250000D01*
X97800000Y-78337500D02*
X97800000Y-76300000D01*
X179013934Y-122596066D02*
X185503934Y-122596066D01*
X176150000Y-98850000D02*
X175350000Y-99650000D01*
X180600000Y-62245075D02*
X181845075Y-61000000D01*
X185970000Y-61000000D02*
X187350000Y-59620000D01*
X160942425Y-60477575D02*
X155232500Y-60477575D01*
D50*
X183500000Y-127600000D02*
X183450000Y-127600000D01*
X155622425Y-60477575D02*
X156450000Y-59650000D01*
X167572425Y-60477575D02*
X168200000Y-59850000D01*
D49*
X184950000Y-119250000D02*
X180800000Y-115100000D01*
D50*
X168200000Y-59850000D02*
X168200000Y-56450000D01*
X184900000Y-126200000D02*
X183500000Y-127600000D01*
D49*
X88950000Y-93850000D02*
X87100000Y-92000000D01*
X149200000Y-60450000D02*
X150900000Y-58750000D01*
D50*
X171710000Y-123300000D02*
X172497500Y-122512500D01*
D49*
X87100000Y-92000000D02*
X87100000Y-83150000D01*
X135130000Y-63100000D02*
X137300000Y-63100000D01*
X91750000Y-80550000D02*
X93000000Y-80550000D01*
D50*
X155232500Y-60477575D02*
X155622425Y-60477575D01*
X193150000Y-59550000D02*
X193150000Y-56400000D01*
X158150000Y-125303934D02*
X159262500Y-126416434D01*
D49*
X177500000Y-98850000D02*
X176150000Y-98850000D01*
X179050000Y-98850000D02*
X177500000Y-98850000D01*
D50*
X154750000Y-125350000D02*
X158103934Y-125350000D01*
X155232500Y-62167500D02*
X154500000Y-62900000D01*
D49*
X102280000Y-78337500D02*
X103750000Y-79807500D01*
X174150000Y-47312500D02*
X176050000Y-47312500D01*
X166287500Y-47362500D02*
X166300000Y-47350000D01*
X190700000Y-134287500D02*
X189000000Y-134287500D01*
D50*
X143082500Y-60450000D02*
X143082500Y-65202500D01*
D49*
X112487500Y-78337500D02*
X111100000Y-78337500D01*
X190162500Y-47262500D02*
X190200000Y-47300000D01*
D50*
X184900000Y-126200000D02*
X184900000Y-123200000D01*
X143537500Y-55387500D02*
X144527673Y-56377673D01*
D49*
X141800000Y-47400000D02*
X140100000Y-47400000D01*
X138212500Y-47400000D02*
X138200000Y-47412500D01*
D50*
X156450000Y-56450000D02*
X155687500Y-55687500D01*
D49*
X87100000Y-83150000D02*
X89700000Y-80550000D01*
D50*
X143100000Y-55387500D02*
X143537500Y-55387500D01*
D49*
X137300000Y-63100000D02*
X138527673Y-61872327D01*
D50*
X171710000Y-126000000D02*
X171710000Y-126060000D01*
X171710000Y-126000000D02*
X170460000Y-126000000D01*
D49*
X110887500Y-74262500D02*
X110950000Y-74200000D01*
D50*
X170460000Y-126000000D02*
X169360000Y-127100000D01*
X172497500Y-122512500D02*
X173610000Y-122512500D01*
X159262500Y-126416434D02*
X159900000Y-126416434D01*
D49*
X187150000Y-134300000D02*
X187162500Y-134287500D01*
D50*
X168535000Y-63235000D02*
X168535000Y-65255000D01*
X150755000Y-64145000D02*
X150755000Y-65255000D01*
D49*
X98042500Y-70162500D02*
X98100000Y-70220000D01*
X152250000Y-47362500D02*
X154112500Y-47362500D01*
D50*
X178832500Y-60477575D02*
X179172425Y-60477575D01*
X193150000Y-56400000D02*
X192165075Y-55415075D01*
D49*
X180800000Y-115100000D02*
X180600000Y-115100000D01*
X105220000Y-78337500D02*
X106700000Y-79817500D01*
X162950000Y-134237500D02*
X164650000Y-134237500D01*
X103750000Y-79807500D02*
X103750000Y-80400000D01*
X175350000Y-109850000D02*
X180600000Y-115100000D01*
D50*
X191632500Y-60477575D02*
X192222425Y-60477575D01*
D49*
X177500000Y-85550000D02*
X180850000Y-85550000D01*
D50*
X192165075Y-55415075D02*
X191650000Y-55415075D01*
D49*
X162750000Y-58670000D02*
X160942425Y-60477575D01*
X94662500Y-71100000D02*
X95600000Y-70162500D01*
X91750000Y-93850000D02*
X88950000Y-93850000D01*
X177887500Y-47312500D02*
X177900000Y-47300000D01*
X188400000Y-47262500D02*
X190162500Y-47262500D01*
X190400000Y-121000000D02*
X188650000Y-119250000D01*
X109125000Y-74262500D02*
X110887500Y-74262500D01*
D50*
X192222425Y-60477575D02*
X193150000Y-59550000D01*
X156450000Y-59650000D02*
X156450000Y-56450000D01*
D49*
X181845075Y-61000000D02*
X185970000Y-61000000D01*
X162450000Y-47362500D02*
X164300000Y-47362500D01*
X165341434Y-122512500D02*
X172497500Y-122512500D01*
X94662500Y-71100000D02*
X89950000Y-71100000D01*
X143082500Y-60450000D02*
X149200000Y-60450000D01*
D50*
X180400000Y-56600000D02*
X179337500Y-55537500D01*
D49*
X174212500Y-134287500D02*
X174200000Y-134300000D01*
X93600000Y-74850000D02*
X89950000Y-71200000D01*
D50*
X167437500Y-55687500D02*
X166950000Y-55687500D01*
X168200000Y-56450000D02*
X167437500Y-55687500D01*
D49*
X111100000Y-78337500D02*
X108160000Y-78337500D01*
D50*
X154750000Y-125350000D02*
X152695000Y-127405000D01*
D49*
%TO.N,Net-(D4-K)*%
X138527673Y-56772425D02*
X136287598Y-56772425D01*
D50*
X137124902Y-43725000D02*
X136345000Y-44504902D01*
X138650000Y-43725000D02*
X137124902Y-43725000D01*
X136345000Y-44504902D02*
X136345000Y-50555248D01*
X136825000Y-53950000D02*
X136825000Y-51069902D01*
X136967327Y-50927575D02*
X136842327Y-51052575D01*
X138267327Y-50927575D02*
X136967327Y-50927575D01*
X136277673Y-56762500D02*
X136277673Y-54497327D01*
D49*
X136287598Y-56772425D02*
X136277673Y-56762500D01*
D50*
X136825000Y-51069902D02*
X136842327Y-51052575D01*
X136345000Y-50555248D02*
X136842327Y-51052575D01*
X136277673Y-54497327D02*
X136825000Y-53950000D01*
D49*
%TO.N,GPIO4*%
X131735000Y-66135000D02*
X132095000Y-66495000D01*
X115812500Y-63100000D02*
X119050000Y-63100000D01*
X131735000Y-63585000D02*
X131735000Y-66135000D01*
X119050000Y-63100000D02*
X119550000Y-62600000D01*
X119550000Y-62600000D02*
X130750000Y-62600000D01*
X132095000Y-66495000D02*
X134215000Y-66495000D01*
X134215000Y-66495000D02*
X135515000Y-67795000D01*
X130750000Y-62600000D02*
X131735000Y-63585000D01*
D50*
%TO.N,Net-(D7-K)*%
X148200000Y-50350000D02*
X148200000Y-44400000D01*
D49*
X150900000Y-56850000D02*
X148837500Y-56850000D01*
D50*
X148200000Y-44400000D02*
X148875000Y-43725000D01*
X148800000Y-56812500D02*
X148800000Y-54237500D01*
X148887500Y-51037500D02*
X148200000Y-50350000D01*
X148887500Y-54150000D02*
X148887500Y-51037500D01*
X148875000Y-43725000D02*
X150834375Y-43725000D01*
D49*
X148837500Y-56850000D02*
X148800000Y-56812500D01*
D50*
X149022425Y-50902575D02*
X148887500Y-51037500D01*
X148800000Y-54237500D02*
X148887500Y-54150000D01*
X150425000Y-50902575D02*
X149022425Y-50902575D01*
D49*
%TO.N,/A0*%
X96600000Y-80162500D02*
X96600000Y-82050000D01*
X96400000Y-80162500D02*
X96600000Y-80162500D01*
X95150000Y-78912500D02*
X96400000Y-80162500D01*
X97287500Y-74262500D02*
X95150000Y-76400000D01*
X100675000Y-74262500D02*
X97287500Y-74262500D01*
X96600000Y-82050000D02*
X96700000Y-82150000D01*
X95150000Y-76400000D02*
X95150000Y-78912500D01*
%TO.N,/A1*%
X99050000Y-80162500D02*
X99050000Y-81680000D01*
X99050000Y-80162500D02*
X99340000Y-80162500D01*
X99050000Y-81680000D02*
X99520000Y-82150000D01*
X99340000Y-80162500D02*
X100350000Y-79152500D01*
X100350000Y-79152500D02*
X100350000Y-76250000D01*
X101325000Y-75275000D02*
X101325000Y-74262500D01*
X100350000Y-76250000D02*
X101325000Y-75275000D01*
%TO.N,/A2*%
X101975000Y-75800000D02*
X101975000Y-74262500D01*
X102280000Y-82090000D02*
X102340000Y-82150000D01*
X102280000Y-80162500D02*
X101000000Y-78882500D01*
X101000000Y-76775000D02*
X101975000Y-75800000D01*
X102280000Y-80162500D02*
X102280000Y-82090000D01*
X101000000Y-78882500D02*
X101000000Y-76775000D01*
%TO.N,/A3*%
X104000000Y-77750000D02*
X102625000Y-76375000D01*
X105220000Y-80162500D02*
X104000000Y-78942500D01*
X105220000Y-82090000D02*
X105160000Y-82150000D01*
X105220000Y-80162500D02*
X105220000Y-82090000D01*
X104000000Y-78942500D02*
X104000000Y-77750000D01*
X102625000Y-76375000D02*
X102625000Y-74262500D01*
%TO.N,/A5*%
X103000000Y-67100000D02*
X103275000Y-67375000D01*
X103000000Y-66400000D02*
X103000000Y-67100000D01*
X111100000Y-81850000D02*
X110800000Y-82150000D01*
X109662500Y-80162500D02*
X109650000Y-80150000D01*
X111100000Y-80162500D02*
X111100000Y-81850000D01*
X111100000Y-80162500D02*
X109662500Y-80162500D01*
X103275000Y-67375000D02*
X103275000Y-68537500D01*
%TO.N,/A4*%
X108160000Y-81970000D02*
X107980000Y-82150000D01*
X103275000Y-75925000D02*
X104500000Y-77150000D01*
X104500000Y-77150000D02*
X106400000Y-77150000D01*
X108160000Y-80162500D02*
X108160000Y-81970000D01*
X106400000Y-77150000D02*
X106950000Y-77700000D01*
X103275000Y-74262500D02*
X103275000Y-75925000D01*
X106950000Y-78952500D02*
X108160000Y-80162500D01*
X106950000Y-77700000D02*
X106950000Y-78952500D01*
%TO.N,Net-(D11-K)*%
X160550000Y-56762500D02*
X162742500Y-56762500D01*
D50*
X160787500Y-44212500D02*
X161275000Y-43725000D01*
X161275000Y-43725000D02*
X163023750Y-43725000D01*
X160787500Y-54200000D02*
X160787500Y-50900000D01*
X160787500Y-50900000D02*
X160787500Y-44212500D01*
X160550000Y-56762500D02*
X160550000Y-54437500D01*
X162550000Y-50900000D02*
X160787500Y-50900000D01*
D49*
X162742500Y-56762500D02*
X162750000Y-56770000D01*
D50*
X160550000Y-54437500D02*
X160787500Y-54200000D01*
D49*
%TO.N,/PWM7*%
X166050000Y-79950000D02*
X168650000Y-82550000D01*
X108475000Y-74262500D02*
X108475000Y-73479264D01*
X116400000Y-79950000D02*
X166050000Y-79950000D01*
X108819264Y-73135000D02*
X112470391Y-73135000D01*
X112470391Y-73135000D02*
X116120000Y-76784609D01*
X168650000Y-82550000D02*
X177500000Y-82550000D01*
X116120000Y-76784609D02*
X116120000Y-79670000D01*
X108475000Y-73479264D02*
X108819264Y-73135000D01*
X116120000Y-79670000D02*
X116400000Y-79950000D01*
%TO.N,/PWM6*%
X107825000Y-73393872D02*
X108603872Y-72615000D01*
X116650000Y-79100000D02*
X116850000Y-79300000D01*
X112685783Y-72615000D02*
X116650000Y-76579217D01*
X116650000Y-76579217D02*
X116650000Y-79100000D01*
X168550000Y-81550000D02*
X177500000Y-81550000D01*
X166300000Y-79300000D02*
X168550000Y-81550000D01*
X107825000Y-74262500D02*
X107825000Y-73393872D01*
X116850000Y-79300000D02*
X166300000Y-79300000D01*
X108603872Y-72615000D02*
X112685783Y-72615000D01*
%TO.N,/PWM5*%
X166500000Y-78650000D02*
X168400000Y-80550000D01*
X117200000Y-78350000D02*
X117500000Y-78650000D01*
X112901175Y-72095000D02*
X117200000Y-76393825D01*
X117500000Y-78650000D02*
X166500000Y-78650000D01*
X107175000Y-74262500D02*
X107175000Y-73308481D01*
X168400000Y-80550000D02*
X177500000Y-80550000D01*
X108388481Y-72095000D02*
X112901175Y-72095000D01*
X107175000Y-73308481D02*
X108388481Y-72095000D01*
X117200000Y-76393825D02*
X117200000Y-78350000D01*
%TO.N,/PWM4*%
X106525000Y-74262500D02*
X106525000Y-73223089D01*
X168450000Y-79550000D02*
X177500000Y-79550000D01*
X117750000Y-77550000D02*
X118250000Y-78050000D01*
X108173090Y-71575000D02*
X113225000Y-71575000D01*
X113225000Y-71575000D02*
X117750000Y-76100000D01*
X117750000Y-76100000D02*
X117750000Y-77550000D01*
X166950000Y-78050000D02*
X168450000Y-79550000D01*
X118250000Y-78050000D02*
X166950000Y-78050000D01*
X106525000Y-73223089D02*
X108173090Y-71575000D01*
%TO.N,/PWM15*%
X103600000Y-65300000D02*
X104575000Y-66275000D01*
X101550000Y-65181250D02*
X101668750Y-65300000D01*
X101550000Y-64312500D02*
X101550000Y-65181250D01*
X104575000Y-66275000D02*
X104575000Y-68537500D01*
X101668750Y-65300000D02*
X103600000Y-65300000D01*
%TO.N,/PWM14*%
X105225000Y-65975000D02*
X105225000Y-68537500D01*
X103575000Y-64312500D02*
X103575000Y-64325000D01*
X103575000Y-64325000D02*
X105225000Y-65975000D01*
%TO.N,/PWM13*%
X105850000Y-68512500D02*
X105875000Y-68537500D01*
X105875000Y-64587500D02*
X105875000Y-68537500D01*
X105600000Y-64312500D02*
X105875000Y-64587500D01*
%TO.N,/PWM12*%
X106525000Y-68537500D02*
X106525000Y-67125000D01*
X105200000Y-56050000D02*
X103350000Y-56050000D01*
X107050000Y-66600000D02*
X107050000Y-57900000D01*
X106525000Y-67125000D02*
X107050000Y-66600000D01*
X107050000Y-57900000D02*
X105200000Y-56050000D01*
%TO.N,/PWM3*%
X91750000Y-86550000D02*
X114400000Y-86550000D01*
X106080000Y-75550000D02*
X105875000Y-75345000D01*
X114400000Y-86550000D02*
X115600000Y-85350000D01*
X105875000Y-75345000D02*
X105875000Y-74262500D01*
X114150000Y-75550000D02*
X106080000Y-75550000D01*
X115600000Y-77000000D02*
X114150000Y-75550000D01*
X115600000Y-85350000D02*
X115600000Y-77000000D01*
%TO.N,/PWM2*%
X113450000Y-76100000D02*
X114900000Y-77550000D01*
X94250000Y-85500000D02*
X91800000Y-85500000D01*
X114900000Y-84750000D02*
X113850000Y-85800000D01*
X105225000Y-74262500D02*
X105225000Y-75825000D01*
X105225000Y-75825000D02*
X105500000Y-76100000D01*
X91800000Y-85500000D02*
X91750000Y-85550000D01*
X114900000Y-77550000D02*
X114900000Y-84750000D01*
X94550000Y-85800000D02*
X94250000Y-85500000D01*
X113850000Y-85800000D02*
X94550000Y-85800000D01*
X105500000Y-76100000D02*
X113450000Y-76100000D01*
%TO.N,/PWM1*%
X94700000Y-84550000D02*
X95200000Y-85050000D01*
X105170000Y-76620000D02*
X104575000Y-76025000D01*
X95200000Y-85050000D02*
X113450000Y-85050000D01*
X104575000Y-76025000D02*
X104575000Y-74262500D01*
X91750000Y-84550000D02*
X94700000Y-84550000D01*
X112770000Y-76620000D02*
X105170000Y-76620000D01*
X113450000Y-85050000D02*
X114250000Y-84250000D01*
X114250000Y-78100000D02*
X112770000Y-76620000D01*
X114250000Y-84250000D02*
X114250000Y-78100000D01*
%TO.N,/PWM0*%
X92650000Y-83550000D02*
X91750000Y-83550000D01*
X94500000Y-81700000D02*
X92650000Y-83550000D01*
X103925000Y-73479264D02*
X103580736Y-73135000D01*
X94500000Y-75900000D02*
X94500000Y-81700000D01*
X103580736Y-73135000D02*
X97265000Y-73135000D01*
X103925000Y-74262500D02*
X103925000Y-73479264D01*
X97265000Y-73135000D02*
X94500000Y-75900000D01*
%TO.N,/PWM11*%
X107175000Y-67210392D02*
X107700000Y-66685392D01*
X107700000Y-66685392D02*
X107700000Y-57450000D01*
X104300000Y-54050000D02*
X103350000Y-54050000D01*
X107175000Y-68537500D02*
X107175000Y-67210392D01*
X107700000Y-57450000D02*
X104300000Y-54050000D01*
%TO.N,/PWM10*%
X107825000Y-67295784D02*
X108500000Y-66620784D01*
X107825000Y-68537500D02*
X107825000Y-67295784D01*
X108500000Y-66620784D02*
X108500000Y-57200000D01*
X108500000Y-57200000D02*
X103350000Y-52050000D01*
%TO.N,/PWM9*%
X109250000Y-66606174D02*
X109250000Y-55950000D01*
X109250000Y-55950000D02*
X103350000Y-50050000D01*
X108475000Y-68537500D02*
X108475000Y-67381174D01*
X108475000Y-67381174D02*
X109250000Y-66606174D01*
%TO.N,/PWM8*%
X109900000Y-67762500D02*
X109900000Y-54600000D01*
X109125000Y-68537500D02*
X109900000Y-67762500D01*
X109900000Y-54600000D02*
X103350000Y-48050000D01*
%TO.N,Net-(D14-K)*%
X174462500Y-56787500D02*
X174475000Y-56800000D01*
D50*
X172925000Y-43725000D02*
X175213125Y-43725000D01*
X172172425Y-50902575D02*
X172172425Y-44477575D01*
D49*
X172125000Y-56787500D02*
X174462500Y-56787500D01*
D50*
X172125000Y-54450000D02*
X172125000Y-50950000D01*
X172387500Y-54450000D02*
X172125000Y-54450000D01*
X174225000Y-50902575D02*
X172172425Y-50902575D01*
X172125000Y-56787500D02*
X172125000Y-54450000D01*
X172172425Y-50902575D02*
X172125000Y-50950000D01*
X172172425Y-44477575D02*
X172925000Y-43725000D01*
%TO.N,Net-(D17-K)*%
X186627500Y-50827575D02*
X184959925Y-50827575D01*
X184959925Y-50827575D02*
X184937500Y-50850000D01*
X185775000Y-43725000D02*
X187402500Y-43725000D01*
X184959925Y-44540075D02*
X185775000Y-43725000D01*
X184937500Y-57600000D02*
X185050000Y-57712500D01*
D49*
X187342500Y-57712500D02*
X187350000Y-57720000D01*
D50*
X184937500Y-54750000D02*
X184937500Y-57600000D01*
D49*
X185050000Y-57712500D02*
X187342500Y-57712500D01*
D50*
X184937500Y-54750000D02*
X184937500Y-50850000D01*
X184959925Y-50827575D02*
X184959925Y-44540075D01*
D49*
%TO.N,Net-(D23-K)*%
X163850000Y-125903934D02*
X166087500Y-125903934D01*
D50*
X164400000Y-130600000D02*
X166450000Y-130600000D01*
X166500000Y-137000000D02*
X165675000Y-137825000D01*
X166500000Y-128941434D02*
X166500000Y-130650000D01*
D49*
X166087500Y-125903934D02*
X166100000Y-125891434D01*
D50*
X165675000Y-137825000D02*
X163950000Y-137825000D01*
X165712500Y-128153934D02*
X166500000Y-128941434D01*
X166450000Y-130600000D02*
X166500000Y-130650000D01*
X166100000Y-125891434D02*
X166100000Y-127766434D01*
X166500000Y-130650000D02*
X166500000Y-137000000D01*
X166100000Y-127766434D02*
X165712500Y-128153934D01*
D49*
%TO.N,Net-(D26-K)*%
X177460000Y-126050000D02*
X179697500Y-126050000D01*
D50*
X179800000Y-128927500D02*
X179800000Y-130750000D01*
X179710000Y-126037500D02*
X179710000Y-127862500D01*
X179800000Y-137200000D02*
X179175000Y-137825000D01*
X179175000Y-137825000D02*
X177110000Y-137825000D01*
X177500000Y-130750000D02*
X179800000Y-130750000D01*
X179710000Y-127862500D02*
X179222500Y-128350000D01*
X179800000Y-130750000D02*
X179800000Y-137200000D01*
D49*
X179697500Y-126050000D02*
X179710000Y-126037500D01*
D50*
X179222500Y-128350000D02*
X179800000Y-128927500D01*
D49*
%TO.N,Net-(D1-A)*%
X139550000Y-53050000D02*
X139550000Y-50337500D01*
X139550000Y-50337500D02*
X138200000Y-48987500D01*
X138650000Y-53950000D02*
X139550000Y-53050000D01*
%TO.N,Net-(D3-A)*%
X140115000Y-57172252D02*
X140115000Y-48990000D01*
X140915173Y-57972425D02*
X140115000Y-57172252D01*
X140115000Y-48990000D02*
X140100000Y-48975000D01*
D50*
%TO.N,Net-(D4-A)*%
X143127673Y-52534827D02*
X143127673Y-50944902D01*
X143127673Y-50944902D02*
X143145000Y-50927575D01*
X140650000Y-43725000D02*
X142325000Y-43725000D01*
X143150000Y-44550000D02*
X143150000Y-50922575D01*
X143150000Y-50922575D02*
X143145000Y-50927575D01*
X142325000Y-43725000D02*
X143150000Y-44550000D01*
X141067327Y-50927575D02*
X143145000Y-50927575D01*
X143127673Y-52534827D02*
X142150000Y-53512500D01*
D49*
%TO.N,Net-(D5-A)*%
X151480001Y-50067501D02*
X150350000Y-48937500D01*
X151479999Y-53382501D02*
X151480001Y-50067501D01*
X150712500Y-54150000D02*
X151479999Y-53382501D01*
%TO.N,Net-(D6-A)*%
X153187500Y-57950000D02*
X152250000Y-57012500D01*
X152250000Y-57012500D02*
X152250000Y-48937500D01*
D50*
%TO.N,Net-(D7-A)*%
X153225000Y-50902575D02*
X155847425Y-50902575D01*
X155847425Y-50902575D02*
X155850000Y-50900000D01*
X155850000Y-50900000D02*
X155850000Y-44350000D01*
X155850000Y-44350000D02*
X155225000Y-43725000D01*
X155225000Y-43725000D02*
X152834375Y-43725000D01*
X155850000Y-52162500D02*
X155850000Y-50900000D01*
X154200000Y-53812500D02*
X155850000Y-52162500D01*
D49*
%TO.N,Net-(D9-A)*%
X162612500Y-54200000D02*
X163490000Y-53322500D01*
X163100000Y-49600000D02*
X163100000Y-49587500D01*
X163490000Y-53322500D02*
X163490000Y-49990000D01*
X163100000Y-49587500D02*
X162450000Y-48937500D01*
X163490000Y-49990000D02*
X163100000Y-49600000D01*
%TO.N,Net-(D10-A)*%
X164300000Y-48937500D02*
X164150000Y-49087500D01*
X164150000Y-57225075D02*
X164887500Y-57962575D01*
X164150000Y-49087500D02*
X164150000Y-57225075D01*
%TO.N,GP10*%
X100650000Y-100750000D02*
X94650000Y-100750000D01*
X93750000Y-99850000D02*
X91750000Y-99850000D01*
X94650000Y-100750000D02*
X93750000Y-99850000D01*
%TO.N,GP11*%
X94850000Y-99700000D02*
X94000000Y-98850000D01*
X98900000Y-99700000D02*
X94850000Y-99700000D01*
X94000000Y-98850000D02*
X91750000Y-98850000D01*
%TO.N,GP12*%
X95150000Y-98600000D02*
X94400000Y-97850000D01*
X94400000Y-97850000D02*
X91750000Y-97850000D01*
X97150000Y-98600000D02*
X95150000Y-98600000D01*
%TO.N,GP13*%
X95450000Y-97300000D02*
X95000000Y-96850000D01*
X95000000Y-96850000D02*
X91750000Y-96850000D01*
D50*
%TO.N,Net-(D11-A)*%
X167850000Y-50900000D02*
X167900000Y-50850000D01*
X165350000Y-50900000D02*
X167850000Y-50900000D01*
X167900000Y-51912500D02*
X167900000Y-50850000D01*
X167900000Y-44300000D02*
X167325000Y-43725000D01*
X166000000Y-53812500D02*
X167900000Y-51912500D01*
X167325000Y-43725000D02*
X165023750Y-43725000D01*
X167900000Y-50850000D02*
X167900000Y-44300000D01*
D49*
%TO.N,SWDIO*%
X146650000Y-84400000D02*
X136000000Y-84400000D01*
X133179220Y-87220780D02*
X122750000Y-87220780D01*
X136000000Y-84400000D02*
X133179220Y-87220780D01*
%TO.N,Net-(D12-A)*%
X174150000Y-48887500D02*
X174150000Y-48900000D01*
X175165000Y-53497500D02*
X174212500Y-54450000D01*
X175165000Y-49915000D02*
X175165000Y-53497500D01*
X174150000Y-48900000D02*
X175165000Y-49915000D01*
%TO.N,Net-(D13-A)*%
X176862575Y-57962575D02*
X177007500Y-57962575D01*
X175750000Y-50800000D02*
X175750000Y-56850000D01*
X176050000Y-50500000D02*
X175750000Y-50800000D01*
X175750000Y-56850000D02*
X176862575Y-57962575D01*
X176050000Y-48887500D02*
X176050000Y-50500000D01*
%TO.N,5V logic*%
X113987500Y-65225000D02*
X112925000Y-65225000D01*
X105160000Y-83450000D02*
X102340000Y-83450000D01*
X98100000Y-68320000D02*
X98230000Y-68450000D01*
X112750000Y-83450000D02*
X113050000Y-83150000D01*
X99520000Y-83450000D02*
X96700000Y-83450000D01*
X100587500Y-68450000D02*
X100675000Y-68537500D01*
X98230000Y-68450000D02*
X100587500Y-68450000D01*
X110800000Y-83450000D02*
X107980000Y-83450000D01*
X113987500Y-67350000D02*
X113987500Y-65225000D01*
X107980000Y-83450000D02*
X105160000Y-83450000D01*
X112925000Y-65225000D02*
X112150000Y-66000000D01*
X110800000Y-83450000D02*
X112750000Y-83450000D01*
X102340000Y-83450000D02*
X99520000Y-83450000D01*
D50*
%TO.N,Net-(D14-A)*%
X177800000Y-53662500D02*
X179400000Y-52062500D01*
X178775000Y-43725000D02*
X177213125Y-43725000D01*
X179400000Y-50900000D02*
X179400000Y-44350000D01*
X177025000Y-50902575D02*
X179397425Y-50902575D01*
X179400000Y-44350000D02*
X178775000Y-43725000D01*
X179400000Y-52062500D02*
X179400000Y-50900000D01*
X179397425Y-50902575D02*
X179400000Y-50900000D01*
D49*
%TO.N,Net-(D15-A)*%
X187650000Y-53862500D02*
X186762500Y-54750000D01*
X186550000Y-48837500D02*
X187000000Y-49287500D01*
X187000000Y-49287500D02*
X187000000Y-49300000D01*
X187650000Y-49950000D02*
X187650000Y-53862500D01*
X187000000Y-49300000D02*
X187650000Y-49950000D01*
%TO.N,Net-(D16-A)*%
X189762575Y-57962575D02*
X189807500Y-57962575D01*
X188400000Y-56600000D02*
X189762575Y-57962575D01*
X188400000Y-48837500D02*
X188400000Y-56600000D01*
D50*
%TO.N,12V Power Input*%
X160550000Y-58637500D02*
X158462500Y-58637500D01*
X170112500Y-58662500D02*
X170100000Y-58650000D01*
X172125000Y-58662500D02*
X170112500Y-58662500D01*
X185050000Y-59587500D02*
X182612500Y-59587500D01*
X136277673Y-58637500D02*
X133812500Y-58637500D01*
X158462500Y-58637500D02*
X158450000Y-58650000D01*
X182612500Y-59587500D02*
X182600000Y-59600000D01*
X133812500Y-58637500D02*
X133800000Y-58650000D01*
X146562500Y-58687500D02*
X146550000Y-58700000D01*
X148800000Y-58687500D02*
X146562500Y-58687500D01*
%TO.N,Net-(D17-A)*%
X191800000Y-52440075D02*
X191800000Y-50850000D01*
X191175000Y-43725000D02*
X189402500Y-43725000D01*
X189427500Y-50827575D02*
X191777575Y-50827575D01*
X191777575Y-50827575D02*
X191777575Y-44327575D01*
X191777575Y-50827575D02*
X191800000Y-50850000D01*
X191777575Y-44327575D02*
X191175000Y-43725000D01*
X190700000Y-53540075D02*
X191800000Y-52440075D01*
D49*
%TO.N,Net-(D21-A)*%
X163460000Y-129593934D02*
X163460000Y-131622500D01*
X163460000Y-131622500D02*
X163466250Y-131622500D01*
X163466250Y-131622500D02*
X164506250Y-132662500D01*
X163887500Y-129166434D02*
X163460000Y-129593934D01*
X163887500Y-128153934D02*
X163887500Y-129166434D01*
X164506250Y-132662500D02*
X164650000Y-132662500D01*
%TO.N,Net-(D22-A)*%
X162650000Y-132512500D02*
X162650000Y-125091434D01*
X162650000Y-125091434D02*
X161762500Y-124203934D01*
X162950000Y-132662500D02*
X162800000Y-132662500D01*
X162800000Y-132662500D02*
X162650000Y-132512500D01*
D50*
%TO.N,Net-(D23-A)*%
X160525000Y-137825000D02*
X161950000Y-137825000D01*
X159850000Y-137150000D02*
X160525000Y-137825000D01*
X160850000Y-128291434D02*
X159850000Y-129291434D01*
X159850000Y-129291434D02*
X159850000Y-130650000D01*
X159900000Y-130600000D02*
X159850000Y-130650000D01*
X159850000Y-130650000D02*
X159850000Y-137150000D01*
X161600000Y-130600000D02*
X159900000Y-130600000D01*
D49*
%TO.N,Net-(D24-A)*%
X177762500Y-132712500D02*
X176560000Y-131510000D01*
X177800000Y-132712500D02*
X177762500Y-132712500D01*
X176560000Y-129187500D02*
X177397500Y-128350000D01*
X176560000Y-131510000D02*
X176560000Y-129187500D01*
%TO.N,Net-(D25-A)*%
X176040000Y-131725392D02*
X176040000Y-125405000D01*
X176050000Y-131735392D02*
X176040000Y-131725392D01*
X176050000Y-132712500D02*
X176050000Y-131735392D01*
X176040000Y-125405000D02*
X175235000Y-124600000D01*
D50*
%TO.N,Net-(D26-A)*%
X172450000Y-130750000D02*
X172450000Y-137000000D01*
X173275000Y-137825000D02*
X175110000Y-137825000D01*
X174700000Y-130750000D02*
X172450000Y-130750000D01*
X172450000Y-130087500D02*
X172450000Y-130750000D01*
X174050000Y-128487500D02*
X172450000Y-130087500D01*
X172450000Y-137000000D02*
X173275000Y-137825000D01*
D49*
%TO.N,SWCLK*%
X151730000Y-82150000D02*
X151720780Y-82140780D01*
X151720780Y-82140780D02*
X122750000Y-82140780D01*
%TO.N,GPIO23*%
X155012500Y-58872575D02*
X153407500Y-60477575D01*
X153250000Y-55687500D02*
X155012500Y-57450000D01*
X150452425Y-60477575D02*
X153407500Y-60477575D01*
X155012500Y-57950000D02*
X155012500Y-58872575D01*
X145675000Y-65255000D02*
X150452425Y-60477575D01*
X155012500Y-57450000D02*
X155012500Y-57950000D01*
D50*
%TO.N,5V Power Input*%
X194563566Y-122263566D02*
X195350000Y-123050000D01*
X192800000Y-122263566D02*
X194563566Y-122263566D01*
X181897500Y-124162500D02*
X181910000Y-124150000D01*
X166100000Y-124016434D02*
X168687500Y-124016434D01*
X179710000Y-124162500D02*
X181897500Y-124162500D01*
X152675000Y-133050000D02*
X152695000Y-133030000D01*
X168687500Y-124016434D02*
X168700000Y-124003934D01*
D49*
%TO.N,UART0 RX (pico)*%
X163900000Y-70400000D02*
X168270000Y-74770000D01*
X168270000Y-74770000D02*
X168270000Y-75950000D01*
X136755000Y-66495000D02*
X136755000Y-68905000D01*
X138250000Y-70400000D02*
X163900000Y-70400000D01*
X135515000Y-65255000D02*
X136755000Y-66495000D01*
X136755000Y-68905000D02*
X138250000Y-70400000D01*
%TO.N,UART0 TX (pico)*%
X139300000Y-66500000D02*
X139300000Y-69200000D01*
X139750000Y-69650000D02*
X164510000Y-69650000D01*
X164510000Y-69650000D02*
X170810000Y-75950000D01*
X138055000Y-65255000D02*
X139300000Y-66500000D01*
X139300000Y-69200000D02*
X139750000Y-69650000D01*
%TO.N,Net-(J16-Pin_1)*%
X99550000Y-48050000D02*
X101525000Y-48050000D01*
X94980000Y-45250000D02*
X96750000Y-45250000D01*
X96750000Y-45250000D02*
X99550000Y-48050000D01*
%TO.N,Net-(J17-Pin_1)*%
X94980000Y-48920500D02*
X98820500Y-48920500D01*
X98820500Y-48920500D02*
X99950000Y-50050000D01*
X99950000Y-50050000D02*
X101525000Y-50050000D01*
%TO.N,GPIO12*%
X166712500Y-57962575D02*
X166712500Y-57350000D01*
X165357500Y-60477575D02*
X165357500Y-59317575D01*
X165357500Y-63157500D02*
X165995000Y-63795000D01*
X166712500Y-57350000D02*
X165050000Y-55687500D01*
X165995000Y-63795000D02*
X165995000Y-65255000D01*
X165357500Y-59317575D02*
X166712500Y-57962575D01*
X165357500Y-60477575D02*
X165357500Y-63157500D01*
%TO.N,GPIO16*%
X177007500Y-60477575D02*
X177207976Y-60477575D01*
X178832500Y-57962575D02*
X178832500Y-57520000D01*
X171075000Y-65255000D02*
X175852425Y-60477575D01*
X177207976Y-60477575D02*
X178832500Y-58853051D01*
X175852425Y-60477575D02*
X177007500Y-60477575D01*
X178832500Y-58853051D02*
X178832500Y-57962575D01*
X178832500Y-57520000D02*
X176850000Y-55537500D01*
%TO.N,GPIO21*%
X189807500Y-60477575D02*
X190007976Y-60477575D01*
X189807500Y-60492500D02*
X189807500Y-60477575D01*
X191632500Y-57297575D02*
X189750000Y-55415075D01*
X191632500Y-58853051D02*
X191632500Y-57962575D01*
X184000000Y-62300000D02*
X188000000Y-62300000D01*
X188000000Y-62300000D02*
X189807500Y-60492500D01*
X191632500Y-57962575D02*
X191632500Y-57297575D01*
X190007976Y-60477575D02*
X191632500Y-58853051D01*
%TO.N,Net-(J18-Pin_1)*%
X101525000Y-52050000D02*
X98900000Y-52050000D01*
X98900000Y-52050000D02*
X98359000Y-52591000D01*
X98359000Y-52591000D02*
X94980000Y-52591000D01*
%TO.N,GPIO18*%
X142740173Y-57972425D02*
X142740173Y-56927673D01*
X140595000Y-65255000D02*
X140595000Y-61112500D01*
X141257500Y-59455098D02*
X142740173Y-57972425D01*
X140595000Y-61112500D02*
X141257500Y-60450000D01*
X142740173Y-56927673D02*
X141200000Y-55387500D01*
X141257500Y-60450000D02*
X141257500Y-59455098D01*
%TO.N,Net-(J19-Pin_1)*%
X99600000Y-54050000D02*
X101525000Y-54050000D01*
X97388500Y-56261500D02*
X99600000Y-54050000D01*
X94980000Y-56261500D02*
X97388500Y-56261500D01*
%TO.N,Net-(J20-Pin_1)*%
X101525000Y-56050000D02*
X100300000Y-56050000D01*
X100300000Y-56050000D02*
X96418000Y-59932000D01*
X96418000Y-59932000D02*
X94980000Y-59932000D01*
%TO.N,Net-(J28-Pin_2)*%
X103300000Y-59050000D02*
X103300000Y-60187500D01*
X103300000Y-60187500D02*
X105600000Y-62487500D01*
%TO.N,Net-(J28-Pin_3)*%
X102050000Y-60962500D02*
X103575000Y-62487500D01*
X102050000Y-59050000D02*
X102050000Y-60962500D01*
%TO.N,Net-(J28-Pin_4)*%
X100800000Y-61737500D02*
X101550000Y-62487500D01*
X100800000Y-59050000D02*
X100800000Y-61737500D01*
%TO.N,I2C1 SDA*%
X101325000Y-69660392D02*
X101325000Y-68537500D01*
X112640000Y-106050000D02*
X115290000Y-108700000D01*
X130435000Y-72550000D02*
X116114608Y-72550000D01*
X134510000Y-108700000D02*
X142885000Y-117075000D01*
X130435000Y-68815000D02*
X130435000Y-67795000D01*
X116114608Y-72550000D02*
X114269608Y-70705000D01*
X115812500Y-65225000D02*
X120187500Y-69600000D01*
X120187500Y-69600000D02*
X129650000Y-69600000D01*
X163040000Y-72550000D02*
X130435000Y-72550000D01*
X114269608Y-70705000D02*
X102369608Y-70705000D01*
X102369608Y-70705000D02*
X101325000Y-69660392D01*
X115290000Y-108700000D02*
X134510000Y-108700000D01*
X129650000Y-69600000D02*
X130435000Y-68815000D01*
%TO.N,I2C1 SCL*%
X115812500Y-70517500D02*
X115812500Y-71487500D01*
X115812500Y-67350000D02*
X115812500Y-70517500D01*
X111560000Y-110050000D02*
X133350000Y-110050000D01*
X140345000Y-117045000D02*
X140345000Y-117075000D01*
X132975000Y-71475000D02*
X132950000Y-71500000D01*
X101975000Y-69575000D02*
X102585000Y-70185000D01*
X132975000Y-67795000D02*
X132975000Y-71475000D01*
X115812500Y-71487500D02*
X115800000Y-71500000D01*
X132950000Y-71500000D02*
X160650000Y-71500000D01*
X115800000Y-71500000D02*
X132950000Y-71500000D01*
X102585000Y-70185000D02*
X114485000Y-70185000D01*
X114485000Y-70185000D02*
X115800000Y-71500000D01*
X101975000Y-68537500D02*
X101975000Y-69575000D01*
X107560000Y-106050000D02*
X111560000Y-110050000D01*
X133350000Y-110050000D02*
X140345000Y-117045000D01*
%TO.N,Net-(U1-~{OE})*%
X110485000Y-69665000D02*
X108169264Y-69665000D01*
X110900000Y-64300000D02*
X110900000Y-69250000D01*
X108169264Y-69665000D02*
X108150000Y-69645736D01*
X110900000Y-69250000D02*
X110485000Y-69665000D01*
X103925000Y-69575000D02*
X103925000Y-68537500D01*
X108130736Y-69665000D02*
X104015000Y-69665000D01*
X108150000Y-69645736D02*
X108130736Y-69665000D01*
X112100000Y-63100000D02*
X110900000Y-64300000D01*
X104015000Y-69665000D02*
X103925000Y-69575000D01*
X113987500Y-63100000D02*
X112100000Y-63100000D01*
%TO.N,Net-(U1-EXTCLK)*%
X99100000Y-65250000D02*
X100500000Y-66650000D01*
X101750000Y-66650000D02*
X102625000Y-67525000D01*
X102625000Y-67525000D02*
X102625000Y-68537500D01*
X89950000Y-66220000D02*
X90920000Y-65250000D01*
X100500000Y-66650000D02*
X101750000Y-66650000D01*
X90920000Y-65250000D02*
X99100000Y-65250000D01*
%TO.N,DSHOT 1*%
X155570000Y-90450000D02*
X108800000Y-90450000D01*
X108800000Y-90450000D02*
X103400000Y-95850000D01*
X103400000Y-95850000D02*
X91750000Y-95850000D01*
%TO.N,DSHOT 2*%
X142970000Y-89250000D02*
X180700000Y-89250000D01*
X181850000Y-93800000D02*
X178800000Y-96850000D01*
X181850000Y-90400000D02*
X181850000Y-93800000D01*
X178800000Y-96850000D02*
X177500000Y-96850000D01*
X180700000Y-89250000D02*
X181850000Y-90400000D01*
X142870000Y-89150000D02*
X142970000Y-89250000D01*
%TO.N,GP18*%
X177500000Y-95850000D02*
X175200000Y-95850000D01*
X173950000Y-97100000D02*
X133540000Y-97100000D01*
X133540000Y-97100000D02*
X130170000Y-93730000D01*
X175200000Y-95850000D02*
X173950000Y-97100000D01*
%TO.N,GP19*%
X175050000Y-94850000D02*
X177500000Y-94850000D01*
X173450000Y-96450000D02*
X175050000Y-94850000D01*
X135430000Y-96450000D02*
X173450000Y-96450000D01*
X132710000Y-93730000D02*
X135430000Y-96450000D01*
%TO.N,GP20*%
X174900000Y-93850000D02*
X177500000Y-93850000D01*
X137320000Y-95800000D02*
X172950000Y-95800000D01*
X135250000Y-93730000D02*
X137320000Y-95800000D01*
X172950000Y-95800000D02*
X174900000Y-93850000D01*
%TO.N,GP21*%
X176250000Y-91600000D02*
X139920000Y-91600000D01*
X177500000Y-92850000D02*
X176250000Y-91600000D01*
X139920000Y-91600000D02*
X137790000Y-93730000D01*
%TO.N,unconnected-(J31-Pin_29-Pad29)*%
X142870000Y-93730000D02*
X142870000Y-93970000D01*
%TO.N,GP28*%
X186437500Y-124687500D02*
X188300000Y-126550000D01*
X186528934Y-120750000D02*
X186550000Y-120771066D01*
X188000000Y-123158566D02*
X187778934Y-123158566D01*
X188000000Y-123158566D02*
X188000000Y-121300000D01*
X186437500Y-124500000D02*
X186437500Y-124687500D01*
X156600000Y-98800000D02*
X178550000Y-120750000D01*
X188000000Y-121300000D02*
X187471066Y-120771066D01*
X187471066Y-120771066D02*
X186550000Y-120771066D01*
X178550000Y-120750000D02*
X186528934Y-120750000D01*
X187778934Y-123158566D02*
X186437500Y-124500000D01*
%TO.N,GP27*%
X175110000Y-121650000D02*
X174147500Y-120687500D01*
X169837500Y-120687500D02*
X173610000Y-120687500D01*
X173410000Y-124600000D02*
X173410000Y-125022500D01*
X175110000Y-122900000D02*
X175110000Y-121650000D01*
X173410000Y-125022500D02*
X175000000Y-126612500D01*
X174147500Y-120687500D02*
X173610000Y-120687500D01*
X173410000Y-124600000D02*
X175110000Y-122900000D01*
X150500000Y-101350000D02*
X169837500Y-120687500D01*
%TO.N,GP17*%
X161762500Y-122053934D02*
X161762500Y-121012500D01*
X148000000Y-107250000D02*
X135600000Y-107250000D01*
X159937500Y-124203934D02*
X159937500Y-123878934D01*
X125090000Y-96740000D02*
X125090000Y-93730000D01*
X161762500Y-121012500D02*
X148000000Y-107250000D01*
X159937500Y-123878934D02*
X161762500Y-122053934D01*
X159937500Y-124553934D02*
X161800000Y-126416434D01*
X135600000Y-107250000D02*
X125090000Y-96740000D01*
X159937500Y-124203934D02*
X159937500Y-124553934D01*
D50*
%TO.N,Net-(D19-K)*%
X191275000Y-137825000D02*
X189600000Y-137825000D01*
X192800000Y-127483566D02*
X192462500Y-127821066D01*
X192462500Y-127821066D02*
X192462500Y-130700000D01*
D49*
X192767500Y-124171066D02*
X192800000Y-124138566D01*
D50*
X192462500Y-130700000D02*
X192462500Y-136637500D01*
X192462500Y-136637500D02*
X191275000Y-137825000D01*
X192800000Y-124138566D02*
X192800000Y-127483566D01*
D49*
X190400000Y-124171066D02*
X192767500Y-124171066D01*
D50*
X190800000Y-130700000D02*
X192462500Y-130700000D01*
D49*
%TO.N,Net-(D8-A)*%
X189000000Y-132712500D02*
X189000000Y-131600000D01*
X189000000Y-131600000D02*
X189250000Y-131350000D01*
X189250000Y-131350000D02*
X189250000Y-125487500D01*
X189250000Y-125487500D02*
X188262500Y-124500000D01*
%TO.N,Net-(D18-A)*%
X190637500Y-128162500D02*
X190637500Y-127821066D01*
X190637500Y-127821066D02*
X189800000Y-128658566D01*
X190700000Y-132550000D02*
X190700000Y-132712500D01*
X189800000Y-128658566D02*
X189800000Y-131650000D01*
X189800000Y-131650000D02*
X190700000Y-132550000D01*
D50*
%TO.N,Net-(D19-A)*%
X185700000Y-135925000D02*
X187600000Y-137825000D01*
X185700000Y-130075000D02*
X185700000Y-130700000D01*
X188000000Y-130700000D02*
X185700000Y-130700000D01*
X187350000Y-128425000D02*
X185700000Y-130075000D01*
X185700000Y-130700000D02*
X185700000Y-135925000D01*
%TD*%
M02*
