M48
; DRILL file {KiCad 7.0.9} date Fri Jan  5 06:09:29 2024
; FORMAT={-:-/ absolute / inch / decimal}
; #@! TF.CreationDate,2024-01-05T06:09:29-08:00
; #@! TF.GenerationSoftware,Kicad,Pcbnew,7.0.9
; #@! TF.FileFunction,Plated,1,4,PTH
FMAT,2
INCH
; #@! TA.AperFunction,Plated,PTH,ViaDrill
T1C0.0154
; #@! TA.AperFunction,Plated,PTH,ComponentDrill
T2C0.0197
; #@! TA.AperFunction,Plated,PTH,ComponentDrill
T3C0.0315
; #@! TA.AperFunction,Plated,PTH,ComponentDrill
T4C0.0394
; #@! TA.AperFunction,Plated,PTH,ComponentDrill
T5C0.0669
; #@! TA.AperFunction,Plated,PTH,ComponentDrill
T6C0.0748
; #@! TA.AperFunction,Plated,PTH,ComponentDrill
T7C0.0866
; #@! TA.AperFunction,Plated,PTH,ComponentDrill
T8C0.1063
; #@! TA.AperFunction,Plated,PTH,ComponentDrill
T9C0.1260
%
G90
G05
T1
X3.7579Y-3.8307
X3.8248Y-3.8819
X3.8504Y-3.0039
X3.8622Y-2.6181
X3.8937Y-3.9252
X3.9626Y-3.9665
X4.0551Y-2.6142
X4.0846Y-3.1654
X4.2008Y-3.1654
X4.3169Y-3.1555
X4.3681Y-2.9213
X4.4154Y-2.5984
X4.4508Y-3.2736
X4.4547Y-3.1102
X5.1352Y-2.8563
X5.2677Y-2.3091
X5.5827Y-1.8661
X5.6248Y-3.5098
X5.7697Y-2.311
X5.7736Y-3.3228
X5.9252Y-3.9902
X5.9736Y-3.2343
X6.0689Y-1.8661
X6.1248Y-3.561
X6.1654Y-3.8898
X6.2382Y-2.3091
X6.3248Y-2.815
X6.3484Y-5.2835
X6.4189Y-2.8563
X6.5472Y-1.8642
X6.6417Y-4.882
X6.6677Y-5.0039
X6.6969Y-2.3091
X6.8583Y-5.2874
X7.0039Y-1.8622
X7.1618Y-4.8878
X7.189Y-2.3465
X7.2224Y-5.0236
X7.2441Y-2.4528
X7.3681Y-5.2874
X7.4882Y-1.8622
X7.6909Y-4.8445
X7.6949Y-2.3445
T2
X3.9685Y-2.3248
X4.0177Y-2.3248
X4.0669Y-2.3248
X4.1161Y-2.3248
X5.2264Y-5.0965
X5.2756Y-5.0965
X5.3248Y-5.0965
X5.374Y-5.0965
X5.4232Y-5.0965
T3
X3.5413Y-2.6071
X3.5413Y-2.7992
X5.4587Y-1.7215
X5.5374Y-1.7215
X5.9384Y-1.7215
X6.0171Y-1.7215
X6.376Y-5.4262
X6.4183Y-1.7215
X6.4547Y-5.4262
X6.497Y-1.7215
X6.8941Y-5.4262
X6.8982Y-1.7215
X6.9728Y-5.4262
X6.9769Y-1.7215
X7.3781Y-1.7215
X7.3858Y-5.4262
X7.4568Y-1.7215
X7.4646Y-5.4262
T4
X3.5394Y-1.7815
X3.5394Y-1.926
X3.5394Y-2.0705
X3.5394Y-2.215
X3.5394Y-2.3595
X3.6394Y-1.7815
X3.6394Y-1.926
X3.6394Y-2.0705
X3.6394Y-2.215
X3.6394Y-2.3595
X3.7394Y-1.7815
X3.7394Y-1.926
X3.7394Y-2.0705
X3.7394Y-2.215
X3.7394Y-2.3595
X3.9346Y-4.1752
X4.0346Y-4.1752
X4.1346Y-4.1752
X4.1406Y-1.7303
X4.2346Y-4.1752
X4.2406Y-1.7303
X4.3346Y-4.1752
X4.3406Y-1.7303
X4.4346Y-4.1752
X4.5346Y-4.1752
X4.7697Y-1.6673
X4.8248Y-2.9902
X4.8248Y-3.6902
X4.8327Y-3.2339
X4.8327Y-3.3339
X4.8327Y-3.4339
X4.9248Y-2.9902
X4.9248Y-3.6902
X5.0248Y-2.9902
X5.0248Y-3.6902
X5.0352Y-2.5691
X5.0352Y-2.6691
X5.1248Y-2.9902
X5.1248Y-3.6902
X5.1352Y-2.5691
X5.1352Y-2.6691
X5.2028Y-1.6673
X5.2248Y-2.9902
X5.2248Y-3.6902
X5.2254Y-3.9085
X5.2254Y-4.6093
X5.2352Y-2.5691
X5.2352Y-2.6691
X5.3248Y-2.9902
X5.3248Y-3.6902
X5.3254Y-3.9085
X5.3254Y-4.6093
X5.3352Y-2.5691
X5.3352Y-2.6691
X5.4248Y-2.9902
X5.4248Y-3.6902
X5.4254Y-3.9085
X5.4254Y-4.6093
X5.4352Y-2.5691
X5.4352Y-2.6691
X5.5248Y-2.9902
X5.5248Y-3.6902
X5.5254Y-3.9085
X5.5254Y-4.6093
X5.5352Y-2.5691
X5.5352Y-2.6691
X5.6248Y-2.9902
X5.6248Y-3.6902
X5.6254Y-3.9085
X5.6254Y-4.6093
X5.6352Y-2.5691
X5.6352Y-2.6691
X5.7248Y-2.9902
X5.7248Y-3.6902
X5.7254Y-3.9085
X5.7254Y-4.6093
X5.7352Y-2.5691
X5.7352Y-2.6691
X5.8248Y-2.9902
X5.8248Y-3.6902
X5.8352Y-2.5691
X5.8352Y-2.6691
X5.9248Y-2.9902
X5.9248Y-3.6902
X5.9352Y-2.5691
X5.9352Y-2.6691
X6.0248Y-2.9902
X6.0248Y-3.6902
X6.0352Y-2.5691
X6.0352Y-2.6691
X6.1248Y-2.9902
X6.1248Y-3.6902
X6.1352Y-2.5691
X6.1352Y-2.6691
X6.2248Y-2.9902
X6.2248Y-3.6902
X6.2352Y-2.5691
X6.2352Y-2.6691
X6.3248Y-2.9902
X6.3248Y-3.6902
X6.3352Y-2.5691
X6.3352Y-2.6691
X6.4248Y-2.9902
X6.4248Y-3.6902
X6.4352Y-2.5691
X6.4352Y-2.6691
X6.5248Y-2.9902
X6.5248Y-3.6902
X6.5352Y-2.5691
X6.5352Y-2.6691
X6.6248Y-2.9902
X6.6248Y-3.6902
X6.6352Y-2.5691
X6.6352Y-2.6691
X6.7248Y-2.9902
X6.7248Y-3.6902
X6.7352Y-2.5691
X6.7352Y-2.6691
X6.8352Y-2.5691
X6.8352Y-2.6691
X6.9352Y-2.5691
X6.9352Y-2.6691
X6.964Y-2.8957
X7.064Y-2.8957
T5
X6.0116Y-5.0815
X6.0116Y-5.2374
T6
X4.8878Y-1.8642
X5.0846Y-1.8642
T7
X3.6102Y-4.6555
X3.6102Y-5.2972
X4.252Y-4.6555
X4.252Y-5.2972
T8
X4.8287Y-4.5335
X4.8297Y-2.5965
X7.1102Y-2.5974
X7.1102Y-4.5315
T9
X4.5276Y-2.0039
X4.6535Y-5.1772
X7.8346Y-2.0098
X7.8858Y-5.0197
T0
M30
